<svg width="76" height="76" viewBox="0 0 76 76" fill="none" xmlns="http://www.w3.org/2000/svg">
<rect width="76" height="76" rx="9" fill="white"/>
<path d="M13.5081 17.9858L14.1335 19.1412L12.7259 19.2844L12 18.1392L13.5081 17.9858Z" fill="url(#paint0_radial_62_2318)"/>
<path d="M13.2388 20.8956L14.1672 22.6108L12.0777 22.8233L11 21.1233L13.2388 20.8956Z" fill="url(#paint1_radial_62_2318)"/>
<path d="M7.32088 19.1138L8.28334 20.8918L6.11718 21.1121L5 19.3498L7.32088 19.1138Z" fill="url(#paint2_radial_62_2318)"/>
<path d="M9.38843 24.0759L10.3509 25.8539L8.18473 26.0742L7.06755 24.3119L9.38843 24.0759Z" fill="url(#paint3_radial_62_2318)"/>
<path d="M8.93934 16.0005L9.74357 17.4862L7.93352 17.6703L7 16.1977L8.93934 16.0005Z" fill="url(#paint4_radial_62_2318)"/>
<path d="M9.70244 12L10.5011 13.4754L8.7036 13.6582L7.77656 12.1959L9.70244 12Z" fill="url(#paint5_radial_62_2318)"/>
<path d="M16.5358 22.213L17.4982 23.991L15.3321 24.2113L14.2149 22.449L16.5358 22.213Z" fill="url(#paint6_radial_62_2318)"/>
<path d="M54.0563 30.2683C57.5 19.9347 64.8918 22.6711 70.3343 26.8087C60.556 17.9862 45.6545 21.0006 40.1288 32.919L28.4389 58.1327C27.4187 60.3332 28.2235 63.0227 30.2785 64.2803C32.4302 65.5971 35.156 64.8643 36.3696 62.643L54.0563 30.2683Z" fill="url(#paint7_radial_62_2318)"/>
<path fill-rule="evenodd" clip-rule="evenodd" d="M24.026 36.5204L24.03 36.5279C24.3315 37.0883 24.633 37.6488 24.9388 38.2165L23.0188 38.7225L25.1294 41.5879L26.5867 41.2679C27.5964 43.1311 28.7123 45.1764 30.0518 47.6059L25.4245 57.5866L15.5677 39.4916L17.7786 39.0062L15.8015 35.9891L13.9287 36.4827L10.5087 30.2044L12.7824 29.2656L11.5048 26.8781L14.1518 26.2899L15.0143 28.3075L17.5 27.4347L16.6249 25.7403L18 25.4347C20.5485 30.0568 22.2873 33.2887 24.026 36.5204ZM15.1675 31.3699L13 32.0719L14.1027 33.9222L16.2702 33.2202L15.1675 31.3699ZM16.9917 32.6709L18.2879 32.3624L19.1048 33.7332L17.8086 34.0417L16.9917 32.6709ZM18.2879 29.3704L16.5783 29.7763L17.3952 31.1471L19.1048 30.7412L18.2879 29.3704Z" fill="url(#paint8_radial_62_2318)"/>
<defs>
<radialGradient id="paint0_radial_62_2318" cx="0" cy="0" r="1" gradientUnits="userSpaceOnUse" gradientTransform="translate(21.9682 58.9892) rotate(-44.1727) scale(67.4334 156.375)">
<stop offset="0.0671491" stop-color="#D300FF"/>
<stop offset="1" stop-color="#4E0093"/>
</radialGradient>
<radialGradient id="paint1_radial_62_2318" cx="0" cy="0" r="1" gradientUnits="userSpaceOnUse" gradientTransform="translate(21.9682 58.9892) rotate(-44.1727) scale(67.4334 156.375)">
<stop offset="0.0671491" stop-color="#D300FF"/>
<stop offset="1" stop-color="#4E0093"/>
</radialGradient>
<radialGradient id="paint2_radial_62_2318" cx="0" cy="0" r="1" gradientUnits="userSpaceOnUse" gradientTransform="translate(21.9682 58.9892) rotate(-44.1727) scale(67.4334 156.375)">
<stop offset="0.0671491" stop-color="#D300FF"/>
<stop offset="1" stop-color="#4E0093"/>
</radialGradient>
<radialGradient id="paint3_radial_62_2318" cx="0" cy="0" r="1" gradientUnits="userSpaceOnUse" gradientTransform="translate(21.9682 58.9892) rotate(-44.1727) scale(67.4334 156.375)">
<stop offset="0.0671491" stop-color="#D300FF"/>
<stop offset="1" stop-color="#4E0093"/>
</radialGradient>
<radialGradient id="paint4_radial_62_2318" cx="0" cy="0" r="1" gradientUnits="userSpaceOnUse" gradientTransform="translate(21.9682 58.9892) rotate(-44.1727) scale(67.4334 156.375)">
<stop offset="0.0671491" stop-color="#D300FF"/>
<stop offset="1" stop-color="#4E0093"/>
</radialGradient>
<radialGradient id="paint5_radial_62_2318" cx="0" cy="0" r="1" gradientUnits="userSpaceOnUse" gradientTransform="translate(21.9682 58.9892) rotate(-44.1727) scale(67.4334 156.375)">
<stop offset="0.0671491" stop-color="#D300FF"/>
<stop offset="1" stop-color="#4E0093"/>
</radialGradient>
<radialGradient id="paint6_radial_62_2318" cx="0" cy="0" r="1" gradientUnits="userSpaceOnUse" gradientTransform="translate(21.9682 58.9892) rotate(-44.1727) scale(67.4334 156.375)">
<stop offset="0.0671491" stop-color="#D300FF"/>
<stop offset="1" stop-color="#4E0093"/>
</radialGradient>
<radialGradient id="paint7_radial_62_2318" cx="0" cy="0" r="1" gradientUnits="userSpaceOnUse" gradientTransform="translate(21.9682 58.9892) rotate(-44.1727) scale(67.4334 156.375)">
<stop offset="0.0671491" stop-color="#D300FF"/>
<stop offset="1" stop-color="#4E0093"/>
</radialGradient>
<radialGradient id="paint8_radial_62_2318" cx="0" cy="0" r="1" gradientUnits="userSpaceOnUse" gradientTransform="translate(21.9682 58.9892) rotate(-44.1727) scale(67.4334 156.375)">
<stop offset="0.0671491" stop-color="#D300FF"/>
<stop offset="1" stop-color="#4E0093"/>
</radialGradient>
</defs>
</svg>
