<svg width="360" height="360" viewBox="0 0 360 360" fill="none" xmlns="http://www.w3.org/2000/svg">
<path d="M101.847 21.2609H35.779V130.622H101.847V21.2609Z" fill="#E0E0E0"/>
<path d="M99.6495 21.2609H33.5815V130.622H99.6495V21.2609Z" fill="#EBEBEB"/>
<path d="M96.8357 23.4785H36.3946V128.404H96.8357V23.4785Z" fill="#FAFAFA"/>
<path d="M85.0686 37.1124H47.9022V114.769H85.0686V37.1124Z" fill="#EBEBEB"/>
<path d="M47.9016 87.2892C47.8159 80.0352 54.3384 72.9533 61.5218 71.9402C64.9476 71.4571 68.5865 72.1368 71.7876 70.8249C77.5008 68.4821 79.3188 60.8918 85.068 58.6404L85.3308 114.769H47.9016V87.2892Z" fill="#E0E0E0"/>
<path d="M201.237 59.918L195.453 59.9492L195.609 88.7283L201.392 88.6971L201.237 59.918Z" fill="#E0E0E0"/>
<path d="M160.325 59.9953L145.348 60.0762L145.434 75.9644L160.411 75.8835L160.325 59.9953Z" fill="#EBEBEB"/>
<path d="M175.232 59.9146L160.254 59.9955L160.34 75.8837L175.318 75.8028L175.232 59.9146Z" fill="#F5F5F5"/>
<path d="M145.366 64.4696C155.319 64.5517 165.297 64.4941 175.249 64.3321C175.454 64.3292 175.453 64.0153 175.247 64.0138C165.294 63.9591 155.316 64.0081 145.364 64.1967C145.189 64.2003 145.19 64.4682 145.366 64.4696Z" fill="#E0E0E0"/>
<path d="M163.222 75.6183L136.01 75.7653L136.08 88.713L163.291 88.5661L163.222 75.6183Z" fill="#EBEBEB"/>
<path d="M190.304 75.4728L163.092 75.6198L163.162 88.5668L190.374 88.4198L190.304 75.4728Z" fill="#F5F5F5"/>
<path d="M136.024 79.3713C154.101 79.5758 172.241 79.3922 190.318 79.1035C190.523 79.0999 190.521 78.7859 190.316 78.7852C172.238 78.6895 154.097 78.7003 136.023 79.0984C135.847 79.102 135.848 79.3691 136.024 79.3713Z" fill="#E0E0E0"/>
<path d="M231.272 88.7178H125.847V93.356H231.272V88.7178Z" fill="#E0E0E0"/>
<path d="M147.388 90.9476H143.108V106.775H147.388V90.9476Z" fill="#E0E0E0"/>
<path d="M211.275 90.9476H206.995V106.775H211.275V90.9476Z" fill="#E0E0E0"/>
<path d="M206.88 49.1861L201.096 49.2173L201.31 88.7986L207.094 88.7673L206.88 49.1861Z" fill="#EBEBEB"/>
<path d="M215.917 56.5568L206.93 56.6053L207.103 88.6813L216.09 88.6328L215.917 56.5568Z" fill="#F5F5F5"/>
<path d="M215.851 62.7429C215.851 62.8286 213.839 62.8984 211.358 62.8984C208.876 62.8984 206.864 62.8286 206.864 62.7429C206.864 62.6572 208.876 62.5874 211.358 62.5874C213.839 62.5874 215.851 62.6565 215.851 62.7429Z" fill="#E0E0E0"/>
<path d="M215.851 61.3951C215.851 61.4808 213.839 61.5507 211.358 61.5507C208.876 61.5507 206.864 61.4808 206.864 61.3951C206.864 61.3095 208.876 61.2396 211.358 61.2396C213.839 61.2396 215.851 61.3095 215.851 61.3951Z" fill="#E0E0E0"/>
<path d="M215.851 83.813C215.851 83.8987 213.839 83.9685 211.358 83.9685C208.876 83.9685 206.864 83.8987 206.864 83.813C206.864 83.7273 208.876 83.6575 211.358 83.6575C213.839 83.6568 215.851 83.7266 215.851 83.813Z" fill="#E0E0E0"/>
<path d="M215.851 82.4652C215.851 82.5509 213.839 82.6207 211.358 82.6207C208.876 82.6207 206.864 82.5509 206.864 82.4652C206.864 82.3795 208.876 82.3097 211.358 82.3097C213.839 82.3097 215.851 82.3795 215.851 82.4652Z" fill="#E0E0E0"/>
<path d="M211.502 79.5254C211.416 79.5254 211.347 76.289 211.347 72.298C211.347 68.3056 211.417 65.0699 211.502 65.0699C211.588 65.0699 211.658 68.3056 211.658 72.298C211.658 76.289 211.589 79.5254 211.502 79.5254Z" fill="#E0E0E0"/>
<path d="M225.73 64.4401H215.948V88.6508H225.73V64.4401Z" fill="#EBEBEB"/>
<path d="M205.56 55.9526C205.56 56.8706 204.816 57.6151 203.898 57.6151C202.98 57.6151 202.235 56.8706 202.235 55.9526C202.235 55.0346 202.98 54.2902 203.898 54.2902C204.816 54.2909 205.56 55.0346 205.56 55.9526Z" fill="#E0E0E0"/>
<path d="M204.412 60.5247H203.384V84.0708H204.412V60.5247Z" fill="#E0E0E0"/>
<path d="M276.165 267.961C272.943 265.937 269.25 264.666 265.465 264.277C263.717 264.098 261.806 264.149 260.403 265.208C260.106 265.433 259.816 265.766 259.882 266.133C259.931 266.403 260.159 266.599 260.377 266.765C264.73 270.086 271.316 270.506 276.165 267.961Z" fill="#E0E0E0"/>
<path d="M275.89 267.659C273.468 265.768 271.031 263.864 268.979 261.577C266.927 259.29 265.259 256.575 264.646 253.564C264.46 252.65 264.403 251.607 264.989 250.883C270.498 255.185 274.825 260.749 275.89 267.659Z" fill="#E0E0E0"/>
<path d="M276.108 267.92C275.693 264.906 275.544 261.808 276.236 258.846C276.928 255.883 278.54 253.048 281.069 251.358C282.022 253.583 281.612 256.146 280.942 258.472C279.905 262.066 278.279 265.488 276.149 268.563" fill="#E0E0E0"/>
<path d="M281.508 277.597C278.23 277.995 275.375 279.724 272.927 281.94C270.479 284.157 268.739 287.143 268.018 290.367C271.234 290.168 273.961 287.9 275.941 285.358C277.919 282.815 279.29 280.025 281.464 277.646" fill="#E0E0E0"/>
<path d="M282.681 279.145C280.04 272.64 280.997 264.802 285.125 259.124C286.993 265.768 286.307 273.272 282.681 279.145Z" fill="#E0E0E0"/>
<path d="M289.817 287.641C286.842 287.456 283.817 288.166 281.233 289.652C278.65 291.14 276.518 293.399 275.183 296.065C275.002 296.427 274.842 296.888 275.085 297.212C275.296 297.495 275.704 297.521 276.055 297.497C278.94 297.31 281.496 295.575 283.604 293.599C285.713 291.624 287.551 289.341 289.882 287.632" fill="#E0E0E0"/>
<path d="M289.59 287.178C288.055 282.267 287.96 276.916 289.318 271.953C289.854 269.993 290.755 267.931 292.567 267.011C292.722 266.933 292.902 266.863 293.064 266.924C293.218 266.982 293.307 267.139 293.378 267.288C294.022 268.635 294.21 270.164 294.144 271.656C294.078 273.148 293.768 274.617 293.459 276.077C292.888 278.78 292.585 281.684 291.102 284.015C290.75 284.568 290.441 285.165 290.16 285.758C289.879 286.35 289.877 286.559 289.62 287.03" fill="#E0E0E0"/>
<path d="M308.479 289.993C307.079 284.67 308.565 278.217 311.919 273.853C312.166 273.532 312.494 273.187 312.897 273.224C313.515 273.281 313.674 274.105 313.647 274.725C313.405 280.164 311.59 285.525 308.479 289.993Z" fill="#E0E0E0"/>
<path d="M310.182 291.157C316.649 292.84 324.068 291.204 329.448 287.239C326.259 285.623 322.502 285.162 319.018 285.959C315.534 286.756 312.35 288.317 310.182 291.157Z" fill="#E0E0E0"/>
<path d="M311.618 287.613C315.24 281.707 322.184 277.853 329.103 277.502C328.306 280.316 325.994 282.503 323.384 283.825C320.775 285.147 317.863 285.723 314.991 286.28C313.874 286.497 312.342 286.735 311.618 287.613Z" fill="#E0E0E0"/>
<path d="M308.839 270.414C309.82 267.054 310.806 263.664 311.075 260.173C311.345 256.684 310.847 253.04 309.036 250.044C305.652 256.591 305.31 264.241 308.737 270.765" fill="#E0E0E0"/>
<path d="M320.229 264.657C324.186 257.466 332.258 251.721 340.427 250.916C337.276 258.762 328.683 264.825 320.229 264.657Z" fill="#E0E0E0"/>
<path d="M317.74 266.066C323.641 266.964 328.668 270.734 334.183 273.018C335.362 273.507 336.635 273.896 337.9 273.73C339.166 273.565 340.415 272.715 340.698 271.471C340.934 270.438 340.464 269.34 339.722 268.583C338.98 267.826 338 267.353 337.022 266.945C331.016 264.444 324.575 264.382 318.248 265.899" fill="#E0E0E0"/>
<path d="M314.326 270.204C315.662 270.587 316.118 271.279 317.177 272.179C320.766 275.237 325.07 277.448 329.645 278.585C330.121 278.703 330.746 278.75 330.982 278.32C331.188 277.944 330.927 277.489 330.659 277.154C328.742 274.756 326.008 273.115 323.131 272.043C320.253 270.972 317.76 269.68 314.326 269.958" fill="#E0E0E0"/>
<path d="M310.473 245.208C315.271 249.687 322.029 251.986 328.563 251.363C328.861 251.335 329.185 251.288 329.387 251.068C329.842 250.572 329.296 249.808 328.766 249.394C323.447 245.247 317.004 243.528 310.473 245.208Z" fill="#E0E0E0"/>
<path d="M315.041 243.536C321.384 238.781 330.081 237.346 337.615 239.812C334.772 242.614 330.828 244.121 326.858 244.534C322.888 244.948 318.912 244.507 315.041 243.536Z" fill="#E0E0E0"/>
<path d="M313.225 232.05C312.702 226.742 313.042 222.551 312.673 217.217C312.643 216.791 312.552 216.278 312.153 216.125C311.598 215.911 311.135 216.593 310.953 217.159C309.372 222.076 310.236 227.715 313.217 231.934" fill="#E0E0E0"/>
<path d="M312.844 232.636C316.442 230.411 319.141 227.505 321.638 224.089C323.374 221.712 324.839 218.866 324.444 215.948C322.005 215.899 319.687 217.245 318.1 219.098C316.514 220.951 315.571 223.268 314.867 225.604C314.163 227.94 313.669 230.341 312.844 232.636Z" fill="#E0E0E0"/>
<path d="M321.484 230.236C329.381 227.315 336.748 222.971 343.126 217.474C340.541 216.433 337.581 217.056 334.997 218.099C329.092 220.483 324.267 224.507 321.371 230.178" fill="#E0E0E0"/>
<path d="M315.273 235.541C319.268 235.978 323.326 236.262 327.29 235.599C331.186 234.948 334.868 233.404 338.509 231.872C338.811 231.745 339.139 231.592 339.272 231.293C339.415 230.967 339.263 230.571 338.998 230.333C338.735 230.095 338.384 229.98 338.041 229.884C334.084 228.777 329.812 229.295 325.917 230.609C322.023 231.923 318.83 233.482 315.273 235.541Z" fill="#E0E0E0"/>
<path d="M292.46 245.39C289.735 239.887 289.912 233.467 292.266 227.796C293.923 230.322 294.126 233.538 293.823 236.544C293.52 239.55 292.604 242.643 292.545 245.663" fill="#E0E0E0"/>
<path d="M281.571 239.898C274.766 239.767 267.958 242.667 263.337 247.665C266.733 248.198 270.232 247.322 273.321 245.814C276.411 244.305 279.156 242.189 281.878 240.087" fill="#E0E0E0"/>
<path d="M274.25 237.449C270.921 237.179 267.718 236.768 264.516 237.748C261.315 238.729 258.402 240.956 257.098 244.039C260.212 244.39 263.369 243.609 266.223 242.316C269.077 241.022 271.673 239.231 274.25 237.449Z" fill="#E0E0E0"/>
<path d="M285.09 237.561C282.095 235.598 279.019 233.6 275.532 232.787C272.045 231.975 268.003 232.575 265.571 235.204C268.394 236.86 271.819 237.056 275.092 237.053C278.365 237.051 282.378 237.014 285.463 238.106" fill="#E0E0E0"/>
<path d="M285.108 237.72C279.987 232.692 278.047 223.659 280.107 216.786C284.131 222.901 285.934 230.445 285.108 237.72Z" fill="#E0E0E0"/>
<path d="M299.187 223.474C300.152 221.229 300.832 218.873 301.698 216.587C302.564 214.302 303.641 212.054 305.279 210.239C306.916 208.425 309.18 207.073 311.62 206.952C310.092 213.871 305.497 220.052 299.313 223.51" fill="#E0E0E0"/>
<path d="M296.639 226.442C295.042 224.243 293.195 221.257 291.028 219.615C288.861 217.973 286.039 216.98 283.395 217.611C286.084 222.419 291.167 225.808 296.639 226.442Z" fill="#E0E0E0"/>
<path d="M297.149 223.657C296.101 220.995 295.047 218.306 294.623 215.477C294.2 212.648 294.458 209.627 295.904 207.16C298.715 212.473 299.62 218.176 297.293 223.718" fill="#E0E0E0"/>
<path d="M299.213 207.159C300.805 201.892 305.627 198.014 310.834 196.235C311.491 196.01 312.186 195.823 312.872 195.929C313.557 196.035 314.23 196.504 314.374 197.183C314.564 198.078 313.824 198.881 313.127 199.477C309.072 202.944 304.307 205.575 299.213 207.159Z" fill="#E0E0E0"/>
<path d="M299.27 202.852C299.473 199.456 299.684 196.011 300.789 192.794C301.893 189.576 304.022 186.558 307.119 185.149C307.646 188.579 306.132 191.992 304.307 194.943C302.482 197.894 300.282 200.68 299.187 203.972" fill="#E0E0E0"/>
<path d="M299.187 205.189C297.871 201.351 297.735 196.475 295.436 193.131C293.83 190.793 291.257 189.202 289.872 186.725C288.953 189.037 289.234 191.702 290.196 193.997C291.158 196.293 292.747 198.268 294.448 200.085C296.149 201.902 297.606 203.267 299.187 205.189Z" fill="#E0E0E0"/>
<path d="M299.213 318.228C299.11 318.228 299.022 292.622 299.015 261.042C299.007 229.452 299.084 203.851 299.187 203.851C299.289 203.851 299.377 229.452 299.385 261.042C299.392 292.622 299.315 318.228 299.213 318.228Z" fill="#E0E0E0"/>
<path d="M321.589 241.526C321.597 241.551 321.253 241.678 320.627 241.888C319.935 242.121 319.045 242.421 317.977 242.782C315.743 243.543 312.674 244.645 309.344 246.01C306.045 247.424 302.936 248.573 301.164 250.108C300.279 250.865 299.771 251.685 299.52 252.282C299.266 252.883 299.22 253.251 299.187 253.245C299.174 253.243 299.178 253.151 299.197 252.976C299.227 252.803 299.272 252.546 299.385 252.23C299.601 251.599 300.095 250.723 300.99 249.913C301.879 249.101 303.119 248.372 304.538 247.708C305.958 247.046 307.531 246.354 309.203 245.668C312.543 244.298 315.636 243.232 317.896 242.533C319.025 242.181 319.946 241.921 320.585 241.75C321.225 241.582 321.582 241.501 321.589 241.526Z" fill="#E0E0E0"/>
<path d="M328.924 223.51C328.933 223.519 328.839 223.618 328.654 223.798C328.436 224.002 328.164 224.258 327.833 224.569C327.069 225.263 326.031 226.206 324.765 227.356C322.116 229.714 318.525 232.912 314.556 236.447C310.571 239.994 307.126 243.384 304.739 245.935C303.544 247.21 302.603 248.266 301.961 249.003C301.661 249.345 301.416 249.625 301.219 249.85C301.047 250.042 300.952 250.139 300.942 250.131C300.932 250.123 301.008 250.01 301.161 249.803C301.316 249.597 301.542 249.291 301.85 248.91C302.459 248.144 303.373 247.059 304.546 245.758C306.89 243.154 310.316 239.725 314.309 236.17C318.308 232.63 321.947 229.452 324.592 227.159C325.89 226.045 326.954 225.132 327.737 224.461C328.087 224.17 328.374 223.932 328.604 223.741C328.806 223.58 328.915 223.5 328.924 223.51Z" fill="#E0E0E0"/>
<path d="M310.253 240.054C310.149 240.007 310.981 238.085 311.81 235.654C312.648 233.223 313.042 231.172 313.147 231.189C313.244 231.199 313.008 233.31 312.16 235.773C311.743 237.002 311.283 238.082 310.921 238.85C310.559 239.617 310.298 240.074 310.253 240.054Z" fill="#E0E0E0"/>
<path d="M299.236 255.552C299.215 255.568 298.998 255.313 298.622 254.84C298.205 254.305 297.678 253.629 297.049 252.822C295.728 251.114 293.9 248.756 291.853 246.176C289.804 243.595 287.922 241.281 286.558 239.606C285.915 238.81 285.376 238.143 284.95 237.616C284.574 237.142 284.376 236.873 284.396 236.856C284.415 236.84 284.651 237.077 285.06 237.523C285.471 237.967 286.051 238.622 286.759 239.438C288.175 241.071 290.091 243.363 292.143 245.946C294.193 248.53 295.989 250.916 297.259 252.666C297.894 253.541 298.398 254.255 298.738 254.755C299.078 255.254 299.256 255.537 299.236 255.552Z" fill="#E0E0E0"/>
<path d="M294.33 249.253C294.269 249.318 292.96 247.765 292.274 245.405C291.768 243.742 291.745 242.222 291.808 241.526L291.972 241.539C291.898 241.836 291.845 241.992 291.816 241.987C291.787 241.982 291.785 241.817 291.81 241.512L291.973 241.526C292.033 242.216 292.137 243.685 292.63 245.3C293.291 247.586 294.429 249.191 294.33 249.253Z" fill="#E0E0E0"/>
<path d="M287.996 241.286C287.948 241.337 287.527 240.806 286.561 240.452C285.602 240.081 284.16 240 282.576 240.135C280.992 240.251 279.577 240.534 278.564 240.782C277.551 241.034 276.931 241.23 276.913 241.178C276.896 241.134 277.485 240.849 278.494 240.53C279.5 240.214 280.935 239.884 282.549 239.766C284.149 239.627 285.668 239.751 286.659 240.209C287.663 240.654 288.029 241.277 287.996 241.286Z" fill="#E0E0E0"/>
<path d="M286.494 239.355C286.466 239.412 285.658 239.02 284.295 238.554C282.935 238.086 280.997 237.595 278.809 237.425C276.62 237.262 274.63 237.453 273.215 237.709C271.797 237.963 270.94 238.229 270.92 238.167C270.912 238.143 271.12 238.056 271.503 237.919C271.885 237.776 272.453 237.614 273.164 237.452C274.584 237.127 276.609 236.889 278.837 237.056C281.064 237.229 283.03 237.771 284.384 238.308C285.062 238.575 285.599 238.822 285.954 239.021C286.314 239.214 286.505 239.332 286.494 239.355Z" fill="#E0E0E0"/>
<path d="M299.187 231.189C299.088 231.214 298.369 228.72 297.583 225.619C296.796 222.517 296.24 219.983 296.338 219.958C296.437 219.933 297.155 222.426 297.942 225.528C298.729 228.629 299.286 231.164 299.187 231.189Z" fill="#E0E0E0"/>
<path d="M299.289 231.189C299.179 231.225 298.717 229.558 297.512 227.855C296.339 226.115 294.841 225.242 294.896 225.156C294.916 225.117 295.329 225.269 295.906 225.676C296.484 226.079 297.199 226.76 297.814 227.642C299.066 229.415 299.379 231.183 299.289 231.189Z" fill="#E0E0E0"/>
<path d="M299.213 304.578C299.172 304.584 299.097 303.962 298.809 302.875C298.524 301.788 297.986 300.246 297.098 298.442C295.329 294.827 292.11 290.243 288.019 285.652C285.993 283.337 284.026 281.152 282.357 279.06C280.685 276.971 279.311 274.98 278.307 273.22C277.301 271.461 276.646 269.951 276.263 268.886C276.075 268.352 275.938 267.935 275.862 267.647C275.781 267.36 275.745 267.209 275.757 267.205C275.79 267.194 275.977 267.791 276.399 268.835C276.82 269.878 277.507 271.359 278.534 273.089C279.559 274.82 280.945 276.78 282.623 278.847C284.298 280.917 286.268 283.09 288.299 285.409C292.4 290.013 295.612 294.655 297.334 298.329C298.2 300.163 298.705 301.735 298.949 302.841C299.068 303.396 299.148 303.828 299.176 304.126C299.213 304.42 299.226 304.576 299.213 304.578Z" fill="#E0E0E0"/>
<path d="M319.433 281.739C319.445 281.766 319.058 281.962 318.373 282.334C317.694 282.715 316.729 283.303 315.624 284.151C314.519 284.997 313.284 286.108 312.015 287.443C310.748 288.782 309.443 290.336 308.11 292.002C305.447 295.343 302.957 298.3 301.465 300.66C300.707 301.831 300.157 302.818 299.796 303.511C299.433 304.202 299.24 304.59 299.213 304.578C299.202 304.573 299.236 304.469 299.311 304.277C299.39 304.086 299.497 303.8 299.668 303.447C299.99 302.732 300.509 301.718 301.244 300.521C302.693 298.104 305.164 295.106 307.823 291.77C309.158 290.101 310.479 288.544 311.77 287.207C313.063 285.873 314.332 284.769 315.469 283.941C316.607 283.112 317.603 282.552 318.308 282.206C318.66 282.03 318.946 281.922 319.136 281.84C319.325 281.763 319.428 281.727 319.433 281.739Z" fill="#E0E0E0"/>
<path d="M319.828 289.148C319.833 289.202 318.973 289.306 317.588 289.474C316.209 289.652 314.288 289.883 312.276 290.52C310.272 291.173 308.606 292.167 307.52 293.016C306.423 293.864 305.906 294.564 305.856 294.523C305.838 294.51 305.945 294.319 306.188 294.008C306.428 293.694 306.82 293.275 307.355 292.813C308.424 291.892 310.105 290.838 312.163 290.168C314.225 289.516 316.171 289.326 317.563 289.213C318.959 289.112 319.825 289.1 319.828 289.148Z" fill="#E0E0E0"/>
<path d="M306.51 293.71C306.393 293.643 307.403 292.102 308.185 290.027C308.92 287.934 309.092 286.1 309.224 286.121C309.272 286.127 309.27 286.586 309.187 287.322C309.099 288.057 308.922 289.079 308.533 290.153C308.141 291.227 307.628 292.125 307.234 292.75C306.834 293.374 306.551 293.735 306.51 293.71Z" fill="#E0E0E0"/>
<path d="M325.981 261.847C325.986 261.86 325.863 261.924 325.623 262.038C325.345 262.164 324.996 262.323 324.57 262.516C324.109 262.714 323.549 262.965 322.919 263.298C322.286 263.624 321.548 263.96 320.779 264.422C320.389 264.644 319.981 264.876 319.557 265.117C319.134 265.361 318.714 265.65 318.268 265.929C317.367 266.476 316.465 267.149 315.502 267.836C313.617 269.266 311.635 270.959 309.727 272.915C307.838 274.889 306.213 276.928 304.847 278.861C304.194 279.847 303.552 280.773 303.037 281.691C302.772 282.146 302.498 282.576 302.269 283.008C302.043 283.44 301.825 283.855 301.617 284.252C301.182 285.036 300.871 285.786 300.566 286.43C300.255 287.071 300.024 287.639 299.843 288.107C299.663 288.539 299.517 288.893 299.401 289.175C299.295 289.418 299.234 289.544 299.223 289.54C299.21 289.536 299.248 289.402 299.331 289.151C299.431 288.861 299.555 288.499 299.709 288.055C299.871 287.578 300.083 287.001 300.378 286.348C300.666 285.694 300.961 284.933 301.384 284.136C301.587 283.733 301.799 283.311 302.02 282.873C302.244 282.435 302.514 282 302.774 281.538C303.281 280.606 303.918 279.668 304.569 278.67C305.928 276.712 307.559 274.65 309.463 272.66C311.386 270.689 313.391 268.99 315.301 267.564C316.277 266.88 317.192 266.211 318.106 265.673C318.559 265.397 318.985 265.112 319.414 264.874C319.845 264.638 320.259 264.412 320.656 264.195C321.437 263.745 322.188 263.424 322.832 263.114C323.474 262.798 324.045 262.565 324.516 262.387C324.955 262.219 325.313 262.081 325.598 261.972C325.845 261.878 325.977 261.836 325.981 261.847Z" fill="#E0E0E0"/>
<path d="M309.979 272.57C309.946 272.564 310.124 271.943 310.859 271.259C311.575 270.577 312.882 269.945 314.404 269.899C315.921 269.859 317.236 270.284 318.135 270.628C319.038 270.983 319.563 271.27 319.545 271.313C319.524 271.364 318.961 271.162 318.048 270.875C317.139 270.596 315.853 270.23 314.415 270.269C312.983 270.312 311.746 270.864 311.028 271.457C310.296 272.048 310.038 272.606 309.979 272.57Z" fill="#E0E0E0"/>
<path d="M307.587 275.038C307.485 274.982 308.388 273.658 308.593 271.762C308.83 269.87 308.256 268.375 308.368 268.343C308.408 268.327 308.61 268.674 308.784 269.297C308.959 269.917 309.075 270.82 308.961 271.806C308.845 272.791 308.524 273.642 308.211 274.205C307.899 274.771 307.622 275.063 307.587 275.038Z" fill="#E0E0E0"/>
<path d="M281.528 308.247C282.079 318.033 285.029 327.984 289.564 338.046H309.288C313.613 328.085 316.358 318.148 316.846 308.247H281.528Z" fill="#E0E0E0"/>
<path d="M313.649 324.081C313.649 324.184 307.155 324.266 299.146 324.266C291.134 324.266 284.642 324.184 284.642 324.081C284.642 323.979 291.135 323.896 299.146 323.896C307.156 323.896 313.649 323.979 313.649 324.081Z" fill="#FAFAFA"/>
<path d="M313.209 327.627C313.209 327.729 307.12 327.812 299.612 327.812C292.101 327.812 286.015 327.729 286.015 327.627C286.015 327.524 292.102 327.442 299.612 327.442C307.121 327.442 313.209 327.524 313.209 327.627Z" fill="#FAFAFA"/>
<path d="M289.882 314.672C289.984 314.672 290.067 316.706 290.067 319.215C290.067 321.724 289.984 323.758 289.882 323.758C289.78 323.758 289.697 321.724 289.697 319.215C289.697 316.706 289.78 314.672 289.882 314.672Z" fill="#FAFAFA"/>
<path d="M300.45 314.672C300.552 314.672 300.635 316.778 300.635 319.376C300.635 321.975 300.552 324.081 300.45 324.081C300.347 324.081 300.264 321.975 300.264 319.376C300.264 316.778 300.348 314.672 300.45 314.672Z" fill="#FAFAFA"/>
<path d="M310.37 314.592C310.473 314.592 310.555 316.741 310.555 319.39C310.555 322.042 310.473 324.189 310.37 324.189C310.268 324.189 310.185 322.042 310.185 319.39C310.185 316.741 310.268 314.592 310.37 314.592Z" fill="#FAFAFA"/>
<path d="M316.22 314.672C316.22 314.774 308.603 314.857 299.209 314.857C289.812 314.857 282.197 314.774 282.197 314.672C282.197 314.569 289.812 314.487 299.209 314.487C308.604 314.487 316.22 314.569 316.22 314.672Z" fill="#FAFAFA"/>
<path d="M326.953 27.8705H278.243V78.647H326.953V27.8705Z" fill="#E0E0E0"/>
<path d="M323.654 27.8702H274.944V78.6468H323.654V27.8702Z" fill="#FAFAFA"/>
<path d="M323.67 78.6622H274.929V27.8553H323.67V78.6622ZM274.959 78.6319H323.639V27.8856H274.959V78.6319Z" fill="#E0E0E0"/>
<path d="M317.107 34.696H281.492V71.8207H317.107V34.696Z" fill="white"/>
<path d="M281.492 72.0677C281.52 72.1008 281.182 72.4896 280.614 73.0894C280.045 73.6899 279.246 74.502 278.35 75.3848C277.453 76.2675 276.63 77.0537 276.023 77.6117C275.415 78.1697 275.024 78.5002 274.993 78.4692C274.963 78.4383 275.298 78.0516 275.867 77.4519C276.436 76.8514 277.237 76.0371 278.136 75.1522C279.035 74.2673 279.86 73.4789 280.467 72.9209C281.074 72.3629 281.464 72.0346 281.492 72.0677Z" fill="#E0E0E0"/>
<path d="M317.106 71.977C317.139 71.9489 317.528 72.2873 318.128 72.8554C318.728 73.4242 319.54 74.2234 320.423 75.119C321.306 76.0154 322.092 76.8384 322.65 77.4461C323.208 78.053 323.539 78.4447 323.508 78.475C323.477 78.5059 323.09 78.1697 322.49 77.6009C321.89 77.0321 321.075 76.2307 320.191 75.3322C319.306 74.4336 318.518 73.6085 317.959 73.0008C317.401 72.3931 317.073 72.005 317.106 71.977Z" fill="#E0E0E0"/>
<path d="M317.009 34.7954C316.981 34.7623 317.319 34.3735 317.888 33.7737C318.457 33.1732 319.256 32.3611 320.152 31.4791C321.047 30.5963 321.871 29.8101 322.478 29.2514C323.086 28.6934 323.477 28.3636 323.508 28.3946C323.538 28.4255 323.202 28.8115 322.633 29.4119C322.065 30.0124 321.263 30.8267 320.365 31.7116C319.466 32.5965 318.641 33.3849 318.034 33.9429C317.426 34.5002 317.037 34.8285 317.009 34.7954Z" fill="#E0E0E0"/>
<path d="M281.395 34.8862C281.362 34.9143 280.974 34.5759 280.373 34.0071C279.773 33.4383 278.96 32.6391 278.078 31.7434C277.195 30.847 276.409 30.024 275.851 29.4171C275.293 28.8094 274.962 28.4184 274.993 28.3882C275.024 28.3572 275.41 28.6935 276.011 29.2623C276.611 29.8311 277.425 30.6324 278.31 31.531C279.195 32.4296 279.984 33.2547 280.542 33.8624C281.1 34.4693 281.428 34.8581 281.395 34.8862Z" fill="#E0E0E0"/>
<path d="M317.009 71.8207C317.006 71.8178 317.004 71.7573 317.001 71.6399C316.999 71.5132 316.997 71.3426 316.993 71.1223C316.989 70.6564 316.984 69.9875 316.977 69.1178C316.968 67.3588 316.956 64.8007 316.941 61.5513C316.924 55.049 316.9 45.7862 316.871 34.6953L317.009 34.8328C306.641 34.8386 294.466 34.8458 281.496 34.853H281.492L281.65 34.6953C281.642 48.322 281.634 61.0696 281.627 71.8199L281.492 71.6846C292.134 71.7134 300.996 71.7371 307.208 71.7537C310.312 71.7688 312.754 71.7811 314.432 71.789C315.261 71.7962 315.899 71.8012 316.343 71.8048C316.553 71.8084 316.716 71.8106 316.837 71.8127C316.948 71.8163 317.007 71.8185 317.009 71.8207C317.012 71.8235 316.958 71.8257 316.852 71.8286C316.734 71.8307 316.577 71.8329 316.372 71.8365C315.934 71.8401 315.305 71.8451 314.487 71.8523C312.817 71.8603 310.386 71.8725 307.295 71.8876C301.061 71.9042 292.17 71.9279 281.492 71.9567L281.357 71.9575V71.8214C281.35 61.0703 281.342 48.3227 281.334 34.6967V34.5391H281.492H281.496C294.466 34.5463 306.641 34.5535 317.009 34.5592H317.146V34.6967C317.118 45.8243 317.093 55.1174 317.076 61.6406C317.061 64.8763 317.048 67.4243 317.041 69.1761C317.033 70.0336 317.028 70.6946 317.025 71.1539C317.022 71.3685 317.019 71.5341 317.017 71.6572C317.014 71.7681 317.012 71.8235 317.009 71.8207Z" fill="#E0E0E0"/>
<path d="M305.24 47.3163H293.357V59.2006H305.24V47.3163Z" fill="#EBEBEB"/>
<path d="M340.684 338.739C340.684 338.843 268.093 338.926 178.567 338.926C89.0107 338.926 16.4354 338.842 16.4354 338.739C16.4354 338.635 89.0114 338.552 178.567 338.552C268.093 338.552 340.684 338.635 340.684 338.739Z" fill="#263238"/>
<path d="M264.337 311.715L264.905 338.789L229.266 339.629C229.39 336.407 247.657 329.513 247.657 329.513L246.541 312.18L264.337 311.715Z" fill="#455A64"/>
<g opacity="0.6">
<path d="M258.639 327.793C259.333 327.955 259.829 328.677 259.687 329.339C259.544 330.001 258.772 330.484 258.075 330.334C257.377 330.183 256.754 329.334 256.974 328.691C257.194 328.049 258.134 327.528 258.772 327.833" fill="white"/>
</g>
<g opacity="0.6">
<path d="M264.905 338.789L264.735 336.063L230.628 337.887C230.628 337.887 229.059 338.576 229.266 339.628L264.905 338.789Z" fill="white"/>
</g>
<path d="M247.075 329.355C247.085 329.519 247.957 329.573 248.828 330.082C249.712 330.568 250.172 331.271 250.33 331.202C250.49 331.166 250.204 330.189 249.139 329.591C248.08 328.984 247.033 329.204 247.075 329.355Z" fill="#263238"/>
<path d="M243.376 330.904C243.341 331.065 244.102 331.326 244.711 332.008C245.341 332.672 245.511 333.421 245.683 333.41C245.848 333.431 245.943 332.466 245.168 331.632C244.401 330.792 243.375 330.746 243.376 330.904Z" fill="#263238"/>
<path d="M241.364 335.182C241.523 335.213 241.744 334.385 241.273 333.495C240.809 332.602 239.98 332.266 239.909 332.404C239.814 332.542 240.355 333.013 240.73 333.749C241.123 334.477 241.191 335.169 241.364 335.182Z" fill="#263238"/>
<path d="M247.285 325.377C247.362 325.526 248.154 325.28 249.139 325.32C250.126 325.341 250.899 325.635 250.986 325.492C251.084 325.371 250.32 324.78 249.159 324.747C247.998 324.708 247.195 325.251 247.285 325.377Z" fill="#263238"/>
<path d="M248.028 321.361C248.028 321.429 248.718 321.515 249.813 321.31C250.357 321.208 250.997 321.024 251.665 320.724C251.999 320.574 252.34 320.396 252.677 320.186C252.838 320.082 253.03 319.977 253.205 319.776C253.394 319.6 253.492 319.162 253.262 318.9C253.073 318.645 252.747 318.541 252.49 318.542C252.227 318.54 252.015 318.595 251.822 318.645C251.428 318.745 251.059 318.878 250.722 319.031C250.049 319.339 249.505 319.722 249.103 320.09C248.296 320.833 248.03 321.455 248.09 321.485C248.17 321.538 248.559 321.013 249.384 320.396C249.796 320.088 250.324 319.769 250.954 319.511C251.269 319.383 251.61 319.272 251.971 319.188C252.346 319.085 252.667 319.076 252.768 319.232C252.804 319.292 252.809 319.316 252.733 319.422C252.654 319.519 252.503 319.617 252.344 319.72C252.034 319.922 251.721 320.098 251.415 320.252C250.801 320.558 250.212 320.771 249.705 320.918C248.693 321.211 248.023 321.273 248.028 321.361Z" fill="#263238"/>
<path d="M248.261 321.592C248.324 321.615 248.653 321.018 248.689 319.951C248.705 319.422 248.63 318.784 248.396 318.11C248.278 317.775 248.12 317.432 247.915 317.097C247.697 316.768 247.43 316.329 246.753 316.271C246.401 316.267 246.115 316.534 246.02 316.759C245.909 316.99 245.89 317.186 245.853 317.382C245.798 317.777 245.816 318.162 245.882 318.518C246.013 319.232 246.339 319.821 246.691 320.242C247.41 321.098 248.142 321.278 248.155 321.222C248.211 321.138 247.595 320.835 247.041 320.009C246.767 319.601 246.519 319.061 246.434 318.437C246.391 318.126 246.388 317.795 246.442 317.462C246.488 317.102 246.622 316.81 246.765 316.843C246.942 316.837 247.25 317.099 247.404 317.381C247.594 317.678 247.748 317.984 247.87 318.285C248.109 318.888 248.222 319.468 248.26 319.96C248.335 320.949 248.165 321.569 248.261 321.592Z" fill="#263238"/>
<path d="M291.349 313.964L294.754 340.829L330.132 336.439C329.538 333.269 310.458 329.126 310.458 329.126L309.023 311.816L291.349 313.964Z" fill="#455A64"/>
<g opacity="0.6">
<path d="M299.342 329.034C298.679 329.296 298.294 330.083 298.532 330.717C298.77 331.351 299.605 331.716 300.272 331.465C300.94 331.214 301.432 330.283 301.121 329.679C300.808 329.075 299.803 328.698 299.215 329.092" fill="white"/>
</g>
<g opacity="0.6">
<path d="M294.754 340.829L294.523 338.107L328.529 334.914C328.529 334.914 330.183 335.367 330.132 336.438L294.754 340.829Z" fill="white"/>
</g>
<path d="M311.01 328.884C311.024 329.049 310.17 329.23 309.383 329.861C308.58 330.472 308.228 331.234 308.061 331.189C307.897 331.178 308.037 330.169 309.002 329.421C309.961 328.665 311.029 328.73 311.01 328.884Z" fill="#263238"/>
<path d="M314.896 329.874C314.955 330.028 314.24 330.399 313.738 331.162C313.212 331.911 313.154 332.677 312.981 332.691C312.822 332.736 312.587 331.795 313.23 330.857C313.866 329.914 314.874 329.72 314.896 329.874Z" fill="#263238"/>
<path d="M317.514 333.812C317.361 333.867 317.021 333.08 317.357 332.131C317.685 331.179 318.456 330.726 318.546 330.852C318.66 330.975 318.193 331.52 317.931 332.303C317.649 333.08 317.683 333.775 317.514 333.812Z" fill="#263238"/>
<path d="M310.221 324.981C310.166 325.138 309.346 325.012 308.377 325.195C307.405 325.361 306.683 325.765 306.576 325.636C306.462 325.53 307.13 324.834 308.274 324.632C309.416 324.423 310.29 324.842 310.221 324.981Z" fill="#263238"/>
<path d="M308.897 321.117C308.907 321.184 308.237 321.37 307.124 321.328C306.57 321.306 305.91 321.218 305.205 321.02C304.852 320.921 304.489 320.794 304.126 320.636C303.951 320.557 303.746 320.481 303.543 320.309C303.331 320.162 303.17 319.743 303.359 319.45C303.509 319.17 303.816 319.019 304.07 318.982C304.33 318.942 304.548 318.965 304.745 318.987C305.15 319.028 305.534 319.105 305.89 319.207C306.601 319.414 307.194 319.713 307.647 320.018C308.555 320.635 308.909 321.211 308.853 321.25C308.781 321.313 308.32 320.851 307.413 320.362C306.96 320.118 306.391 319.879 305.731 319.716C305.4 319.637 305.047 319.576 304.677 319.546C304.291 319.499 303.972 319.537 303.895 319.706C303.868 319.77 303.866 319.794 303.957 319.889C304.05 319.974 304.213 320.049 304.386 320.128C304.722 320.282 305.057 320.411 305.383 320.517C306.035 320.73 306.649 320.855 307.171 320.926C308.216 321.066 308.889 321.029 308.897 321.117Z" fill="#263238"/>
<path d="M308.7 321.379C308.642 321.412 308.228 320.869 308.036 319.819C307.943 319.298 307.923 318.655 308.056 317.955C308.124 317.606 308.23 317.244 308.384 316.882C308.551 316.526 308.75 316.052 309.411 315.896C309.76 315.839 310.082 316.062 310.208 316.271C310.352 316.482 310.399 316.674 310.464 316.862C310.576 317.245 310.615 317.629 310.602 317.99C310.576 318.716 310.34 319.347 310.055 319.815C309.469 320.767 308.771 321.052 308.75 320.998C308.683 320.923 309.247 320.533 309.675 319.635C309.886 319.192 310.052 318.622 310.044 317.991C310.041 317.676 309.997 317.349 309.894 317.027C309.796 316.678 309.62 316.409 309.483 316.462C309.307 316.481 309.041 316.786 308.93 317.088C308.785 317.411 308.678 317.735 308.601 318.051C308.453 318.683 308.426 319.273 308.461 319.765C308.532 320.754 308.791 321.342 308.7 321.379Z" fill="#263238"/>
<path d="M233.425 167.912L292.184 169.79C292.184 169.79 305.261 257.124 304.901 263.192L312.965 326.54L289.498 327.363C289.498 327.363 285.806 306.821 283.231 292.761C281.519 283.406 278.393 269.68 277.546 261.869C276.698 254.058 265.005 200.292 265.005 200.292C265.005 200.292 263.988 262.83 263.965 265.432C263.941 268.033 266.678 327.313 266.678 327.313H243.374C242.171 316.613 239.311 273.799 238.695 265.146C237.583 249.526 232.12 204.584 231.609 193.306C231.098 182.029 233.425 167.912 233.425 167.912Z" fill="#263238"/>
<path d="M283.266 177.287C283.378 177.291 283.506 176.074 283.552 174.569C283.597 173.064 283.544 171.842 283.432 171.839C283.32 171.835 283.192 173.052 283.147 174.557C283.1 176.062 283.154 177.283 283.266 177.287Z" fill="#455A64"/>
<path d="M281.123 176.653C281.235 176.642 281.228 175.602 281.11 174.33C280.991 173.057 280.804 172.035 280.692 172.045C280.58 172.055 280.587 173.095 280.706 174.367C280.824 175.64 281.012 176.663 281.123 176.653Z" fill="#455A64"/>
<path d="M245.264 176.656C245.375 176.656 245.467 175.765 245.467 174.666C245.467 173.567 245.376 172.676 245.264 172.676C245.151 172.676 245.061 173.567 245.061 174.666C245.061 175.765 245.151 176.656 245.264 176.656Z" fill="#455A64"/>
<path d="M242.959 177.704C243.064 177.721 243.308 176.578 243.186 175.154C243.071 173.729 242.64 172.642 242.54 172.676C242.427 172.709 242.672 173.812 242.782 175.187C242.901 176.562 242.842 177.69 242.959 177.704Z" fill="#455A64"/>
<path d="M261.678 198.893C261.705 198.886 261.655 198.523 261.541 197.87C261.417 197.139 261.258 196.214 261.07 195.108C260.685 192.776 260.231 189.54 259.938 185.946C259.649 182.351 259.577 179.085 259.581 176.72C259.59 175.599 259.597 174.66 259.602 173.918C259.609 173.256 259.6 172.889 259.572 172.888C259.543 172.886 259.5 173.251 259.444 173.911C259.386 174.571 259.332 175.53 259.294 176.715C259.216 179.086 259.243 182.368 259.534 185.979C259.829 189.588 260.33 192.833 260.788 195.159C261.017 196.322 261.223 197.26 261.387 197.902C261.548 198.546 261.65 198.899 261.678 198.893Z" fill="#455A64"/>
<path d="M263.686 173.546C263.67 173.618 264.305 173.54 264.861 174.2C265.12 174.514 265.342 175.004 265.245 175.515C265.165 176.027 264.673 176.462 264.069 176.575C263.465 176.692 262.85 176.467 262.586 176.021C262.308 175.581 262.335 175.043 262.461 174.657C262.737 173.839 263.355 173.678 263.313 173.617C263.31 173.598 263.158 173.596 262.922 173.719C262.686 173.837 262.385 174.113 262.193 174.556C262.014 174.989 261.929 175.625 262.269 176.216C262.601 176.823 263.414 177.124 264.146 176.974C264.882 176.844 265.528 176.266 265.615 175.58C265.713 174.905 265.401 174.345 265.075 174.008C264.734 173.667 264.352 173.521 264.09 173.497C263.823 173.468 263.683 173.527 263.686 173.546Z" fill="#455A64"/>
<path d="M289.267 269.904C289.31 270.008 291.971 269.013 295.21 267.682C298.451 266.351 301.042 265.189 300.999 265.085C300.956 264.982 298.296 265.977 295.056 267.307C291.817 268.638 289.225 269.801 289.267 269.904Z" fill="#455A64"/>
<path d="M247.688 95.719C247.688 95.719 240.15 98.4449 238.092 105.539C236.498 111.038 228.282 140.538 228.282 140.538L211.285 128.681L204.82 135.894C204.82 135.894 220.337 165.532 228.96 165.524C236.167 165.517 242.497 160.006 242.497 160.006L251.744 133.279L247.688 95.719Z" fill="url(#paint0_radial_50_808)"/>
<path d="M301.676 101.36L306.809 104.81L292.741 160.854L294.702 182.602C291.006 185.824 280.634 188.61 262.915 187.606C245.196 186.601 232.04 179.363 232.04 179.363L235.587 149.594L246.859 113.307L247.689 95.7182L265.696 92.0664L286.224 93.8153L301.676 101.36Z" fill="url(#paint1_radial_50_808)"/>
<path d="M246.974 140.538C247.095 140.538 247.201 133.551 247.211 124.933C247.221 116.312 247.131 109.326 247.01 109.326C246.889 109.326 246.783 116.312 246.773 124.932C246.763 133.55 246.853 140.538 246.974 140.538Z" fill="#263238"/>
<path d="M320.22 149.862L261.796 134.411L261.674 134.379L234.55 127.205L219.755 183.152L247 190.357L254.59 161.656L313.015 177.107L320.22 149.862Z" fill="#455A64"/>
<path opacity="0.3" d="M320.22 149.862L261.796 134.411L261.674 134.379L234.55 127.205L219.755 183.152L247 190.357L254.59 161.656L313.015 177.107L320.22 149.862Z" fill="black"/>
<path d="M295.183 143.24L236.758 127.789L236.636 127.758L209.513 120.584L194.717 176.53L221.962 183.736L229.553 155.034L287.977 170.486L295.183 143.24Z" fill="#455A64"/>
<path d="M301.526 101.355L306.01 104.383C310.169 107.191 312.874 111.581 313.432 116.438C314.956 129.701 316.165 153.626 313.16 158.595C309.105 165.3 265.823 167.484 265.823 167.484L262.915 154.07L298.227 145.951L297.786 134.802L301.526 101.355Z" fill="url(#paint2_radial_50_808)"/>
<path d="M297.76 120.584C297.75 120.585 297.747 120.744 297.75 121.054C297.755 121.387 297.764 121.841 297.775 122.42C297.792 123.617 297.829 125.376 297.824 127.618C297.847 132.1 297.53 138.528 297.853 146.285L297.996 146.099C288.954 148.095 278.072 150.497 266.363 153.081C265.188 153.342 264.021 153.601 262.868 153.857L262.655 153.905L262.701 154.117C263.72 158.799 264.701 163.31 265.619 167.529L265.656 167.7L265.831 167.693C277.686 167.234 287.821 165.834 294.952 164.602C298.519 163.983 301.339 163.4 303.266 162.968C304.229 162.75 304.969 162.572 305.467 162.446C305.699 162.384 305.885 162.334 306.031 162.294C306.157 162.258 306.22 162.236 306.219 162.23C306.217 162.224 306.151 162.234 306.022 162.258C305.874 162.289 305.686 162.327 305.451 162.375C304.922 162.484 304.183 162.636 303.237 162.83C301.303 163.219 298.477 163.762 294.908 164.344C287.774 165.502 277.648 166.845 265.816 167.275L266.028 167.44C265.116 163.22 264.141 158.707 263.129 154.025L262.963 154.284C264.116 154.029 265.283 153.77 266.458 153.509C278.161 150.898 289.037 148.471 298.075 146.454L298.225 146.421L298.218 146.269C297.855 138.533 298.118 132.106 298.034 127.617C298.008 125.373 297.937 123.614 297.885 122.417C297.852 121.838 297.825 121.385 297.806 121.051C297.784 120.743 297.769 120.583 297.76 120.584Z" fill="#263238"/>
<path d="M258.355 156.642C258.355 156.642 257.282 154.995 255.057 153.736C252.832 152.477 248.422 152.046 247.566 150.582C246.708 149.117 245.382 150.657 246.148 152.544C246.635 153.745 249.87 156.496 249.87 156.496C249.87 156.496 247.005 157.866 244.761 157.115C242.517 156.365 235.058 155.71 234.506 156.846C233.881 158.131 235.799 158.128 236.681 158.417C237.352 158.636 242.498 160.007 242.498 160.007C242.498 160.007 233.127 161.577 232.044 162.257C230.867 162.997 232.401 163.858 232.992 163.763C233.364 163.703 232.349 164.939 233.693 165.762C234.605 166.321 238.589 166.383 239.641 166.187L241.811 165.78L235.38 167.802C235.38 167.802 234.455 169.071 236.145 169.292C236.899 169.391 257.398 168.222 258.96 167.998C261.662 167.612 265.489 166.926 265.489 166.926L263.298 155.833L258.355 156.642Z" fill="#9F7362"/>
<path d="M202.702 147.218L203.927 143.065C203.927 143.065 210.301 139.761 211.197 137.823L211.789 136.74C211.789 136.74 215.123 135.536 214.877 133.509C215.749 132.388 215.869 131.527 214.767 131.091C214.767 131.091 217.298 130.225 216.369 127.933C215.44 125.641 205.489 130.622 205.489 130.622C205.489 130.622 200.565 132.07 201.972 134.49C201.972 134.49 201.252 136.729 201.981 138.329C201.981 138.329 199.675 140.278 201.058 142.307L202.702 147.218Z" fill="#9F7362"/>
<path d="M203.284 137.999C203.288 137.979 203.132 137.918 202.836 137.936C202.543 137.952 202.111 138.087 201.702 138.432C201.293 138.767 200.92 139.337 200.788 140.028C200.641 140.716 200.699 141.487 200.846 142.253C201.137 143.788 201.668 145.108 202.139 146.01C202.61 146.913 202.999 147.411 203.039 147.385C203.152 147.33 201.79 145.187 201.229 142.18C201.085 141.438 201.025 140.721 201.139 140.096C201.243 139.467 201.54 138.968 201.887 138.637C202.595 137.951 203.299 138.067 203.284 137.999Z" fill="#65463C"/>
<path d="M205.601 134.134C205.661 134.238 207.593 133.119 210.178 132.236C212.759 131.336 214.969 131.023 214.952 130.905C214.946 130.856 214.384 130.871 213.487 131.008C212.592 131.143 211.363 131.417 210.051 131.869C208.742 132.322 207.606 132.865 206.817 133.311C206.027 133.757 205.575 134.091 205.601 134.134Z" fill="#65463C"/>
<path d="M205.607 136.573C205.657 136.676 207.647 135.763 210.203 134.923C212.756 134.073 214.898 133.621 214.877 133.508C214.863 133.41 212.666 133.694 210.081 134.554C207.494 135.405 205.559 136.485 205.607 136.573Z" fill="#65463C"/>
<path d="M203.715 133.15C203.718 133.045 202.941 133.074 202.311 133.717C201.676 134.354 201.656 135.132 201.762 135.127C201.872 135.148 202.047 134.523 202.588 133.99C203.115 133.443 203.736 133.261 203.715 133.15Z" fill="#65463C"/>
<path d="M206.725 139.313C206.785 139.406 207.851 138.808 209.192 138.137C210.532 137.462 211.648 136.964 211.609 136.86C211.575 136.762 210.38 137.102 209.018 137.789C207.654 138.472 206.667 139.226 206.725 139.313Z" fill="#65463C"/>
<path d="M262.298 58.2156C260.504 58.2487 258.808 56.7713 258.594 54.9893C258.381 53.2073 259.681 51.3713 261.432 50.9803C260.436 49.7434 260.337 47.862 261.197 46.5271C262.056 45.1923 263.811 44.5054 265.349 44.9014C265.563 43.3483 266.637 41.9422 268.08 41.328C269.522 40.7139 271.28 40.914 272.548 41.8363C274.413 40.5231 277.197 40.7326 278.844 42.3108C280.386 42.1755 281.961 43.1403 282.542 44.5752C283.123 46.0102 282.662 47.7994 281.46 48.775" fill="#263238"/>
<path d="M261.72 58.6785C263.127 50.7038 270.422 45.1476 278.484 45.9079L279.285 45.9835C287.875 47.304 291.552 55.3363 289.995 63.887L286.028 92.5322L285.651 96.6276C285.138 102.19 280.189 106.266 274.632 105.705C269.12 105.147 265.099 100.235 265.641 94.7225L266.232 88.7069C266.232 88.7069 258.05 86.6318 258.732 78.3201C259.062 74.3054 260.412 66.0953 261.72 58.6785Z" fill="#9F7362"/>
<path d="M266.165 88.6881C266.165 88.6881 271.437 89.5075 277.344 86.5317C277.344 86.5317 274.221 92.2651 266.008 90.7351L266.165 88.6881Z" fill="#65463C"/>
<path d="M263.544 66.4171C263.463 67.0413 263.925 67.6245 264.575 67.721C265.224 67.8175 265.817 67.3912 265.897 66.7677C265.979 66.1435 265.517 65.5595 264.869 65.4631C264.218 65.3666 263.626 65.7936 263.544 66.4171Z" fill="#263238"/>
<path d="M263.122 62.9071C263.254 63.0756 264.215 62.4953 265.491 62.6199C266.766 62.725 267.641 63.4702 267.794 63.3269C267.869 63.2643 267.745 62.9705 267.366 62.6357C266.992 62.3023 266.334 61.9503 265.54 61.8783C264.745 61.8077 264.049 62.0374 263.636 62.3002C263.215 62.5644 263.056 62.8315 263.122 62.9071Z" fill="#263238"/>
<path d="M274.832 67.5605C274.751 68.1847 275.212 68.7672 275.862 68.8644C276.511 68.9609 277.104 68.5354 277.186 67.9111C277.267 67.2876 276.805 66.7037 276.157 66.6065C275.506 66.5086 274.913 66.9362 274.832 67.5605Z" fill="#263238"/>
<path d="M275.64 64.3291C275.772 64.4976 276.734 63.918 278.009 64.0419C279.285 64.147 280.159 64.8922 280.313 64.7489C280.387 64.6863 280.265 64.3932 279.883 64.0577C279.51 63.7243 278.853 63.3723 278.058 63.3003C277.263 63.2297 276.567 63.4594 276.155 63.7222C275.734 63.9864 275.574 64.2535 275.64 64.3291Z" fill="#263238"/>
<path d="M270.116 73.3543C270.129 73.2823 269.348 73.0699 268.079 72.7847C267.756 72.7207 267.454 72.6264 267.42 72.3988C267.366 72.1562 267.535 71.8178 267.729 71.4535C268.11 70.6946 268.508 69.8983 268.926 69.0638C270.598 65.6582 271.84 62.8459 271.703 62.7796C271.565 62.7134 270.099 65.4206 268.428 68.8262C268.023 69.6664 267.636 70.4678 267.269 71.2346C267.111 71.5931 266.859 71.9935 266.98 72.4975C267.044 72.7495 267.267 72.9489 267.47 73.0245C267.673 73.108 267.856 73.1289 268.016 73.1534C269.302 73.3442 270.104 73.4255 270.116 73.3543Z" fill="#263238"/>
<path d="M273.787 74.5912C273.581 74.5596 273.447 75.9441 272.169 76.8153C270.893 77.6894 269.431 77.3949 269.402 77.5872C269.375 77.6721 269.706 77.8874 270.328 77.963C270.937 78.0415 271.848 77.9299 272.63 77.3971C273.41 76.8621 273.797 76.0874 273.898 75.5236C274.005 74.9491 273.883 74.592 273.787 74.5912Z" fill="#263238"/>
<path d="M275.782 59.2985C275.875 59.6571 277.165 59.6131 278.644 59.935C280.131 60.2273 281.296 60.7796 281.524 60.4872C281.627 60.3468 281.447 60.0005 280.991 59.6182C280.539 59.2373 279.797 58.8456 278.908 58.6613C278.019 58.4784 277.183 58.5432 276.616 58.7131C276.046 58.8823 275.743 59.1286 275.782 59.2985Z" fill="#263238"/>
<path d="M263.939 59.2596C264.136 59.5707 265.044 59.3525 266.102 59.4382C267.163 59.4864 268.035 59.8169 268.27 59.5339C268.374 59.395 268.26 59.0919 267.895 58.7801C267.536 58.4705 266.913 58.1861 266.184 58.1393C265.456 58.0939 264.802 58.297 264.406 58.5591C264.005 58.8219 263.853 59.1084 263.939 59.2596Z" fill="#263238"/>
<path d="M262.879 54.9446C262.879 54.9446 265.559 49.9522 268.181 48.9758C271.354 47.7936 272.346 51.2482 275.315 50.7132C278.284 50.1782 281.314 49.0421 284.059 51.557C287.063 54.3096 285.385 55.8835 285.237 59.5858C284.638 74.597 286.966 79.0783 288.406 72.1166C288.564 71.3542 290.76 70.943 291.385 67.7167C292.195 63.5335 292.841 58.4215 292.182 55.3363C291.626 52.7357 290.351 50.855 287.95 48.6871C284.161 45.2657 278.568 44.6717 274.73 44.6947C270.891 44.7192 263.146 48.402 262.879 54.9446Z" fill="#263238"/>
<path d="M287.898 71.8409C288.071 70.5643 289.271 69.6571 290.536 69.899C292.07 70.1928 293.71 71.2346 293.306 74.4242C292.589 80.0827 287.055 78.1956 287.066 78.0321C287.074 77.9213 287.577 74.2061 287.898 71.8409Z" fill="#9F7362"/>
<path d="M288.567 76.0594C288.595 76.0442 288.657 76.1407 288.814 76.2386C288.967 76.3337 289.24 76.4201 289.549 76.3474C290.175 76.2041 290.799 75.3185 290.956 74.3018C291.036 73.7892 290.989 73.2845 290.858 72.8554C290.738 72.4198 290.507 72.0965 290.213 72.005C289.922 71.8978 289.687 72.0511 289.597 72.2016C289.501 72.3499 289.523 72.468 289.491 72.4738C289.473 72.486 289.382 72.3636 289.457 72.1354C289.494 72.0259 289.578 71.9006 289.724 71.8092C289.874 71.7156 290.081 71.6846 290.288 71.7343C290.721 71.82 291.062 72.2707 291.207 72.7423C291.375 73.2182 291.438 73.7863 291.349 74.363C291.168 75.4985 290.449 76.4921 289.601 76.6246C289.19 76.6778 288.873 76.5158 288.719 76.3603C288.561 76.1976 288.546 76.0673 288.567 76.0594Z" fill="#65463C"/>
<path d="M288.826 60.8336C288.041 61.267 287.213 61.7127 286.317 61.7163C285.42 61.7206 284.453 61.1144 284.386 60.2201C284.355 59.8184 284.496 59.3691 284.265 59.0393C283.989 58.6455 283.406 58.706 282.926 58.7117C281.259 58.7312 279.68 57.4042 279.411 55.759C278.931 56.3494 277.951 56.2292 277.353 55.7583C276.754 55.2874 276.408 54.5768 275.963 53.959C275.519 53.3413 274.867 52.7645 274.107 52.8005C273.681 52.8207 273.265 53.0331 272.847 52.9561C272.107 52.8193 271.827 51.9121 271.783 51.1618C271.74 50.4116 271.734 49.5397 271.141 49.0781C270.591 48.6505 269.813 48.7937 269.117 48.8305C268.422 48.8672 267.551 48.6224 267.438 47.9348C267.379 47.5741 267.566 47.2184 267.79 46.9289C268.805 45.6207 270.791 45.1851 272.26 45.9469C272.992 44.1238 274.885 42.83 276.849 42.8084C278.814 42.7868 280.733 44.0389 281.506 45.8461C282.808 44.8712 284.594 44.5789 286.14 45.0879C287.685 45.5969 288.947 46.8944 289.414 48.4525C290.829 48.2199 292.352 48.9025 293.121 50.1135C293.889 51.3245 293.857 52.9935 293.043 54.1743C294.008 54.8533 294.786 55.9498 294.696 57.127C294.606 58.3042 293.351 59.3662 292.247 58.9501C292.618 59.9084 292.129 61.1144 291.194 61.5413C290.259 61.9683 289.027 61.5507 288.545 60.6428" fill="#263238"/>
<path d="M271.681 47.5776C271.676 47.5776 271.674 47.6129 271.673 47.682C271.674 47.7511 271.668 47.8548 271.68 47.9887C271.707 48.2559 271.776 48.654 271.989 49.1213C272.203 49.5821 272.553 50.1243 273.12 50.5822C273.675 51.0437 274.459 51.4282 275.383 51.4649L275.298 51.3303C275.077 51.799 275.07 52.3858 275.265 52.9085C275.445 53.4377 275.764 53.9215 276.104 54.396C276.28 54.625 276.426 54.8885 276.678 55.1074C276.923 55.3176 277.227 55.4551 277.546 55.5264C278.178 55.6683 278.92 55.5387 279.435 55.044L279.228 54.9634C279.266 56.1053 279.801 57.2947 280.755 58.0795C281.258 58.5202 281.903 58.8219 282.562 58.8665C283.22 58.9219 283.848 58.7873 284.437 58.6368L284.291 58.5555C284.53 59.2899 284.941 59.9357 285.469 60.4339C285.986 60.93 286.706 61.2612 287.396 61.159C288.762 61.002 289.756 59.9717 290.034 58.9392L289.9 58.9867C290.531 59.4115 291.241 59.5138 291.823 59.4576C292.414 59.4065 292.892 59.197 293.241 58.9795C293.591 58.7571 293.808 58.5151 293.941 58.3459C294.065 58.1688 294.119 58.0695 294.112 58.0659C294.085 58.0399 293.883 58.4799 293.19 58.8975C292.846 59.0955 292.378 59.2841 291.812 59.3201C291.252 59.3619 290.58 59.2495 289.999 58.8442L289.899 58.7736L289.865 58.8917C289.593 59.8536 288.639 60.8119 287.373 60.9437C286.749 61.0294 286.116 60.7349 285.626 60.2647C285.134 59.7953 284.741 59.1732 284.521 58.4835L284.486 58.374L284.375 58.4021C283.795 58.5483 283.189 58.6735 282.581 58.6203C281.972 58.5756 281.393 58.3071 280.914 57.8895C280.012 57.1471 279.509 56.034 279.468 54.9526L279.458 54.6804L279.261 54.8719C278.826 55.296 278.162 55.4242 277.593 55.2975C277.307 55.2355 277.037 55.1146 276.823 54.9331C276.615 54.7582 276.461 54.4975 276.282 54.2664C275.941 53.7999 275.632 53.3333 275.458 52.8408C275.273 52.3527 275.277 51.8364 275.469 51.4109L275.528 51.2799L275.385 51.2755C274.514 51.2525 273.757 50.899 273.213 50.4648C272.658 50.0343 272.306 49.518 272.082 49.0767C271.65 48.168 271.723 47.5683 271.681 47.5776Z" fill="#455A64"/>
<path d="M246.346 72.0108L244.655 65.903C246.807 62.4096 248.051 58.2969 248.051 53.8934C248.051 41.2279 237.784 30.9607 225.118 30.9607C212.453 30.9607 202.185 41.2279 202.185 53.8934C202.185 66.5589 212.453 76.8261 225.118 76.8261C230.406 76.8261 235.273 75.0312 239.152 72.0237L239.144 72.0338L246.346 72.0108Z" fill="white"/>
<path d="M246.346 72.0108C246.346 72.0108 246.2 72.0195 245.896 72.026C245.575 72.031 245.12 72.0389 244.53 72.0483C243.294 72.0634 241.488 72.085 239.145 72.1131C239.101 72.1138 239.065 72.0785 239.065 72.0346C239.065 72.0166 239.072 71.9986 239.082 71.9849L239.09 71.9748L239.202 72.0864C236.9 73.8843 233.467 75.852 228.949 76.6303C227.826 76.8247 226.641 76.9342 225.413 76.9529C224.798 76.9659 224.174 76.9054 223.538 76.8838C222.9 76.8787 222.262 76.7772 221.613 76.6743C219.02 76.2883 216.318 75.4279 213.761 73.9836C211.206 72.5458 208.801 70.5283 206.844 67.9925C204.887 65.4631 203.383 62.4125 202.608 59.0674C200.969 52.4059 202.657 44.5047 207.634 38.7943C210.17 35.8992 213.337 33.624 216.81 32.3395C220.264 31.0162 223.937 30.5647 227.418 30.8981C230.904 31.2495 234.175 32.4079 236.963 34.0855C239.756 35.7639 242.068 37.962 243.807 40.3733C245.552 42.786 246.722 45.409 247.395 47.9707C247.769 49.2459 247.92 50.5275 248.074 51.7536C248.132 52.9899 248.223 54.1822 248.125 55.3256C247.827 59.9177 246.233 63.5213 244.719 65.9427L244.728 65.8829C245.256 67.8643 245.666 69.3994 245.948 70.4556C246.079 70.9582 246.181 71.3463 246.253 71.6235C246.319 71.8848 246.346 72.0108 246.346 72.0108C246.346 72.0108 246.298 71.8683 246.219 71.6012C246.138 71.3218 246.023 70.9308 245.875 70.4232C245.576 69.3835 245.142 67.8723 244.582 65.9225C244.576 65.9016 244.58 65.88 244.59 65.8627C246.067 63.4392 247.616 59.8551 247.884 55.3097C247.974 54.1779 247.877 52.9985 247.813 51.7767C247.654 50.5649 247.5 49.2999 247.124 48.042C246.449 45.5141 245.283 42.9307 243.554 40.5555C241.831 38.1823 239.545 36.0223 236.788 34.375C234.037 32.7283 230.815 31.5936 227.382 31.2531C223.953 30.9305 220.339 31.3798 216.942 32.6837C213.527 33.9495 210.412 36.1901 207.917 39.0377C203.022 44.6551 201.354 52.424 202.957 58.9853C203.715 62.2786 205.189 65.2853 207.113 67.7823C209.035 70.2857 211.4 72.2816 213.916 73.7079C216.433 75.1407 219.096 76.0003 221.656 76.3927C222.296 76.4979 222.926 76.6008 223.557 76.6087C224.185 76.6325 224.801 76.6959 225.409 76.6858C226.624 76.6736 227.796 76.5713 228.908 76.3856C233.381 75.6418 236.798 73.7201 239.104 71.959C239.139 71.9316 239.188 71.9381 239.216 71.9727C239.239 72.0015 239.237 72.0425 239.216 72.0706L239.208 72.0807L239.144 71.9525C241.465 71.9662 243.253 71.9763 244.477 71.9835C245.076 71.9892 245.538 71.9943 245.864 71.9972C246.177 72.0029 246.346 72.0108 246.346 72.0108Z" fill="#263238"/>
<path d="M223.367 53.2584C223.716 53.2339 224.018 53.329 224.309 53.4643C224.439 53.5248 224.592 53.5687 224.736 53.5687L225.118 53.5601V48.7202C225.118 48.3199 224.791 47.9952 224.388 47.9952H219.655V47.677C219.655 47.5286 219.693 47.3839 219.758 47.2507C219.928 46.9008 219.997 46.4947 219.924 46.0656C219.779 45.2146 219.068 44.5507 218.205 44.4564C217.017 44.3275 216.012 45.2484 216.012 46.4033C216.012 46.6841 216.072 46.9505 216.179 47.1917C216.235 47.3162 216.267 47.4502 216.267 47.587V47.9959H211.651C211.248 47.9959 210.921 48.3206 210.921 48.721V61.4815C210.921 61.8077 211.188 62.0726 211.516 62.0726H224.523C224.852 62.0726 225.118 61.8084 225.118 61.4815V56.8699H224.592C224.47 56.8699 224.35 56.8937 224.237 56.939C224.01 57.0305 223.762 57.0816 223.503 57.0816C222.388 57.0816 221.489 56.1607 221.534 55.0426C221.573 54.0576 222.377 53.3275 223.367 53.2584Z" fill="#E0E0E0"/>
<path d="M230.304 49.8038C230.279 49.4554 230.347 49.1256 230.484 48.834C230.545 48.7037 230.581 48.5633 230.581 48.4193V48.0499H225.828C225.425 48.0499 225.098 48.3768 225.098 48.78V53.5133H224.778C224.629 53.5133 224.483 53.4751 224.348 53.4103C223.996 53.2404 223.587 53.1706 223.156 53.244C222.3 53.3894 221.632 54.1001 221.538 54.9634C221.407 56.1514 222.335 57.1565 223.496 57.1565C223.778 57.1565 224.047 57.0967 224.289 56.9894C224.415 56.934 224.549 56.9016 224.687 56.9016H225.098V61.5175C225.098 61.9207 225.425 62.2476 225.828 62.2476H238.667C238.995 62.2476 239.262 61.9812 239.262 61.6529V48.6439C239.262 48.3156 238.995 48.0492 238.667 48.0492H234.027V48.5755C234.027 48.6972 234.051 48.8174 234.097 48.9305C234.189 49.1573 234.241 49.405 234.241 49.6642C234.241 50.7794 233.315 51.678 232.189 51.6334C231.197 51.5945 230.373 50.7931 230.304 49.8038Z" fill="white"/>
<path d="M140.466 309.865V338.046H225.397V309.865H140.466Z" fill="#E0E0E0"/>
<path opacity="0.3" d="M140.466 309.865V338.046H225.397V309.865H140.466Z" fill="black"/>
<path d="M225.397 253.611H197.215V281.75H169.249V309.932H219.236V309.841H225.397V253.611Z" fill="url(#paint3_radial_50_808)"/>
<path opacity="0.47" d="M225.397 253.611H197.215V281.75H169.249V309.932H219.236V309.841H225.397V253.611Z" fill="black"/>
<path d="M197.04 197.609H165.114V225.51H197.04V253.525H225.222V225.51V197.609H197.04Z" fill="white"/>
<path opacity="0.3" d="M197.04 197.609H165.114V225.51H197.04V253.525H225.222V225.51V197.609H197.04Z" fill="black"/>
<path d="M133.184 168.674H80.3153V225.415H133.184V168.674Z" fill="#E0E0E0"/>
<path opacity="0.3" d="M133.184 168.674H80.3153V225.415H133.184V168.674Z" fill="black"/>
<path d="M112.054 168.674H59.1848V225.415H112.054V168.674Z" fill="#E0E0E0"/>
<path d="M60.0185 309.865V282.19H31.837V309.865V338.046H60.0185H88.3116V309.865H60.0185Z" fill="#E0E0E0"/>
<path d="M116.134 253.783H87.7313V225.415H59.5498V253.783H31.2567V281.964H59.5498V309.865H87.7313V281.964H116.134V253.783Z" fill="url(#paint4_radial_50_808)"/>
<path d="M59.5497 168.674H31.3682V254.223H59.5497V168.674Z" fill="white"/>
<path d="M31.3683 168.674C31.3683 168.674 31.3762 168.824 31.3798 169.106C31.3827 169.397 31.3863 169.811 31.3913 170.353C31.3963 171.456 31.4043 173.07 31.4151 175.157C31.4273 179.344 31.4446 185.423 31.4662 193.041C31.4871 208.264 31.5166 229.627 31.5504 254.224L31.369 254.043C40.2653 254.04 49.7614 254.039 59.5447 254.037H59.5498L59.3626 254.224C59.3885 219.92 59.4115 189.171 59.4274 168.675L59.5505 168.798C50.7255 168.769 43.6968 168.746 38.8613 168.731C36.4457 168.718 34.5809 168.708 33.3072 168.701C32.6801 168.695 32.2013 168.691 31.8665 168.688C31.5403 168.682 31.3683 168.674 31.3683 168.674C31.3683 168.674 31.5238 168.666 31.8413 168.662C32.1711 168.659 32.6427 168.655 33.2604 168.649C34.5276 168.642 36.3838 168.632 38.7871 168.619C43.6399 168.603 50.6938 168.58 59.5505 168.552L59.6736 168.551V168.674C59.6887 189.17 59.7125 219.92 59.7384 254.223V254.411H59.5505H59.544C49.7599 254.408 40.2646 254.406 31.3683 254.405H31.1861V254.223C31.2199 229.576 31.2495 208.17 31.2703 192.915C31.2919 185.315 31.3092 179.25 31.3215 175.072C31.3315 173.002 31.3395 171.402 31.3452 170.307C31.3503 169.775 31.3539 169.368 31.3567 169.082C31.3603 168.808 31.3683 168.674 31.3683 168.674Z" fill="#263238"/>
<path d="M116.134 253.525V281.817H87.9523V338.046H116.134V309.754H144.426V253.525H116.134Z" fill="white"/>
<path d="M148.578 225.285H144.354H88.0193V253.531H144.354V281.644H172.536V225.285H148.578Z" fill="#E0E0E0"/>
<path d="M172.392 197.609H140.466V225.51H172.392V253.525H200.574V225.51V197.609H172.392Z" fill="white"/>
<path d="M200.574 253.611H172.392V281.75H144.426V309.932H194.412V309.841H200.574V253.611Z" fill="url(#paint5_radial_50_808)"/>
<path d="M115.98 309.865V338.046H201.155V309.865H115.98Z" fill="#E0E0E0"/>
<path d="M111.992 168.674C111.998 168.674 112.005 168.77 112.011 168.957C112.015 169.161 112.022 169.435 112.03 169.784C112.038 170.533 112.05 171.6 112.065 172.966C112.08 175.75 112.1 179.742 112.125 184.668C112.139 194.566 112.158 208.207 112.18 223.275C112.18 223.964 112.18 224.65 112.18 225.286V225.474H111.992C97.3742 225.451 84.2342 225.431 74.7252 225.417C69.9948 225.392 66.1687 225.372 63.5026 225.358C62.1965 225.343 61.1748 225.331 60.4584 225.323C60.1258 225.315 59.8637 225.31 59.6678 225.305C59.49 225.299 59.3986 225.293 59.3986 225.286C59.3986 225.28 59.49 225.274 59.6678 225.268C59.8637 225.263 60.1258 225.257 60.4584 225.25C61.1748 225.242 62.1958 225.23 63.5026 225.215C66.1687 225.202 69.9948 225.181 74.7252 225.156C84.235 225.142 97.375 225.122 111.992 225.099L111.805 225.286C111.805 224.65 111.805 223.965 111.805 223.276C111.827 208.209 111.846 194.567 111.86 184.668C111.885 179.743 111.905 175.75 111.92 172.966C111.935 171.601 111.946 170.533 111.955 169.785C111.963 169.436 111.969 169.162 111.974 168.957C111.979 168.769 111.985 168.674 111.992 168.674Z" fill="#263238"/>
<path d="M111.992 225.227C111.992 225.227 112.366 225.211 113.093 225.203C113.828 225.197 114.903 225.19 116.305 225.179C119.129 225.169 123.26 225.155 128.525 225.135C139.079 225.119 154.175 225.096 172.392 225.068H172.55V225.227C172.558 241.648 172.568 260.978 172.578 281.75V281.936H172.392C168.558 281.936 164.482 281.937 160.361 281.937C154.938 281.936 149.594 281.936 144.354 281.935H144.168V281.75C144.171 271.948 144.174 262.499 144.178 253.531L144.354 253.708C121.728 253.684 102.147 253.663 87.7313 253.648H87.6147V253.532C87.6377 244.654 87.6557 237.628 87.6687 232.81C87.6816 230.412 87.6917 228.567 87.6989 227.309C87.7061 226.692 87.7112 226.221 87.7148 225.893C87.7198 225.576 87.7313 225.414 87.7313 225.414C87.7313 225.414 87.7421 225.576 87.7479 225.893C87.7515 226.22 87.7565 226.691 87.7637 227.309C87.7709 228.566 87.781 230.412 87.794 232.81C87.8062 237.627 87.8242 244.653 87.8472 253.532L87.7313 253.416C102.147 253.401 121.728 253.38 144.354 253.356H144.531V253.533C144.534 262.5 144.537 271.95 144.541 281.751L144.355 281.565C149.594 281.565 154.939 281.565 160.362 281.564C164.483 281.564 168.559 281.565 172.393 281.565L172.206 281.751C172.216 260.979 172.226 241.649 172.234 225.229L172.393 225.387C154.176 225.36 139.08 225.337 128.526 225.32C123.26 225.302 119.13 225.287 116.305 225.277C114.904 225.267 113.829 225.259 113.093 225.253C112.366 225.244 111.992 225.227 111.992 225.227Z" fill="#263238"/>
<path d="M225.118 253.626C225.118 253.729 213.303 253.813 198.732 253.813C184.156 253.813 172.344 253.729 172.344 253.626C172.344 253.523 184.156 253.438 198.732 253.438C213.303 253.438 225.118 253.522 225.118 253.626Z" fill="#263238"/>
<path d="M226.246 309.845C226.246 309.948 201.669 310.032 171.358 310.032C141.037 310.032 116.464 309.948 116.464 309.845C116.464 309.742 141.037 309.658 171.358 309.658C201.669 309.657 226.246 309.741 226.246 309.845Z" fill="#263238"/>
<path d="M144.426 282.694C144.529 282.694 144.613 288.696 144.613 296.099C144.613 303.504 144.529 309.504 144.426 309.504C144.323 309.504 144.238 303.503 144.238 296.099C144.238 288.696 144.323 282.694 144.426 282.694Z" fill="#263238"/>
<path d="M115.98 338.066C115.877 338.066 115.793 331.748 115.793 323.956C115.793 316.161 115.878 309.845 115.98 309.845C116.083 309.845 116.168 316.161 116.168 323.956C116.168 331.748 116.084 338.066 115.98 338.066Z" fill="#263238"/>
<path d="M116.134 253.783C116.138 253.783 116.142 253.827 116.147 253.913C116.15 254.015 116.154 254.141 116.16 254.3C116.166 254.66 116.174 255.162 116.184 255.807C116.195 257.147 116.21 259.078 116.23 261.526C116.246 266.471 116.269 273.501 116.297 281.925L116.298 282.087H116.135C108.009 282.095 98.4305 282.103 88.213 282.113C88.1474 282.113 88.0812 282.113 88.0207 282.113L88.2079 281.925C88.1863 297.36 88.1669 311.321 88.1525 321.447C88.1273 326.486 88.1071 330.57 88.0927 333.416C88.0776 334.813 88.0661 335.905 88.0574 336.67C88.0495 337.027 88.043 337.307 88.0387 337.516C88.0322 337.707 88.0258 337.804 88.0193 337.804C88.0128 337.804 88.0063 337.706 87.9998 337.516C87.9955 337.307 87.989 337.027 87.9811 336.67C87.9732 335.906 87.961 334.814 87.9458 333.416C87.9314 330.57 87.9113 326.486 87.8861 321.447C87.8717 311.321 87.8522 297.36 87.8314 281.925V281.738H88.0193C88.0798 281.738 88.1453 281.738 88.2115 281.738C98.429 281.748 108.007 281.756 116.134 281.763L115.972 281.925C116 273.501 116.023 266.471 116.04 261.526C116.059 259.078 116.074 257.147 116.084 255.807C116.095 255.162 116.103 254.66 116.109 254.3C116.114 254.141 116.118 254.015 116.122 253.913C116.125 253.827 116.13 253.783 116.134 253.783Z" fill="#263238"/>
<path d="M87.7313 309.865C87.7313 309.87 87.6852 309.875 87.5952 309.88C87.4873 309.884 87.3562 309.889 87.1949 309.895C86.8169 309.902 86.3 309.912 85.6412 309.923C84.2573 309.935 82.2831 309.953 79.8092 309.974C74.7944 309.991 67.7578 310.015 59.5505 310.042L59.3741 310.043V309.865C59.3705 305.533 59.3669 300.797 59.3633 295.861C59.3669 290.965 59.3705 286.265 59.3741 281.964L59.5512 282.141C51.313 282.114 44.2484 282.091 39.2134 282.074C36.7287 282.052 34.7472 282.035 33.3569 282.023C32.6952 282.01 32.1761 282.001 31.7967 281.994C31.6347 281.988 31.5022 281.983 31.3942 281.979C31.3042 281.974 31.2581 281.969 31.2581 281.963C31.2581 281.958 31.3042 281.953 31.3942 281.948C31.5022 281.945 31.634 281.94 31.7967 281.933C32.1761 281.926 32.696 281.917 33.3569 281.905C34.7465 281.893 36.7287 281.876 39.2134 281.854C44.2484 281.837 51.313 281.814 59.5512 281.786L59.7284 281.786V281.963C59.732 286.263 59.7348 290.963 59.7392 295.86C59.7356 300.795 59.732 305.532 59.7284 309.864L59.552 309.688C67.7592 309.715 74.7965 309.738 79.8106 309.755C82.2852 309.777 84.2588 309.794 85.6426 309.807C86.3014 309.819 86.8191 309.828 87.1964 309.835C87.3577 309.84 87.4894 309.845 87.5967 309.85C87.6852 309.854 87.7313 309.86 87.7313 309.865Z" fill="#263238"/>
<path d="M225.222 197.609C225.222 197.615 225.124 197.622 224.932 197.628C224.723 197.633 224.441 197.639 224.082 197.647C223.314 197.656 222.216 197.667 220.812 197.682C217.951 197.697 213.847 197.717 208.784 197.742C198.611 197.757 184.59 197.776 169.104 197.797C158.542 197.787 148.664 197.778 140.334 197.77L140.494 197.61C140.466 205.814 140.443 212.646 140.427 217.45C140.409 219.827 140.394 221.699 140.383 223.001C140.373 223.626 140.365 224.113 140.359 224.463C140.354 224.617 140.35 224.739 140.347 224.837C140.342 224.921 140.338 224.964 140.334 224.964C140.334 224.964 140.317 224.793 140.309 224.463C140.303 224.113 140.295 223.626 140.285 223.001C140.274 221.7 140.26 219.827 140.24 217.45C140.224 212.646 140.201 205.813 140.173 197.61L140.172 197.449H140.334C148.664 197.441 158.541 197.433 169.104 197.422C184.59 197.444 198.611 197.464 208.784 197.477C213.847 197.502 217.951 197.523 220.812 197.537C222.216 197.552 223.314 197.564 224.082 197.572C224.441 197.58 224.723 197.587 224.932 197.591C225.124 197.596 225.222 197.602 225.222 197.609Z" fill="#263238"/>
<defs>
<radialGradient id="paint0_radial_50_808" cx="0" cy="0" r="1" gradientUnits="userSpaceOnUse" gradientTransform="translate(217.007 157.683) rotate(-115.118) scale(174.914 346.177)">
<stop offset="0.0671491" stop-color="#D300FF"/>
<stop offset="0.986804" stop-color="#4E0093"/>
</radialGradient>
<radialGradient id="paint1_radial_50_808" cx="0" cy="0" r="1" gradientUnits="userSpaceOnUse" gradientTransform="translate(251.459 177.06) rotate(-56.9265) scale(101.428 215.206)">
<stop offset="0.0671491" stop-color="#D300FF"/>
<stop offset="1" stop-color="#4E0093"/>
</radialGradient>
<radialGradient id="paint2_radial_50_808" cx="0" cy="0" r="1" gradientUnits="userSpaceOnUse" gradientTransform="translate(276.446 160.056) rotate(-56.6951) scale(70.2366 149.553)">
<stop offset="0.0671491" stop-color="#D300FF"/>
<stop offset="1" stop-color="#4E0093"/>
</radialGradient>
<radialGradient id="paint3_radial_50_808" cx="0" cy="0" r="1" gradientUnits="userSpaceOnUse" gradientTransform="translate(183.831 303.606) rotate(-50.26) scale(65.0166 148.298)">
<stop offset="0.0671491" stop-color="#D300FF"/>
<stop offset="1" stop-color="#4E0093"/>
</radialGradient>
<radialGradient id="paint4_radial_50_808" cx="0" cy="0" r="1" gradientUnits="userSpaceOnUse" gradientTransform="translate(53.3004 300.38) rotate(-50.0312) scale(97.815 223.433)">
<stop offset="0.0671491" stop-color="#D300FF"/>
<stop offset="1" stop-color="#4E0093"/>
</radialGradient>
<radialGradient id="paint5_radial_50_808" cx="0" cy="0" r="1" gradientUnits="userSpaceOnUse" gradientTransform="translate(159.008 303.606) rotate(-50.2596) scale(65.0169 148.299)">
<stop offset="0.0671491" stop-color="#D300FF"/>
<stop offset="1" stop-color="#4E0093"/>
</radialGradient>
</defs>
</svg>
