<svg width="387" height="358" viewBox="0 0 387 358" fill="none" xmlns="http://www.w3.org/2000/svg">
<path d="M377.674 329.348H347.289V329.588H377.674V329.348Z" fill="#EBEBEB"/>
<path d="M268.8 331.95H260.826V332.19H268.8V331.95Z" fill="#EBEBEB"/>
<path d="M346.371 320.446H328.765V320.685H346.371V320.446Z" fill="#EBEBEB"/>
<path d="M52.6981 322.056H13.0743V322.296H52.6981V322.056Z" fill="#EBEBEB"/>
<path d="M66.676 322.056H60.8663V322.296H66.676V322.056Z" fill="#EBEBEB"/>
<path d="M171.492 326.105H85.5572V326.345H171.492V326.105Z" fill="#EBEBEB"/>
<path d="M182.379 271.162H5.23633C2.34937 271.162 0 268.707 0 265.69V5.47217C0 2.45519 2.34937 0 5.23633 0H182.379C185.265 0 187.614 2.45519 187.614 5.47217V265.69C187.614 268.707 185.265 271.162 182.379 271.162ZM5.23633 0.240629C2.47505 0.240629 0.229341 2.58749 0.229341 5.47313V265.691C0.229341 268.576 2.47505 270.923 5.23633 270.923H182.379C185.139 270.923 187.385 268.576 187.385 265.691V5.47217C187.385 2.58749 185.139 0.239671 182.379 0.239671L5.23633 0.240629Z" fill="#EBEBEB"/>
<path d="M380.801 271.162H203.66C200.773 271.162 198.424 268.707 198.424 265.69V5.47217C198.424 2.45519 200.774 0 203.66 0H380.801C383.689 0 386.038 2.45519 386.038 5.47217V265.69C386.039 268.707 383.689 271.162 380.801 271.162ZM203.66 0.240629C200.9 0.240629 198.654 2.58749 198.654 5.47313V265.691C198.654 268.576 200.9 270.923 203.66 270.923H380.801C383.563 270.923 385.808 268.576 385.808 265.691V5.47217C385.808 2.58749 383.563 0.239671 380.801 0.239671L203.66 0.240629Z" fill="#EBEBEB"/>
<path d="M54.8704 234.38H21.0233V313.917H54.8704V234.38Z" fill="#EBEBEB"/>
<path d="M105.094 196.01H71.2472V313.917H105.094V196.01Z" fill="#EBEBEB"/>
<path d="M155.317 167.232H121.47V313.917H155.317V167.232Z" fill="#EBEBEB"/>
<path d="M205.541 234.38H171.694V313.917H205.541V234.38Z" fill="#EBEBEB"/>
<path d="M255.765 205.602H221.918V313.917H255.765V205.602Z" fill="#EBEBEB"/>
<path d="M305.988 157.639H272.141V313.917H305.988V157.639Z" fill="#EBEBEB"/>
<path d="M356.212 71.3059H322.365V313.917H356.212V71.3059Z" fill="#EBEBEB"/>
<path d="M37.9468 210.238L87.414 171.569L138.395 143.366L188.618 210.238L237.841 180.618L289.563 133.546L341.773 45.9019" stroke="#E0E0E0" stroke-width="5" stroke-miterlimit="10"/>
<path d="M43.9987 210.239C43.9987 213.731 41.2897 216.563 37.9468 216.563C34.6049 216.563 31.895 213.732 31.895 210.239C31.895 206.746 34.6039 203.914 37.9468 203.914C41.2897 203.915 43.9987 206.746 43.9987 210.239Z" fill="#FAFAFA" stroke="#E0E0E0" stroke-width="5" stroke-miterlimit="10"/>
<path d="M87.4139 177.891C90.7563 177.891 93.4658 175.059 93.4658 171.566C93.4658 168.073 90.7563 165.242 87.4139 165.242C84.0716 165.242 81.3621 168.073 81.3621 171.566C81.3621 175.059 84.0716 177.891 87.4139 177.891Z" fill="#FAFAFA" stroke="#E0E0E0" stroke-width="5" stroke-miterlimit="10"/>
<path d="M144.446 143.397C144.446 146.889 141.736 149.721 138.394 149.721C135.052 149.721 132.342 146.889 132.342 143.397C132.342 139.904 135.051 137.073 138.394 137.073C141.737 137.073 144.446 139.904 144.446 143.397Z" fill="#FAFAFA" stroke="#E0E0E0" stroke-width="5" stroke-miterlimit="10"/>
<path d="M194.67 209.126C194.67 212.619 191.961 215.451 188.618 215.451C185.275 215.451 182.566 212.62 182.566 209.126C182.566 205.633 185.276 202.802 188.618 202.802C191.96 202.802 194.67 205.633 194.67 209.126Z" fill="#FAFAFA" stroke="#E0E0E0" stroke-width="5" stroke-miterlimit="10"/>
<path d="M238.842 186.324C242.184 186.324 244.894 183.493 244.894 180C244.894 176.507 242.184 173.675 238.842 173.675C235.499 173.675 232.79 176.507 232.79 180C232.79 183.493 235.499 186.324 238.842 186.324Z" fill="#FAFAFA" stroke="#E0E0E0" stroke-width="5" stroke-miterlimit="10"/>
<path d="M289.507 139.22C292.849 139.22 295.559 136.388 295.559 132.896C295.559 129.403 292.849 126.571 289.507 126.571C286.165 126.571 283.455 129.403 283.455 132.896C283.455 136.388 286.165 139.22 289.507 139.22Z" fill="#FAFAFA" stroke="#E0E0E0" stroke-width="5" stroke-miterlimit="10"/>
<path d="M340.684 53.8464C344.026 53.8464 346.736 51.0148 346.736 47.5219C346.736 44.0291 344.026 41.1975 340.684 41.1975C337.342 41.1975 334.632 44.0291 334.632 47.5219C334.632 51.0148 337.342 53.8464 340.684 53.8464Z" fill="#FAFAFA" stroke="#E0E0E0" stroke-width="5" stroke-miterlimit="10"/>
<path d="M194.292 357.214C292.525 357.214 372.159 352.354 372.159 346.359C372.159 340.364 292.525 335.504 194.292 335.504C96.0584 335.504 16.4245 340.364 16.4245 346.359C16.4245 352.354 96.0584 357.214 194.292 357.214Z" fill="#F5F5F5"/>
<path d="M332.418 278.882C332.418 278.882 326.346 273.591 321.138 278.882C315.93 284.173 314.925 316.952 314.925 316.952" stroke="#4E0093" stroke-width="0.9446" stroke-miterlimit="10"/>
<path d="M314.495 323.282C314.495 323.282 318.075 284.814 304.597 268.647" stroke="#4E0093" stroke-width="0.9446" stroke-miterlimit="10"/>
<path d="M315.778 319.227C315.778 319.227 313.021 275.435 323.129 265.718" stroke="#4E0093" stroke-width="0.9446" stroke-miterlimit="10"/>
<path d="M314.495 319.227C314.495 319.227 314.26 290.29 306.748 285.79C299.236 281.291 295.407 295.964 295.407 295.964" stroke="#4E0093" stroke-width="0.9446" stroke-miterlimit="10"/>
<path d="M317.462 319.227C317.462 319.227 316.236 297.012 322.057 289.072C327.877 281.132 334.004 292.473 334.004 292.473" stroke="#4E0093" stroke-width="0.9446" stroke-miterlimit="10"/>
<path d="M315.434 322.203C315.434 322.203 319.198 270.248 312.969 261.445" stroke="#4E0093" stroke-width="0.9446" stroke-miterlimit="10"/>
<g opacity="0.3">
<path d="M300.315 290.007C300.315 290.007 304.061 291.449 302.947 294.856C301.834 298.264 289.99 303.87 289.99 303.87C289.99 303.87 285.029 299.119 289.585 291.391C294.14 283.664 300.215 287.569 300.315 290.007Z" fill="#407BFF"/>
<path d="M300.315 290.007C300.315 290.007 304.061 291.449 302.947 294.856C301.834 298.264 289.99 303.87 289.99 303.87C289.99 303.87 285.029 299.119 289.585 291.391C294.14 283.664 300.215 287.569 300.315 290.007Z" fill="url(#paint0_radial_50_1688)"/>
</g>
<g opacity="0.3">
<path d="M316.599 283.521C316.599 283.521 312.61 283.347 312.383 286.939C312.157 290.531 321.024 300.47 321.024 300.47C321.024 300.47 327.352 298.079 325.993 289.115C324.634 280.15 317.589 281.311 316.599 283.521Z" fill="#407BFF"/>
<path d="M316.599 283.521C316.599 283.521 312.61 283.347 312.383 286.939C312.157 290.531 321.024 300.47 321.024 300.47C321.024 300.47 327.352 298.079 325.993 289.115C324.634 280.15 317.589 281.311 316.599 283.521Z" fill="url(#paint1_radial_50_1688)"/>
</g>
<g opacity="0.3">
<path d="M319.975 266.325C319.975 266.325 317.316 266.027 317.531 264.334C317.745 262.641 327.868 258.285 333.841 265.329C333.841 265.329 330.016 272.194 324.488 272.284C318.959 272.375 319.975 266.325 319.975 266.325Z" fill="url(#paint2_radial_50_1688)"/>
<path opacity="0.4" d="M319.975 266.325C319.975 266.325 317.316 266.027 317.531 264.334C317.745 262.641 327.868 258.285 333.841 265.329C333.841 265.329 330.016 272.194 324.488 272.284C318.959 272.375 319.975 266.325 319.975 266.325Z" fill="url(#paint3_radial_50_1688)"/>
</g>
<g opacity="0.3">
<path d="M315.02 262.214C315.02 262.214 317.428 263.431 318.103 261.876C318.778 260.321 312.392 251.028 303.757 253.706C303.757 253.706 303.529 261.647 308.175 264.778C312.821 267.91 315.02 262.214 315.02 262.214Z" fill="#407BFF"/>
<path d="M315.02 262.214C315.02 262.214 317.428 263.431 318.103 261.876C318.778 260.321 312.392 251.028 303.757 253.706C303.757 253.706 303.529 261.647 308.175 264.778C312.821 267.91 315.02 262.214 315.02 262.214Z" fill="url(#paint4_radial_50_1688)"/>
</g>
<g opacity="0.3">
<path d="M327.611 288.637C327.611 288.637 325.775 287.088 327.756 286.332C329.736 285.576 339.455 285.791 339.556 295.852C339.556 295.852 328.237 297.817 326.836 293.985C325.436 290.153 327.611 288.637 327.611 288.637Z" fill="#407BFF"/>
<path d="M327.611 288.637C327.611 288.637 325.775 287.088 327.756 286.332C329.736 285.576 339.455 285.791 339.556 295.852C339.556 295.852 328.237 297.817 326.836 293.985C325.436 290.153 327.611 288.637 327.611 288.637Z" fill="url(#paint5_radial_50_1688)"/>
</g>
<g opacity="0.3">
<path d="M304.53 266.073C304.53 266.073 306.365 264.525 304.385 263.768C302.404 263.013 292.686 263.227 292.585 273.287C292.585 273.287 303.903 275.253 305.305 271.42C306.705 267.59 304.53 266.073 304.53 266.073Z" fill="#407BFF"/>
<path d="M304.53 266.073C304.53 266.073 306.365 264.525 304.385 263.768C302.404 263.013 292.686 263.227 292.585 273.287C292.585 273.287 303.903 275.253 305.305 271.42C306.705 267.59 304.53 266.073 304.53 266.073Z" fill="url(#paint6_radial_50_1688)"/>
</g>
<g opacity="0.3">
<path d="M310.513 274.177C310.513 274.177 310.674 272.294 309.22 273.032C307.766 273.77 302.7 279.482 307.952 284.902C307.952 284.902 315.021 279.431 313.747 276.582C312.472 273.732 310.513 274.177 310.513 274.177Z" fill="#407BFF"/>
<path d="M310.513 274.177C310.513 274.177 310.674 272.294 309.22 273.032C307.766 273.77 302.7 279.482 307.952 284.902C307.952 284.902 315.021 279.431 313.747 276.582C312.472 273.732 310.513 274.177 310.513 274.177Z" fill="url(#paint7_radial_50_1688)"/>
</g>
<g opacity="0.3">
<path d="M329.251 276.86C329.251 276.86 328.154 275.358 329.761 275.172C331.367 274.986 338.569 276.994 336.892 284.506C336.892 284.506 328.119 283.816 327.744 280.696C327.367 277.575 329.251 276.86 329.251 276.86Z" fill="url(#paint8_radial_50_1688)"/>
<path opacity="0.4" d="M329.251 276.86C329.251 276.86 328.154 275.358 329.761 275.172C331.367 274.986 338.569 276.994 336.892 284.506C336.892 284.506 328.119 283.816 327.744 280.696C327.367 277.575 329.251 276.86 329.251 276.86Z" fill="url(#paint9_radial_50_1688)"/>
</g>
<path d="M300.969 347.114H329.33L333.099 318.294H297.199L300.969 347.114Z" fill="#263238"/>
<path opacity="0.2" d="M300.969 347.114H329.33L333.099 318.294H297.199L300.969 347.114Z" fill="white"/>
<path d="M336.654 315.958V318.696C336.654 320.528 335.233 322.014 333.479 322.014H296.464C294.711 322.014 293.289 320.529 293.289 318.696V315.958H336.654Z" fill="#263238"/>
<path d="M333.756 107.591H326.28C325.775 126.496 319.821 227.024 251.001 283.433C189.84 333.553 125.853 339.334 88.2048 339.334C81.6089 339.334 75.8295 339.161 71.0041 339.008C67.72 338.912 64.8761 338.826 62.702 338.826V300.478C65.4174 300.478 68.5089 300.574 72.0866 300.68C102.873 301.619 166.933 303.594 228.36 253.254C282.787 208.646 288.869 124.378 289.548 107.591H282.191L307.978 71.1324L333.756 107.591Z" fill="url(#paint10_radial_50_1688)"/>
<path opacity="0.2" d="M333.756 107.591H326.28C325.775 126.496 319.821 227.024 251.001 283.433C189.84 333.553 125.853 339.334 88.2048 339.334C81.6089 339.334 75.8295 339.161 71.0041 339.008C67.72 338.912 64.8761 338.826 62.702 338.826V324.714C145.705 323.746 201.472 306.278 246.093 266.253C307.364 211.282 310.987 108.473 310.987 108.473L324.179 104.638L307.978 71.1324L333.756 107.591Z" fill="black"/>
<path d="M289.507 108.475H326.204" stroke="#D300FF" stroke-width="3" stroke-miterlimit="10" stroke-linecap="round" stroke-linejoin="round"/>
<path opacity="0.4" d="M289.507 108.475H326.204" stroke="white" stroke-width="3" stroke-miterlimit="10" stroke-linecap="round" stroke-linejoin="round"/>
<path d="M90.1771 79.2052H63.823C59.3407 79.2052 55.7079 83.0016 55.7079 87.6857V111.655C55.7079 116.338 59.3416 120.135 63.823 120.135H71.5178L71.4931 129.622L76.9761 120.135H90.178C94.6593 120.135 98.293 116.339 98.293 111.655V87.6857C98.2921 83.0026 94.6584 79.2052 90.1771 79.2052Z" fill="url(#paint11_radial_50_1688)"/>
<path opacity="0.7" d="M90.1771 79.2052H63.823C59.3407 79.2052 55.7079 83.0016 55.7079 87.6857V111.655C55.7079 116.338 59.3416 120.135 63.823 120.135H71.5178L71.4931 129.622L76.9761 120.135H90.178C94.6593 120.135 98.293 116.339 98.293 111.655V87.6857C98.2921 83.0026 94.6584 79.2052 90.1771 79.2052Z" fill="white"/>
<path d="M89.7264 102.721C91.3865 95.3747 87.0331 88.0126 80.0029 86.2778C72.9727 84.543 65.9279 89.0924 64.2679 96.4392C62.6079 103.786 66.9612 111.148 73.9914 112.883C81.0216 114.618 88.0664 110.068 89.7264 102.721Z" fill="url(#paint12_radial_50_1688)"/>
<path d="M75.6267 105.673C75.2735 105.673 74.9387 105.511 74.7102 105.229L69.5785 98.91C69.1492 98.3808 69.2115 97.589 69.717 97.1393C70.2225 96.6916 70.9811 96.7549 71.4114 97.2851L75.6267 102.475L82.5877 93.9048C83.0179 93.3746 83.7766 93.3113 84.282 93.76C84.7884 94.2087 84.8508 95.0015 84.4206 95.5307L76.5431 105.231C76.3147 105.511 75.9799 105.673 75.6267 105.673Z" fill="white"/>
<path d="M120.117 131.921L119.364 133.562C119.364 133.562 115.672 136.968 117.206 139.213L120.195 140.823L124.18 138.527C124.795 138.173 125.224 137.55 125.351 136.829L125.884 133.796C126.105 132.541 125.363 131.319 124.182 130.992L122.822 130.617C121.738 130.317 120.602 130.865 120.117 131.921Z" fill="#E4897B"/>
<path d="M115.833 140.74L116.672 138.27L120.831 140.499L119.856 142.764L115.833 140.74Z" fill="#407BFF"/>
<path opacity="0.7" d="M115.833 140.74L116.672 138.27L120.831 140.499L119.856 142.764L115.833 140.74Z" fill="white"/>
<path d="M120.478 142.132C118.927 146.255 117.221 150.262 115.331 154.221C114.377 156.196 113.405 158.181 112.313 160.136C112.047 160.625 111.763 161.114 111.469 161.613C111.185 162.102 110.9 162.6 110.561 163.099L110.075 163.856L109.506 164.642L109.222 165.035C109.093 165.198 108.919 165.38 108.763 165.553C108.442 165.927 108.148 166.157 107.827 166.435C106.607 167.451 105.479 168.074 104.369 168.63C103.259 169.177 102.176 169.627 101.103 170.02C98.9562 170.816 96.8279 171.42 94.718 171.947C93.0667 172.36 91.4338 172.714 89.7918 173.031C87.957 173.385 86.1131 173.683 84.2417 173.922C83.4803 174.028 82.7189 174.124 81.9483 174.21L81.0126 165.419C84.9389 164.872 89.012 164.201 92.9016 163.377C94.8464 162.974 96.7637 162.495 98.5801 161.958C99.4883 161.68 100.36 161.373 101.158 161.038C101.947 160.721 102.699 160.338 103.13 160.031C103.222 159.964 103.35 159.887 103.378 159.858C103.405 159.83 103.424 159.83 103.47 159.791L103.671 159.552L104.084 159.063L104.515 158.497C104.809 158.123 105.112 157.73 105.405 157.318C105.699 156.915 105.992 156.503 106.286 156.072C107.451 154.365 108.625 152.611 109.772 150.828C112.084 147.271 115.973 139.831 115.973 139.831L120.478 142.132Z" fill="#263238"/>
<path opacity="0.3" d="M89.7917 173.031C87.957 173.385 86.1131 173.682 84.2417 173.922L83.0216 168.947C83.0216 168.947 86.425 169.694 89.7917 173.031Z" fill="black"/>
<path d="M53.1879 181.848C56.7271 187.21 59.2811 192.157 61.8873 197.716C63.7973 201.795 65.4577 205.767 66.8842 209.41C70.2372 217.963 72.3049 224.694 73.3021 226.861C77.1871 225.02 92.2741 217.867 100.811 213.813C93.5887 179.113 80.3768 165.67 80.3768 165.67C80.3768 165.67 77.0358 166.485 73.3792 167.97C72.8994 168.162 72.4178 168.371 71.9316 168.591C68.8033 170.005 63.9807 172.903 60.7333 174.972C60.0553 175.405 59.3783 175.863 58.7261 176.319C55.4291 178.633 53.1879 181.848 53.1879 181.848Z" fill="#D300FF"/>
<path opacity="0.7" d="M53.1879 181.848C56.7271 187.21 59.2811 192.157 61.8873 197.716C63.7973 201.795 65.4577 205.767 66.8842 209.41C70.2372 217.963 72.3049 224.694 73.3021 226.861C77.1871 225.02 92.2741 217.867 100.811 213.813C93.5887 179.113 80.3768 165.67 80.3768 165.67C80.3768 165.67 77.0358 166.485 73.3792 167.97C72.8994 168.162 72.4178 168.371 71.9316 168.591C68.8033 170.005 63.9807 172.903 60.7333 174.972C60.0553 175.405 59.3783 175.863 58.7261 176.319C55.4291 178.633 53.1879 181.848 53.1879 181.848Z" fill="white"/>
<path d="M54.253 341.719L59.5462 343.568L65.1467 331.284L59.8544 329.435L54.253 341.719Z" fill="#E4897B"/>
<path d="M148.701 343.53L154.017 341.753L151.589 328.385L146.273 330.161L148.701 343.53Z" fill="#E4897B"/>
<path d="M93.5099 209.672C93.5099 209.672 94.3786 269.294 92.4503 282.824C90.522 296.354 64.6945 337.96 64.6945 337.96L55.3548 333.06C55.3548 333.06 75.9872 288.472 76.5551 282.68C77.1229 276.89 71.7582 229.497 71.7582 229.497L93.5099 209.672Z" fill="#263238"/>
<path opacity="0.1" d="M71.7545 229.494C71.7545 229.494 71.9554 231.279 72.2802 234.203C72.7113 238.139 73.3654 244.129 74.025 250.602C75.4102 264.045 76.8661 279.523 76.5579 282.679C75.9918 288.47 55.3548 333.062 55.3548 333.062L64.6954 337.955C64.6954 337.955 90.5183 296.353 92.4457 282.825C94.3795 269.289 93.5071 209.674 93.5071 209.674L71.7545 229.494Z" fill="white"/>
<path d="M97.0756 207.052C97.0756 207.052 123.055 244.311 131.547 258.943C140.847 274.966 154.208 332.138 154.208 332.138L145.403 337.561C145.403 337.561 130.077 285.762 119.887 270.489C108.491 253.41 79.942 220.365 79.942 220.365L97.0756 207.052Z" fill="#263238"/>
<g opacity="0.1">
<path d="M97.0756 207.052C97.0756 207.052 123.055 244.311 131.547 258.943C140.847 274.966 154.208 332.138 154.208 332.138L145.403 337.561C145.403 337.561 130.077 285.762 119.887 270.489C108.491 253.41 79.942 220.365 79.942 220.365L97.0756 207.052Z" fill="white"/>
</g>
<path d="M154.565 340.358L147.761 340.374C147.533 340.375 147.334 340.541 147.283 340.774L146.142 345.96C146.024 346.498 146.424 347.006 146.951 346.995C149.14 346.951 150.739 346.813 153.496 346.807C155.193 346.803 160.307 346.974 162.649 346.969C164.94 346.963 165.316 344.541 164.358 344.325C160.066 343.352 156.835 342.004 155.468 340.714C155.222 340.481 154.899 340.357 154.565 340.358Z" fill="#263238"/>
<path d="M73.6168 176.434C75.1846 178.261 79.4035 182.829 82.5372 188.018C82.6895 189.331 83.5674 192.192 83.6133 193.561C82.5042 192.709 80.3567 190.865 79.165 190.055C76.5817 184.858 74.3855 179.381 72.5444 176.981L73.6168 176.434Z" fill="#4E0093"/>
<path d="M74.2754 178.186L74.0947 175.066L71.894 175.08L70.8839 176.61L74.2754 178.186Z" fill="#407BFF"/>
<path d="M71.8114 175.121C67.6557 177.172 64.0963 176.741 61.3167 175.571C62.2708 173.174 61.1791 169.608 59.6379 166.397C58.7297 164.479 57.6564 162.677 56.7758 161.344L66.5457 164.393C66.8668 166.387 67.3713 168.247 68.5364 169.292C69.3345 170.03 70.4629 170.375 72.0499 170.087C73.3067 171.056 74.9946 173.548 71.8114 175.121Z" fill="#E4897B"/>
<path d="M71.894 175.08C71.894 175.08 71.3738 177.271 70.6362 179.542C68.0273 179.376 61.7442 178.602 60.6746 175.619C60.5801 174.646 61.425 173.625 61.425 173.625C61.425 173.625 65.8825 175.228 71.894 175.08Z" fill="white"/>
<path d="M71.8939 175.08C71.8939 175.08 74.1543 175.695 76.0175 176.96C77.0486 175.133 73.2764 170.253 72.4444 169.931C70.2344 169.218 68.7914 169.535 68.7914 169.535C68.7914 169.535 71.5123 171.687 71.8939 175.08Z" fill="white"/>
<path opacity="0.2" d="M68.5364 169.292C65.1146 169.177 62.0873 168.074 59.6379 166.397C58.7297 164.479 57.6564 162.677 56.7758 161.344L66.5457 164.393C66.8668 166.387 67.3713 168.247 68.5364 169.292Z" fill="black"/>
<path d="M110.313 224.129L100.809 226.861L92.4063 216.498L92.0393 230.533L70.8849 237.358C70.8849 237.358 71.4078 228.471 69.463 219.767C69.4171 219.565 69.3712 219.364 69.307 219.143C68.2612 215.136 64.9862 207.773 61.5736 200.65C56.996 191.073 52.1798 181.927 52.1798 181.927C52.1798 181.927 55.1245 178.256 59.5921 175.725C59.5921 175.725 71.8848 184.152 83.6087 193.566C83.6087 193.566 80.8475 173.031 71.5821 168.745C71.5821 168.745 76.3432 165.975 81.0309 165.38C81.0309 165.38 94.7823 181.391 99.3232 207.275L110.313 224.129Z" fill="#263238"/>
<path opacity="0.1" d="M68.5538 183.988L67.8126 191.784C67.8126 191.784 81.1896 192.478 90.8871 202.041L85.8324 196.047L86.5553 179.93L80.3062 177.737L82.4592 171.774C82.4592 171.774 75.0809 167.924 71.5848 168.747C80.8447 173.031 83.6142 193.559 83.6142 193.559C71.8866 184.151 59.5911 175.719 59.5911 175.719C59.5911 175.719 57.7885 180.409 59.1783 186.758L68.5538 183.988Z" fill="white"/>
<path d="M68.0245 147.07C69.473 148.85 70.8381 153.219 67.5392 153.058C64.2404 152.898 65.5357 144.009 68.0245 147.07Z" fill="#263238"/>
<path d="M54.9869 156.093C56.818 161.503 57.6261 164.771 61.0598 166.775C66.2246 169.79 72.0352 165.252 71.7866 159.361C71.5637 154.058 68.607 146.1 62.8524 145.505C57.1831 144.918 53.1567 150.682 54.9869 156.093Z" fill="#E4897B"/>
<path d="M57.3684 151.661L54.986 145.764C54.986 145.764 48.7919 147.948 50.3569 151.043C47.7268 154.234 51.4844 158.949 57.0243 159.629C58.6453 156.499 56.3721 151.692 56.3721 151.692C56.6858 151.697 57.0225 151.683 57.3684 151.661Z" fill="#263238"/>
<path d="M54.209 161.292C55.0181 162.584 56.3244 163.358 57.5179 163.588C59.3141 163.934 60.0627 162.204 59.4389 160.513C58.8775 158.992 57.2656 156.978 55.5236 157.397C53.8072 157.811 53.2834 159.815 54.209 161.292Z" fill="#E4897B"/>
<path d="M63.3973 155.157C63.5202 155.606 63.8468 155.899 64.1275 155.813C64.4082 155.726 64.5357 155.291 64.4128 154.843C64.2899 154.394 63.9633 154.101 63.6835 154.188C63.4019 154.275 63.2744 154.709 63.3973 155.157Z" fill="#263238"/>
<path d="M68.2438 153.656C68.3667 154.104 68.6933 154.398 68.974 154.31C69.2547 154.223 69.3822 153.79 69.2593 153.34C69.1364 152.892 68.8098 152.598 68.53 152.686C68.2493 152.773 68.1218 153.206 68.2438 153.656Z" fill="#263238"/>
<path d="M66.764 154.357C66.764 154.357 68.4456 156.54 69.8592 157.413C69.3024 158.346 67.9199 158.406 67.9199 158.406L66.764 154.357Z" fill="#DE5753"/>
<path d="M66.0476 160.926C66.232 160.911 66.4246 160.883 66.6246 160.839C66.6953 160.824 66.742 160.751 66.7274 160.676C66.7136 160.602 66.642 160.555 66.5732 160.57C64.6504 160.991 63.4863 159.788 63.4744 159.775C63.4239 159.721 63.3404 159.722 63.2891 159.775C63.2368 159.829 63.2368 159.916 63.2872 159.97C63.334 160.02 64.3385 161.058 66.0476 160.926Z" fill="#263238"/>
<path d="M60.9975 153.292C61.0773 153.338 61.1791 153.339 61.2635 153.285C62.2671 152.645 63.1478 153.062 63.157 153.066C63.2882 153.131 63.4459 153.072 63.5083 152.936C63.5707 152.8 63.5148 152.637 63.3845 152.573C63.3386 152.55 62.235 152.026 60.9902 152.821C60.8663 152.901 60.8269 153.068 60.9021 153.197C60.9259 153.238 60.959 153.27 60.9975 153.292Z" fill="#263238"/>
<path d="M69.9638 150.105C69.9867 150.059 69.9968 150.005 69.9904 149.949C69.9739 149.797 69.8436 149.688 69.7005 149.704C68.2612 149.869 67.7199 150.997 67.6897 151.044C67.6255 151.179 67.6777 151.345 67.8071 151.414C67.9355 151.482 68.0915 151.429 68.1566 151.295C68.1777 151.247 68.6052 150.384 69.7602 150.252C69.851 150.242 69.9253 150.184 69.9638 150.105Z" fill="#263238"/>
<path d="M55.5878 155.028C55.5878 155.028 58.5628 152.126 59.3315 149.256C59.3315 149.256 62.8992 148.717 64.1101 149.792C64.1101 149.792 64.8302 148.325 63.4826 147.424C63.4826 147.424 66.1008 146.893 67.2713 148.396C67.2713 148.396 68.2979 147.437 67.4933 145.654C67.4933 145.654 68.7354 145.603 69.8106 147.276C69.8106 147.276 70.1335 140.321 60.692 142.533C60.692 142.533 61.2607 141.922 62.5983 141.26C62.5983 141.26 55.4364 141.38 51.5367 145.886C47.6369 150.394 50.3569 154.54 55.5878 155.028Z" fill="#263238"/>
<path d="M60.9379 340.358L54.1337 340.374C53.9053 340.375 53.7072 340.541 53.6558 340.774L52.5146 345.96C52.3963 346.498 52.7971 347.006 53.3237 346.995C55.5125 346.951 57.1115 346.813 59.8691 346.807C61.5653 346.803 66.6796 346.974 69.0226 346.969C71.3133 346.963 71.6894 344.541 70.7316 344.325C66.4393 343.352 63.2083 342.004 61.8415 340.714C61.5947 340.481 61.2718 340.357 60.9379 340.358Z" fill="#263238"/>
<path d="M306.524 107.587L226.947 48.0108C222.659 44.8002 217.516 43.0736 212.241 43.0736H174.909C170.612 43.0736 166.406 44.365 162.791 46.7923C159.151 49.2379 156.266 52.7323 154.485 56.8547L93.4218 198.185C93.4218 198.185 82.6446 237.44 85.8581 283.974C87.325 305.208 83.6959 349.717 40.8714 346.995" stroke="#D300FF" stroke-width="3" stroke-miterlimit="10" stroke-linecap="round" stroke-linejoin="round"/>
<path opacity="0.4" d="M306.524 107.587L226.947 48.0108C222.659 44.8002 217.516 43.0736 212.241 43.0736H174.909C170.612 43.0736 166.406 44.365 162.791 46.7923C159.151 49.2379 156.266 52.7323 154.485 56.8547L93.4218 198.185C93.4218 198.185 82.6446 237.44 85.8581 283.974C87.325 305.208 83.6959 349.717 40.8714 346.995" stroke="white" stroke-width="3" stroke-miterlimit="10" stroke-linecap="round" stroke-linejoin="round"/>
<path opacity="0.3" d="M91.4246 198.186C91.4246 198.186 79.6365 213.669 69.3069 219.143C68.2611 215.136 64.9861 207.773 61.5735 200.65C62.9588 196.595 64.289 193.565 64.289 193.565C64.289 193.565 67.408 196.25 69.8574 199.912C69.8574 199.912 78.4256 199.538 89.2138 195.684L91.4246 198.186Z" fill="black"/>
<path d="M92.7907 194.223C92.7907 194.223 87.7947 193.232 87.414 195.943L88.5166 199.229L93.419 200.527C93.8153 200.631 94.2337 200.589 94.6034 200.408L96.7491 199.353C97.3059 199.08 97.6857 198.523 97.7527 197.884L97.9885 195.608C98.116 194.375 97.0665 193.363 95.9005 193.598L92.7907 194.223Z" fill="#E4897B"/>
<path d="M88.3552 200.688L89.7597 199.938L87.1287 195.682L85.7232 196.677L88.3552 200.688Z" fill="#407BFF"/>
<path opacity="0.7" d="M88.3552 200.688L89.7597 199.938L87.1287 195.682L85.7232 196.677L88.3552 200.688Z" fill="white"/>
<path d="M52.1752 181.928C50.6688 184.795 59.6563 209.675 63.2111 212.669C67.6273 216.389 89.745 201.368 89.745 201.368L85.8315 196.048C85.8315 196.048 68.3859 202.584 67.6621 202.042C66.9374 201.501 63.9046 192.442 63.9046 192.442C63.9046 192.442 60.8534 187.534 57.6078 184.998C54.3622 182.461 52.1752 181.928 52.1752 181.928Z" fill="#263238"/>
<path d="M173.591 42.4685C163.317 42.4685 154.987 51.1734 154.987 61.9106C154.987 72.6488 163.317 81.3537 173.591 81.3537C183.867 81.3537 192.196 72.6488 192.196 61.9106C192.196 51.1724 183.867 42.4685 173.591 42.4685ZM162.588 65.3235C160.785 65.3235 159.323 63.7954 159.323 61.9106C159.323 60.0258 160.785 58.4977 162.588 58.4977C164.392 58.4977 165.854 60.0258 165.854 61.9106C165.854 63.7954 164.392 65.3235 162.588 65.3235ZM173.591 76.8229C171.788 76.8229 170.325 75.2948 170.325 73.41C170.325 71.5253 171.788 69.9971 173.591 69.9971C175.395 69.9971 176.857 71.5253 176.857 73.41C176.857 75.2948 175.396 76.8229 173.591 76.8229ZM173.591 53.8241C171.788 53.8241 170.325 52.296 170.325 50.4112C170.325 48.5264 171.788 46.9983 173.591 46.9983C175.395 46.9983 176.857 48.5264 176.857 50.4112C176.857 52.296 175.396 53.8241 173.591 53.8241ZM184.595 65.3235C182.792 65.3235 181.329 63.7954 181.329 61.9106C181.329 60.0258 182.792 58.4977 184.595 58.4977C186.399 58.4977 187.861 60.0258 187.861 61.9106C187.861 63.7954 186.4 65.3235 184.595 65.3235Z" fill="#263238"/>
<path opacity="0.4" d="M173.591 42.4685C163.317 42.4685 154.987 51.1734 154.987 61.9106C154.987 72.6488 163.317 81.3537 173.591 81.3537C183.867 81.3537 192.196 72.6488 192.196 61.9106C192.196 51.1724 183.867 42.4685 173.591 42.4685ZM162.588 65.3235C160.785 65.3235 159.323 63.7954 159.323 61.9106C159.323 60.0258 160.785 58.4977 162.588 58.4977C164.392 58.4977 165.854 60.0258 165.854 61.9106C165.854 63.7954 164.392 65.3235 162.588 65.3235ZM173.591 76.8229C171.788 76.8229 170.325 75.2948 170.325 73.41C170.325 71.5253 171.788 69.9971 173.591 69.9971C175.395 69.9971 176.857 71.5253 176.857 73.41C176.857 75.2948 175.396 76.8229 173.591 76.8229ZM173.591 53.8241C171.788 53.8241 170.325 52.296 170.325 50.4112C170.325 48.5264 171.788 46.9983 173.591 46.9983C175.395 46.9983 176.857 48.5264 176.857 50.4112C176.857 52.296 175.396 53.8241 173.591 53.8241ZM184.595 65.3235C182.792 65.3235 181.329 63.7954 181.329 61.9106C181.329 60.0258 182.792 58.4977 184.595 58.4977C186.399 58.4977 187.861 60.0258 187.861 61.9106C187.861 63.7954 186.4 65.3235 184.595 65.3235Z" fill="white"/>
<path opacity="0.2" d="M173.591 68.3405C176.989 68.3405 179.744 65.4617 179.744 61.9106C179.744 58.3595 176.989 55.4807 173.591 55.4807C170.193 55.4807 167.439 58.3595 167.439 61.9106C167.439 65.4617 170.193 68.3405 173.591 68.3405Z" fill="black"/>
<g opacity="0.2">
<path d="M173.592 79.9954C164.05 79.9954 156.287 71.883 156.287 61.9118C156.287 51.9395 164.05 43.8271 173.592 43.8271C183.134 43.8271 190.897 51.9395 190.897 61.9118C190.897 71.8821 183.134 79.9954 173.592 79.9954ZM173.592 44.9929C164.665 44.9929 157.403 52.5818 157.403 61.9108C157.403 71.2388 164.665 78.8287 173.592 78.8287C182.518 78.8287 189.781 71.2397 189.781 61.9108C189.781 52.5818 182.518 44.9929 173.592 44.9929Z" fill="black"/>
</g>
<path d="M173.591 67.2561C176.416 67.2561 178.707 64.8627 178.707 61.9104C178.707 58.9581 176.416 56.5648 173.591 56.5648C170.766 56.5648 168.476 58.9581 168.476 61.9104C168.476 64.8627 170.766 67.2561 173.591 67.2561Z" fill="#263238"/>
<path d="M212.358 42.4686C202.083 42.4686 193.753 51.1735 193.753 61.9107C193.753 72.648 202.083 81.3529 212.358 81.3529C222.634 81.3529 230.962 72.648 230.962 61.9107C230.962 51.1735 222.633 42.4686 212.358 42.4686ZM201.354 65.3237C199.551 65.3237 198.089 63.7955 198.089 61.9107C198.089 60.026 199.551 58.4978 201.354 58.4978C203.158 58.4978 204.62 60.026 204.62 61.9107C204.62 63.7955 203.158 65.3237 201.354 65.3237ZM212.358 76.8231C210.555 76.8231 209.092 75.2949 209.092 73.4102C209.092 71.5254 210.555 69.9972 212.358 69.9972C214.162 69.9972 215.624 71.5254 215.624 73.4102C215.624 75.2949 214.162 76.8231 212.358 76.8231ZM212.358 53.8242C210.555 53.8242 209.092 52.2961 209.092 50.4113C209.092 48.5266 210.555 46.9984 212.358 46.9984C214.162 46.9984 215.624 48.5266 215.624 50.4113C215.624 52.2961 214.162 53.8242 212.358 53.8242ZM223.362 65.3237C221.559 65.3237 220.096 63.7955 220.096 61.9107C220.096 60.026 221.559 58.4978 223.362 58.4978C225.166 58.4978 226.628 60.026 226.628 61.9107C226.628 63.7955 225.166 65.3237 223.362 65.3237Z" fill="#263238"/>
<path opacity="0.4" d="M212.358 42.4686C202.083 42.4686 193.753 51.1735 193.753 61.9107C193.753 72.648 202.083 81.3529 212.358 81.3529C222.634 81.3529 230.962 72.648 230.962 61.9107C230.962 51.1735 222.633 42.4686 212.358 42.4686ZM201.354 65.3237C199.551 65.3237 198.089 63.7955 198.089 61.9107C198.089 60.026 199.551 58.4978 201.354 58.4978C203.158 58.4978 204.62 60.026 204.62 61.9107C204.62 63.7955 203.158 65.3237 201.354 65.3237ZM212.358 76.8231C210.555 76.8231 209.092 75.2949 209.092 73.4102C209.092 71.5254 210.555 69.9972 212.358 69.9972C214.162 69.9972 215.624 71.5254 215.624 73.4102C215.624 75.2949 214.162 76.8231 212.358 76.8231ZM212.358 53.8242C210.555 53.8242 209.092 52.2961 209.092 50.4113C209.092 48.5266 210.555 46.9984 212.358 46.9984C214.162 46.9984 215.624 48.5266 215.624 50.4113C215.624 52.2961 214.162 53.8242 212.358 53.8242ZM223.362 65.3237C221.559 65.3237 220.096 63.7955 220.096 61.9107C220.096 60.026 221.559 58.4978 223.362 58.4978C225.166 58.4978 226.628 60.026 226.628 61.9107C226.628 63.7955 225.166 65.3237 223.362 65.3237Z" fill="white"/>
<path opacity="0.2" d="M218.511 61.9107C218.511 65.4617 215.756 68.3406 212.358 68.3406C208.96 68.3406 206.206 65.4617 206.206 61.9107C206.206 58.3598 208.96 55.4808 212.358 55.4808C215.756 55.4808 218.511 58.3598 218.511 61.9107Z" fill="black"/>
<g opacity="0.2">
<path d="M212.358 79.9955C202.816 79.9955 195.053 71.8831 195.053 61.9119C195.053 51.9397 202.816 43.8273 212.358 43.8273C221.9 43.8273 229.663 51.9397 229.663 61.9119C229.663 71.8822 221.9 79.9955 212.358 79.9955ZM212.358 44.993C203.431 44.993 196.17 52.582 196.17 61.9109C196.17 71.2389 203.431 78.8288 212.358 78.8288C221.284 78.8288 228.547 71.2389 228.547 61.9109C228.547 52.582 221.285 44.993 212.358 44.993Z" fill="black"/>
</g>
<path d="M212.358 67.2562C215.183 67.2562 217.473 64.8629 217.473 61.9106C217.473 58.9583 215.183 56.5649 212.358 56.5649C209.533 56.5649 207.243 58.9583 207.243 61.9106C207.243 64.8629 209.533 67.2562 212.358 67.2562Z" fill="#263238"/>
<path d="M212.324 52.0263C208.249 52.0263 204.766 48.9576 204.078 44.7595L201.746 30.5345H184.205L181.873 44.7595C181.185 48.9576 177.702 52.0263 173.627 52.0263C168.498 52.0263 164.099 56.2196 164.005 61.5786C163.909 67.0383 168.116 71.4953 173.318 71.4953H212.634C217.836 71.4953 222.042 67.0383 221.947 61.5786C221.852 56.2196 217.453 52.0263 212.324 52.0263Z" fill="#263238"/>
<path opacity="0.2" d="M212.324 52.0263C208.249 52.0263 204.766 48.9576 204.078 44.7595L201.746 30.5345H184.205L181.873 44.7595C181.185 48.9576 177.702 52.0263 173.627 52.0263C168.498 52.0263 164.099 56.2196 164.005 61.5786C163.909 67.0383 168.116 71.4953 173.318 71.4953H212.634C217.836 71.4953 222.042 67.0383 221.947 61.5786C221.852 56.2196 217.453 52.0263 212.324 52.0263Z" fill="white"/>
<path opacity="0.4" d="M173.591 67.2558C176.416 67.2558 178.707 64.8625 178.707 61.9102C178.707 58.9579 176.416 56.5646 173.591 56.5646C170.766 56.5646 168.476 58.9579 168.476 61.9102C168.476 64.8625 170.766 67.2558 173.591 67.2558Z" fill="white"/>
<path opacity="0.4" d="M212.358 67.2558C215.183 67.2558 217.474 64.8625 217.474 61.9102C217.474 58.9579 215.183 56.5646 212.358 56.5646C209.533 56.5646 207.243 58.9579 207.243 61.9102C207.243 64.8625 209.533 67.2558 212.358 67.2558Z" fill="white"/>
<path d="M205.671 35.5619H180.28C179.411 35.5619 178.708 34.8256 178.708 33.9187V29.1454H207.243V33.9187C207.243 34.8256 206.539 35.5619 205.671 35.5619Z" fill="#263238"/>
<path opacity="0.4" d="M205.671 35.5619H180.28C179.411 35.5619 178.708 34.8256 178.708 33.9187V29.1454H207.243V33.9187C207.243 34.8256 206.539 35.5619 205.671 35.5619Z" fill="white"/>
<defs>
<radialGradient id="paint0_radial_50_1688" cx="0" cy="0" r="1" gradientUnits="userSpaceOnUse" gradientTransform="translate(291.684 301.956) rotate(-52.8254) scale(18.9825 42.4052)">
<stop offset="0.0671491" stop-color="#D300FF"/>
<stop offset="1" stop-color="#4E0093"/>
</radialGradient>
<radialGradient id="paint1_radial_50_1688" cx="0" cy="0" r="1" gradientUnits="userSpaceOnUse" gradientTransform="translate(315.965 298.39) rotate(-58.1283) scale(19.3554 40.27)">
<stop offset="0.0671491" stop-color="#D300FF"/>
<stop offset="1" stop-color="#4E0093"/>
</radialGradient>
<radialGradient id="paint2_radial_50_1688" cx="0" cy="0" r="1" gradientUnits="userSpaceOnUse" gradientTransform="translate(321.757 271.068) rotate(-38.5357) scale(15.4472 34.9278)">
<stop offset="0.0671491" stop-color="#D300FF"/>
<stop offset="1" stop-color="#4E0093"/>
</radialGradient>
<radialGradient id="paint3_radial_50_1688" cx="0" cy="0" r="1" gradientUnits="userSpaceOnUse" gradientTransform="translate(321.757 271.068) rotate(-38.5357) scale(15.4472 34.9278)">
<stop offset="0.0671491" stop-color="#D300FF"/>
<stop offset="1" stop-color="#4E0093"/>
</radialGradient>
<radialGradient id="paint4_radial_50_1688" cx="0" cy="0" r="1" gradientUnits="userSpaceOnUse" gradientTransform="translate(307.495 264.315) rotate(-46.1401) scale(15.3812 35.6549)">
<stop offset="0.0671491" stop-color="#D300FF"/>
<stop offset="1" stop-color="#4E0093"/>
</radialGradient>
<radialGradient id="paint5_radial_50_1688" cx="0" cy="0" r="1" gradientUnits="userSpaceOnUse" gradientTransform="translate(329.791 295.2) rotate(-43.0891) scale(13.3704 30.9494)">
<stop offset="0.0671491" stop-color="#D300FF"/>
<stop offset="1" stop-color="#4E0093"/>
</radialGradient>
<radialGradient id="paint6_radial_50_1688" cx="0" cy="0" r="1" gradientUnits="userSpaceOnUse" gradientTransform="translate(296.01 272.636) rotate(-43.0874) scale(13.3701 30.9485)">
<stop offset="0.0671491" stop-color="#D300FF"/>
<stop offset="1" stop-color="#4E0093"/>
</radialGradient>
<radialGradient id="paint7_radial_50_1688" cx="0" cy="0" r="1" gradientUnits="userSpaceOnUse" gradientTransform="translate(307.772 283.55) rotate(-60.1755) scale(12.3214 24.667)">
<stop offset="0.0671491" stop-color="#D300FF"/>
<stop offset="1" stop-color="#4E0093"/>
</radialGradient>
<radialGradient id="paint8_radial_50_1688" cx="0" cy="0" r="1" gradientUnits="userSpaceOnUse" gradientTransform="translate(330.148 283.456) rotate(-49.8613) scale(10.8513 24.8126)">
<stop offset="0.0671491" stop-color="#D300FF"/>
<stop offset="1" stop-color="#4E0093"/>
</radialGradient>
<radialGradient id="paint9_radial_50_1688" cx="0" cy="0" r="1" gradientUnits="userSpaceOnUse" gradientTransform="translate(330.148 283.456) rotate(-49.8613) scale(10.8513 24.8126)">
<stop offset="0.0671491" stop-color="#D300FF"/>
<stop offset="1" stop-color="#4E0093"/>
</radialGradient>
<radialGradient id="paint10_radial_50_1688" cx="0" cy="0" r="1" gradientUnits="userSpaceOnUse" gradientTransform="translate(133.098 309.21) rotate(-49.875) scale(311.359 711.896)">
<stop offset="0.0671491" stop-color="#D300FF"/>
<stop offset="1" stop-color="#4E0093"/>
</radialGradient>
<radialGradient id="paint11_radial_50_1688" cx="0" cy="0" r="1" gradientUnits="userSpaceOnUse" gradientTransform="translate(66.7679 123.96) rotate(-54.839) scale(54.7429 119.583)">
<stop offset="0.0671491" stop-color="#D300FF"/>
<stop offset="1" stop-color="#4E0093"/>
</radialGradient>
<radialGradient id="paint12_radial_50_1688" cx="0" cy="0" r="1" gradientUnits="userSpaceOnUse" gradientTransform="translate(85.4225 108.409) rotate(-125.684) scale(31.1136 70.0766)">
<stop offset="0.0671491" stop-color="#D300FF"/>
<stop offset="1" stop-color="#4E0093"/>
</radialGradient>
</defs>
</svg>
