<svg width="360" height="360" viewBox="0 0 360 360" fill="none" xmlns="http://www.w3.org/2000/svg">
<g clip-path="url(#clip0_50_1852)">
<path d="M61.0618 0H60.4886V67.5245H61.0618V0Z" fill="#C7C7C7"/>
<path d="M84.5006 90.3953L82.5926 94.59H38.952L37.049 90.3953L55.6286 77.5354H65.921L84.5006 90.3953Z" fill="#EBEBEB"/>
<path d="M67.2106 65.1449L65.921 77.5354H55.6286L54.3391 65.1449H67.2106Z" fill="#DBDBDB"/>
<path d="M84.4985 90.3967L82.5905 94.5922H38.9498L37.0469 90.3967H84.4985Z" fill="#DBDBDB"/>
<path d="M112.005 0H111.432V53.9914H112.005V0Z" fill="#C7C7C7"/>
<path d="M135.444 76.8615L133.536 81.0562H89.8956L87.9926 76.8615L106.572 64.0016H116.865L135.444 76.8615Z" fill="#EBEBEB"/>
<path d="M118.154 51.6111L116.865 64.0016H106.572L105.283 51.6111H118.154Z" fill="#DBDBDB"/>
<path d="M135.442 76.8636L133.534 81.0584H89.8934L87.9905 76.8636H135.442Z" fill="#DBDBDB"/>
<path d="M311.107 227.538L301.657 227.739L296.861 227.819C295.258 227.853 293.648 227.846 292.041 227.859L291.721 227.861L291.72 227.538L291.681 219.481L291.679 219.12L292.041 219.121L301.573 219.167C304.751 219.17 307.929 219.247 311.106 219.285L311.305 219.287L311.303 219.481C311.289 220.848 311.241 222.208 311.208 223.552L311.107 227.538ZM311.107 227.538L311.005 223.467C310.972 222.126 310.924 220.799 310.91 219.481L311.107 219.678C307.93 219.714 304.752 219.792 301.574 219.796L292.041 219.841L292.401 219.482L292.362 227.539L292.041 227.218C293.612 227.231 295.178 227.223 296.754 227.257L301.491 227.338L311.107 227.538Z" fill="#EBEBEB"/>
<path d="M300.472 237.697L291.022 237.898L286.226 237.979C284.623 238.013 283.013 238.005 281.406 238.018L281.086 238.02L281.084 237.697L281.046 229.64L281.044 229.279L281.406 229.28L290.938 229.326C294.116 229.329 297.294 229.406 300.471 229.444L300.67 229.446L300.668 229.64C300.654 231.008 300.606 232.367 300.573 233.711L300.472 237.697ZM300.472 237.697L300.37 233.626C300.337 232.285 300.289 230.959 300.275 229.64L300.472 229.837C297.294 229.874 294.116 229.951 290.939 229.955L281.406 230L281.766 229.641L281.727 237.698L281.406 237.377C282.977 237.39 284.543 237.383 286.119 237.416L290.856 237.497L300.472 237.697Z" fill="#EBEBEB"/>
<path d="M322.237 237.697L312.787 237.898L307.992 237.979C306.389 238.013 304.778 238.005 303.171 238.018L302.851 238.02L302.85 237.697L302.811 229.64L302.81 229.279L303.171 229.28L312.704 229.326C315.881 229.329 319.059 229.406 322.237 229.444L322.435 229.446L322.433 229.64C322.42 231.008 322.371 232.367 322.339 233.711L322.237 237.697ZM322.237 237.697L322.135 233.626C322.103 232.285 322.055 230.959 322.041 229.64L322.237 229.837C319.06 229.874 315.882 229.951 312.705 229.955L303.172 230L303.531 229.641L303.492 237.698L303.171 237.377C304.742 237.39 306.309 237.383 307.884 237.416L312.621 237.497L322.237 237.697Z" fill="#EBEBEB"/>
<path d="M249.535 166.028L240.085 166.229L235.289 166.309C233.687 166.343 232.076 166.336 230.469 166.349L230.149 166.352L230.148 166.028L230.109 157.972L230.108 157.61L230.469 157.612L240.002 157.657C243.179 157.661 246.357 157.738 249.535 157.775L249.733 157.777L249.731 157.972C249.718 159.339 249.669 160.698 249.637 162.042L249.535 166.028ZM249.535 166.028L249.433 161.957C249.401 160.615 249.353 159.289 249.339 157.971L249.535 158.167C246.358 158.204 243.18 158.282 240.003 158.285L230.47 158.331L230.829 157.972L230.79 166.028L230.469 165.707C232.04 165.72 233.607 165.713 235.182 165.747L239.919 165.827L249.535 166.028Z" fill="#EBEBEB"/>
<path d="M56.9916 237.697L47.5416 237.898L42.7457 237.979C41.143 238.013 39.5323 238.005 37.9253 238.018L37.6056 238.02L37.6042 237.697L37.5653 229.64L37.5638 229.279L37.9253 229.28L47.4581 229.326C50.6354 229.329 53.8135 229.406 56.9909 229.444L57.1896 229.446L57.1874 229.64C57.1738 231.008 57.1255 232.367 57.0931 233.711L56.9916 237.697ZM56.9916 237.697L56.8894 233.626C56.857 232.285 56.8087 230.959 56.795 229.64L56.9916 229.837C53.8142 229.874 50.6362 229.951 47.4588 229.955L37.926 230L38.2853 229.641L38.2464 237.698L37.9253 237.377C39.4963 237.39 41.063 237.383 42.6384 237.416L47.3753 237.497L56.9916 237.697Z" fill="#EBEBEB"/>
<path d="M296.748 40.3632L287.298 40.5641L282.502 40.6447C280.899 40.6785 279.289 40.6721 277.682 40.6843L277.362 40.6872L277.361 40.3639L277.322 32.3064L277.321 31.9449L277.682 31.9464L287.215 31.9917C290.393 31.9953 293.571 32.0731 296.748 32.1098L296.947 32.112L296.945 32.3064C296.931 33.6737 296.883 35.0323 296.85 36.3773L296.748 40.3632ZM296.748 40.3632L296.646 36.2923C296.613 34.9509 296.565 33.6247 296.551 32.3064L296.748 32.5029C293.571 32.5397 290.393 32.6174 287.215 32.621L277.682 32.6664L278.042 32.3071L278.003 40.3632L277.682 40.0421C279.253 40.055 280.819 40.0478 282.395 40.0817L287.132 40.1623L296.748 40.3632Z" fill="#EBEBEB"/>
<path d="M307.383 50.5224L297.933 50.7233L293.137 50.8039C291.534 50.8377 289.924 50.8305 288.317 50.8435L287.997 50.8464L287.996 50.5231L287.957 42.4663L287.955 42.1049L288.317 42.1063L297.85 42.1517C301.027 42.1553 304.205 42.2323 307.382 42.2697L307.581 42.2719L307.579 42.4663C307.565 43.8336 307.517 45.1922 307.485 46.5372L307.383 50.5224ZM307.383 50.5224L307.281 46.4515C307.248 45.1101 307.2 43.7839 307.187 42.4656L307.383 42.6621C304.206 42.6989 301.028 42.7766 297.85 42.7802L288.317 42.8256L288.677 42.4663L288.638 50.5231L288.317 50.202C289.888 50.2149 291.455 50.2077 293.03 50.2416L297.767 50.3222L307.383 50.5224Z" fill="#EBEBEB"/>
<path d="M129.113 122.633L119.663 122.834L114.867 122.915C113.264 122.949 111.653 122.941 110.046 122.954L109.727 122.957L109.725 122.634L109.686 114.577L109.685 114.216L110.046 114.217L119.579 114.263C122.756 114.266 125.935 114.344 129.112 114.381L129.311 114.383L129.308 114.577C129.295 115.944 129.247 117.304 129.214 118.648L129.113 122.633ZM129.113 122.633L129.01 118.562C128.978 117.221 128.93 115.895 128.916 114.576L129.113 114.773C125.935 114.81 122.757 114.887 119.58 114.891L110.047 114.936L110.406 114.577L110.367 122.634L110.046 122.313C111.617 122.326 113.184 122.319 114.759 122.352L119.496 122.433L129.113 122.633Z" fill="#EBEBEB"/>
<path d="M139.748 132.792L130.298 132.993L125.502 133.073C123.9 133.107 122.289 133.1 120.682 133.113L120.362 133.116L120.361 132.793L120.322 124.736L120.321 124.374L120.682 124.376L130.215 124.421C133.393 124.425 136.57 124.502 139.748 124.539L139.946 124.541L139.944 124.736C139.931 126.103 139.882 127.462 139.85 128.807L139.748 132.792ZM139.748 132.792L139.646 128.721C139.614 127.38 139.566 126.053 139.552 124.735L139.748 124.932C136.571 124.968 133.393 125.046 130.216 125.05L120.683 125.095L121.042 124.736L121.003 132.793L120.682 132.471C122.253 132.484 123.82 132.477 125.395 132.511L130.132 132.592L139.748 132.792Z" fill="#EBEBEB"/>
<path d="M60.8278 60.624L51.3778 60.8249L46.5818 60.9056C44.9791 60.9394 43.3685 60.9322 41.7614 60.9452L41.4418 60.948L41.441 60.624L41.4022 52.5672L41.4007 52.2058L41.7622 52.2072L51.295 52.2526C54.4723 52.2562 57.6504 52.3332 60.8278 52.3707L61.0265 52.3728L61.0243 52.5672C61.0106 53.9345 60.9624 55.2939 60.93 56.6381L60.8278 60.624ZM60.8278 60.624L60.7255 56.5532C60.6931 55.2118 60.6449 53.8856 60.6312 52.5672L60.8278 52.7638C57.6504 52.8005 54.4723 52.8783 51.295 52.8819L41.7622 52.9272L42.1214 52.568L42.0826 60.624L41.7614 60.3029C43.3325 60.3159 44.8992 60.3087 46.4746 60.3425L51.2114 60.4232L60.8278 60.624Z" fill="#EBEBEB"/>
<path d="M271.063 107.122H312.623V148.683H271.063V107.122ZM310.663 109.082H273.023V146.723H310.663V109.082Z" fill="#EBEBEB"/>
<path d="M280.312 144.014H293.324V114.676H280.312V144.014Z" fill="#EBEBEB"/>
<path d="M284.327 135.419H299.359V120.387H284.327V135.419Z" fill="#C7C7C7"/>
<path d="M312.623 150.552V148.683H271.063V150.552H312.623Z" fill="#DBDBDB"/>
<path d="M276.251 165.859V175.687H304.643V165.859H276.251Z" fill="#C7C7C7"/>
<path d="M271.063 157.432H312.623V198.992H271.063V157.432ZM310.663 159.391H273.022V197.032H310.663V159.391Z" fill="#EBEBEB"/>
<path d="M284.327 185.729H299.359V170.696H284.327V185.729Z" fill="#EBEBEB"/>
<path d="M312.622 200.861V198.992H271.063V200.861H312.622Z" fill="#DBDBDB"/>
<path d="M305.531 62.9459H293.186V83.6042H305.531V62.9459Z" fill="#EBEBEB"/>
<path d="M271.063 56.8137H312.623V98.3743H271.063V56.8137ZM310.663 58.7736H273.023V96.4144H310.663V58.7736Z" fill="#EBEBEB"/>
<path d="M284.327 85.1096H299.359V70.0775H284.327V85.1096Z" fill="#C7C7C7"/>
<path d="M312.623 100.243V98.3737L271.063 98.3737V100.243L312.623 100.243Z" fill="#DBDBDB"/>
<path d="M317.273 291.239H247.306L244.485 235.573H320.095L317.273 291.239Z" fill="#EBEBEB"/>
<path d="M252.779 241.729H311.8L310.736 261.055H254.02L252.779 241.729ZM311.076 242.414H253.509L254.662 260.369H310.087L311.076 242.414Z" fill="#DBDBDB"/>
<path d="M253.977 265.843H309.383L308.515 283.287H255.067L253.977 265.843ZM308.663 266.527H254.706L255.71 282.601H307.863L308.663 266.527Z" fill="#DBDBDB"/>
<path d="M276.316 248.827H287.048L286.447 253.488H276.917L276.316 248.827ZM286.27 249.512H277.094L277.519 252.803H285.846L286.27 249.512Z" fill="#DBDBDB"/>
<path d="M276.316 272.234H287.048L286.447 276.896H276.917L276.316 272.234ZM286.27 272.919H277.094L277.519 276.21H285.846L286.27 272.919Z" fill="#DBDBDB"/>
<path d="M305.107 291.238L305.959 297.302L307.673 309.487H311.023V291.238H305.107Z" fill="#EBEBEB"/>
<path d="M305.107 291.238L305.959 297.302H311.023V291.238H305.107Z" fill="#DBDBDB"/>
<path d="M259.472 291.238L258.62 297.302L256.907 309.487H253.557V291.238H259.472Z" fill="#EBEBEB"/>
<path d="M259.472 291.238L258.62 297.302H253.557V291.238H259.472Z" fill="#DBDBDB"/>
<path d="M29.8455 309.811L67.3841 309.636L104.923 309.573L180 309.452L255.077 309.572L292.616 309.635L330.155 309.811L292.616 309.987L255.077 310.051L180 310.17L104.923 310.05L67.3841 309.986L29.8455 309.811Z" fill="#263238"/>
<path d="M180 337.914C248.507 337.914 304.043 332.806 304.043 326.504C304.043 320.203 248.507 315.094 180 315.094C111.493 315.094 55.957 320.203 55.957 326.504C55.957 332.806 111.493 337.914 180 337.914Z" fill="#EBEBEB"/>
<path d="M64.3046 239.063C64.5199 235.911 64.9058 232.755 65.6388 229.678C66.3005 226.9 67.2393 224.059 68.9918 221.762C70.5924 219.665 72.8913 217.994 75.5633 217.668C78.1373 217.353 80.5543 218.5 82.4796 220.121C84.8649 222.13 86.6923 224.791 88.4066 227.369C90.3247 230.252 91.9562 233.25 93.5265 236.331C93.5784 236.432 93.4229 236.518 93.3717 236.416C92.0765 233.812 90.4831 231.282 88.7933 228.917C87.1963 226.683 85.4899 224.456 83.5207 222.533C81.7538 220.809 79.5089 219.195 76.9485 219.114C74.4019 219.033 72.0504 220.463 70.5168 222.426C68.8025 224.621 67.9298 227.362 67.2768 230.033C66.5597 232.965 66.2011 235.963 65.957 238.968C65.4537 245.15 65.3177 251.369 65.178 257.567C65.0988 261.075 65.0513 264.583 65.0196 268.092C65.0037 269.87 64.9893 271.647 64.9764 273.425C64.9634 275.138 65.0534 276.875 64.7712 278.567C64.7136 278.912 64.1484 278.878 64.0901 278.55C63.8071 276.948 63.8769 275.301 63.8546 273.678C63.8316 271.993 63.81 270.307 63.7949 268.623C63.7653 265.347 63.7488 262.071 63.7581 258.795C63.7761 252.223 63.8553 245.623 64.3046 239.063Z" fill="#263238"/>
<path d="M73.1376 234.401C73.4659 232.654 74.0563 230.375 75.0528 229.021C76.842 226.587 78.7745 227.645 76.9881 230.34C75.0377 233.283 74.7561 235.608 74.4753 236.985C74.4753 236.985 77.4835 241.283 81.1145 243.399C80.9597 241.747 80.4931 239.206 80.8149 236.754C81.5126 231.445 84.7238 231.744 83.9304 235.961C83.2925 239.343 83.0304 242.934 83.2032 244.49C84.294 245.317 86.153 246.028 87.084 246.391C86.8752 245.777 86.6549 245.037 86.4101 244.143C85.122 239.383 88.295 237.897 88.3965 240.576C88.4743 242.777 89.3275 246.189 89.6313 247.329C91.373 247.913 92.8166 248.313 93.6993 248.623C97.3677 249.911 99.6523 252.691 99.6523 252.691C101.317 251.212 102.659 249.417 103.709 247.442C102.599 246.487 100.845 245.067 98.4117 243.35C93.8484 240.129 95.4353 236.061 99.0561 238.59C101.669 240.415 103.691 243.798 104.61 245.534C105.868 242.527 106.53 239.229 106.68 236.031C103.095 232.667 94.2307 227.978 96.9026 227.978C99.3067 227.978 104.687 231.503 106.662 232.863C106.608 231.915 106.507 230.99 106.358 230.101C102.982 227.888 92.0117 224.446 93.7591 223.456C95.6801 222.371 103.333 225.914 105.648 227.035C105.141 225.39 104.455 223.957 103.62 222.836C98.9546 216.591 90.5429 214.44 86.873 215.63C84.276 216.472 85.0349 223.061 84.4769 222.836C74.0455 218.637 69.3007 221.605 73.1376 234.401ZM98.7098 233.68C99.4493 232.785 102.874 235.416 101.884 236.853C100.893 238.291 97.7551 234.825 98.7098 233.68ZM80.82 228.061C81.7207 228.634 80.3909 231.962 79.0005 230.954C77.8197 230.095 79.9135 227.482 80.82 228.061Z" fill="url(#paint0_radial_50_1852)"/>
<path d="M82.1858 229.08C82.6574 228.149 83.1485 227.223 83.6856 226.329C84.1968 225.477 84.7418 224.57 85.4093 223.829C85.2602 223.647 85.1169 223.46 84.9636 223.281C84.9009 223.207 85.0082 223.104 85.0723 223.177C85.2473 223.376 85.4136 223.58 85.5835 223.783C85.6166 223.801 85.6433 223.829 85.6555 223.868C86.3006 224.641 86.9076 225.436 87.4872 226.249C88.5125 226.465 89.5255 226.794 90.5169 227.126C91.5401 227.469 92.5538 227.825 93.5489 228.244C93.6533 228.288 93.6014 228.459 93.4977 228.414C92.5128 227.978 91.5127 227.556 90.4917 227.211C89.5262 226.884 88.5434 226.633 87.5642 226.356C87.8832 226.805 88.1957 227.259 88.4959 227.719C90.3333 228.247 92.1305 229.086 93.8534 229.904C95.6635 230.764 97.4066 231.763 99.1404 232.766C99.2383 232.823 99.1454 232.975 99.0475 232.917C97.3497 231.901 95.58 231.033 93.7893 230.195C92.1117 229.409 90.3751 228.764 88.6831 228.017C92.9426 234.665 95.4986 242.336 98.9136 249.438C98.9633 249.542 98.802 249.627 98.7588 249.524C97.7162 247.033 96.5153 244.606 95.3798 242.156C94.3603 239.956 93.3653 237.744 92.3443 235.545C92.0455 234.902 91.7381 234.259 91.4256 233.618C91.6121 237.169 91.5365 240.781 92.1182 244.29C92.1391 244.416 91.9526 244.439 91.944 244.31C91.6977 240.515 91.0289 236.78 91.0562 232.964C91.0562 232.942 91.0713 232.932 91.0771 232.915C90.3542 231.464 89.5838 230.033 88.7522 228.64C87.3403 231.963 85.8564 235.336 85.1983 238.905C85.1781 239.015 84.9996 238.966 85.0291 238.854C85.9889 235.277 86.8788 231.696 88.6017 228.39C87.6909 226.885 86.6981 225.436 85.6015 224.065C85.1285 224.948 84.5208 225.783 83.9829 226.627C83.4573 227.452 82.9411 228.281 82.4551 229.131C81.4161 230.946 80.5039 232.796 79.7904 234.763C79.7515 234.871 79.5773 234.814 79.6212 234.711C80.4319 232.82 81.2556 230.918 82.1858 229.08Z" fill="#263238"/>
<path d="M48.6057 237.164C51.3396 234.423 54.5169 230.824 58.7419 230.831C62.8193 230.839 65.8209 234.122 67.5446 237.509C69.3475 241.05 69.9955 245.063 70.5045 248.963C71.1144 253.632 71.4521 258.34 71.5853 263.046C71.6594 265.661 71.6493 268.278 71.5845 270.893C71.519 273.531 71.4557 276.208 70.9855 278.81C70.9092 279.233 70.2324 279.248 70.2072 278.792C70.0841 276.591 70.1726 274.378 70.1849 272.175C70.1964 270.005 70.1625 267.834 70.0833 265.666C69.9221 261.278 69.6031 256.897 69.0876 252.537C68.6376 248.729 68.2805 244.813 67.1407 241.134C66.1125 237.816 64.1858 234.02 60.822 232.563C56.232 230.574 51.7471 234.207 48.7433 237.276C48.6633 237.357 48.5251 237.244 48.6057 237.164Z" fill="#263238"/>
<path d="M34.6586 243.29V243.296C34.6795 243.856 34.7119 244.411 34.7493 244.951C35.9971 244.074 37.566 243.277 39.2292 243.095C43.1093 242.683 42.8616 245.633 40.2696 245.757C37.7971 245.875 36.1389 246.295 34.9459 246.823C35.5788 251.947 36.9878 256.065 37.1995 256.121C37.4112 256.171 42.1545 255.831 47.4509 254.825C46.4868 252.77 44.2901 250.037 45.4082 249.817C46.5559 249.589 47.7533 252.028 48.3739 254.638C50.9292 254.122 53.5601 253.447 55.8302 252.586C54.1238 251.109 51.4857 249.27 52.4937 248.487C53.501 247.699 55.5955 250.291 56.8497 252.173C58.0961 251.641 59.2027 251.045 60.0725 250.376C57.7728 246.999 52.1683 246.311 52.8998 243.869C53.6465 241.379 58.8751 244.814 61.2288 249.336C63.9943 246.469 64.8036 242.411 64.5127 238.944C62.105 238.664 57.4711 239.173 57.8066 237.442C58.122 235.797 61.4901 236.042 64.2319 237.052C63.8942 235.48 63.3225 234.14 62.6227 233.241C60.084 229.982 52.3397 234.126 52.3397 234.126C52.3397 234.126 53.1684 226.341 50.2135 224.995C48.5107 224.222 45.5069 224.228 42.4922 226.003C44.1828 226.143 46.2269 226.678 47.0477 227.852C48.0989 229.348 46.4414 230.162 45.3873 229.472C44.6472 228.982 43.2597 227.442 40.7599 227.239C39.7893 228.043 38.8404 229.068 37.9634 230.334C37.6783 230.736 37.4119 231.16 37.1469 231.621C39.5827 230.609 42.8069 230.09 46.2146 231.785C49.5727 233.453 47.6971 236.94 44.8077 235.585C41.9493 234.246 39.1673 232.898 36.1044 233.665C34.9797 236.257 34.6068 239.327 34.632 242.347C35.7804 241.516 37.4767 240.521 39.6057 239.959C42.9437 239.083 43.9531 241.078 40.2861 241.45C37.9555 241.687 35.9957 242.54 34.6586 243.29ZM38.7194 237.931C38.489 236.848 40.8571 236.539 41.2509 237.416C41.58 238.165 38.9448 239.013 38.7194 237.931ZM58.9759 243.921C59.1984 243.331 60.7831 244.002 60.6391 244.737C60.4411 245.72 58.7592 244.511 58.9759 243.921ZM47.7929 247.715C48.947 247.254 50.7506 250.124 49.4921 250.781C48.2335 251.438 46.8497 248.095 47.7929 247.715Z" fill="url(#paint1_radial_50_1852)"/>
<path d="M37.6524 255.531C39.3926 252.622 41.112 249.697 42.9386 246.842C43.7897 245.511 44.681 244.208 45.6062 242.929C45.4665 242.901 45.3276 242.86 45.1915 242.832C44.9618 242.783 44.7307 242.739 44.4989 242.698C43.9646 242.605 43.4261 242.528 42.8861 242.474C42.3777 242.422 41.8687 242.394 41.3582 242.389C40.8276 242.382 40.248 242.364 39.726 242.474C39.6605 242.488 39.6504 242.385 39.7123 242.388C40.2559 242.41 40.8125 242.338 41.3575 242.33C41.886 242.323 42.4152 242.337 42.9429 242.368C43.439 242.397 43.9322 242.446 44.4233 242.522C44.6947 242.564 44.9654 242.611 45.2347 242.664C45.3953 242.696 45.5652 242.719 45.7236 242.767C46.6661 241.471 47.6438 240.201 48.6554 238.957C45.6048 237.556 42.4663 236.401 39.1313 235.917C39.0751 235.909 39.0967 235.822 39.1529 235.832C42.4757 236.363 45.8085 237.221 48.8153 238.762C49.3711 238.08 49.9305 237.4 50.4936 236.723C51.1229 235.966 51.7961 235.227 52.3656 234.423C52.403 234.371 52.4793 234.429 52.4361 234.475C51.6463 235.318 50.9321 236.249 50.2279 237.179C50.2337 237.181 50.2387 237.178 50.2437 237.182C51.5001 238.022 52.655 239.024 53.7847 240.026C54.9417 241.052 56.0721 242.112 57.1694 243.202C57.2097 243.243 57.1493 243.307 57.1082 243.266C56.0232 242.188 54.8985 241.159 53.7221 240.181C52.5463 239.205 51.3093 238.307 50.1271 237.34C50.1213 237.335 50.1228 237.328 50.1185 237.322C49.8485 237.68 49.5792 238.036 49.3077 238.388C49.1709 238.565 49.0356 238.744 48.8988 238.922C48.8923 238.938 48.8815 238.948 48.8693 238.96C48.4164 239.549 47.9657 240.139 47.5185 240.733C48.0657 241.467 48.4711 242.333 48.8628 243.159C49.253 243.98 49.5921 244.828 49.9046 245.681C50.5519 247.447 50.9861 249.29 51.3554 251.132C51.3669 251.187 51.2813 251.212 51.2712 251.157C50.922 249.324 50.3481 247.555 49.6865 245.813C49.3488 244.923 48.9636 244.056 48.5669 243.191C48.2054 242.404 47.7677 241.648 47.4293 240.852C47.039 241.371 46.6502 241.892 46.2686 242.417C46.1577 242.569 46.0519 242.726 45.9417 242.878C45.9583 242.912 45.9482 242.956 45.9036 242.958C45.8978 242.958 45.8913 242.958 45.8856 242.958C44.6904 244.626 43.5521 246.334 42.4461 248.063C42.521 248.175 42.5534 248.311 42.5981 248.442C42.6693 248.651 42.7356 248.863 42.7975 249.075C42.9213 249.502 43.0221 249.934 43.1013 250.371C43.1755 250.781 43.2338 251.194 43.2749 251.609C43.3202 252.066 43.2763 252.572 43.3793 253.017C43.3951 253.088 43.2821 253.092 43.2943 253.02C43.3627 252.604 43.2554 252.12 43.1978 251.706C43.1345 251.256 43.0509 250.81 42.9473 250.368C42.8537 249.968 42.7457 249.57 42.6269 249.177C42.5671 248.98 42.5037 248.784 42.4368 248.59C42.4008 248.487 42.3504 248.378 42.3158 248.269C41.7981 249.081 41.2848 249.896 40.7793 250.717C39.7778 252.343 38.7849 253.976 37.7863 255.604C37.733 255.685 37.6027 255.614 37.6524 255.531Z" fill="#263238"/>
<path d="M64.4853 277.87C64.5307 276.221 64.7913 274.561 64.9692 272.922C65.1477 271.274 65.3349 269.629 65.5106 267.981C65.8497 264.807 66.0384 261.56 66.785 258.448C67.4273 255.771 68.6066 253.207 70.6629 251.319C71.7033 250.364 73.026 249.582 74.466 249.504C75.9391 249.424 77.297 249.934 78.5045 250.749C79.8797 251.677 80.9402 252.992 81.9007 254.327C82.8907 255.703 83.7662 257.124 84.5489 258.628C84.5784 258.685 84.4891 258.72 84.4589 258.666C83.0138 256.161 81.0216 254 78.7298 252.246C77.6743 251.439 76.4625 250.833 75.1183 250.742C73.7849 250.65 72.5969 251.287 71.6169 252.138C69.6945 253.809 68.5814 256.267 67.919 258.682C67.1335 261.544 66.8793 264.555 66.4869 267.488C66.2537 269.232 66.0312 270.977 65.8015 272.722C65.5725 274.457 65.4278 276.237 65.0592 277.948C64.9793 278.317 64.4753 278.24 64.4853 277.87Z" fill="#263238"/>
<path d="M72.5947 265.067C73.0699 265.731 73.6769 266.335 74.3882 266.898C74.1168 265.289 73.7892 262.431 74.6013 260.909C75.8621 258.546 77.3553 259.724 76.6037 261.779C75.5201 264.712 75.3782 266.694 75.389 267.605C76.9874 268.657 78.9163 269.507 80.8653 270.188C80.6925 269.397 80.5838 268.415 80.6853 267.369C80.9373 264.843 82.872 264.89 82.3687 267.518C82.1484 268.655 82.1016 269.748 82.1037 270.605C86.5166 271.989 90.6386 272.529 90.6386 272.529C92.2817 270.341 93.4344 268.238 94.1709 266.241C92.1146 265.725 87.9501 265.609 88.0394 264.139C88.1575 262.161 92.1917 263.684 94.5511 265.118C95.1314 263.225 95.3352 261.438 95.2639 259.798C94.3423 259.496 92.6388 259.122 89.5917 258.858C85.3567 258.492 85.5648 256.091 88.6341 256.147C90.8985 256.188 93.762 257.574 95.1192 258.294C94.2357 252.534 89.8416 248.843 86.3186 248.702C80.3959 248.463 82.5271 255.834 82.5271 255.834C82.5271 255.834 78.5145 253.01 74.7266 253.084C70.9481 253.166 68.5447 259.433 72.5947 265.067ZM88.4138 254.412C88.2821 253.583 90.9252 253.384 91.0627 254.447C91.2211 255.642 88.5477 255.256 88.4138 254.412ZM92.6669 263.059C92.6121 262.516 93.7533 262.422 94.0118 263.105C94.1839 263.55 92.7122 263.594 92.6669 263.059ZM78.4447 263.563C79.3375 263.689 79.8451 266.881 78.3086 266.818C77.1365 266.769 77.688 263.456 78.4447 263.563Z" fill="url(#paint2_radial_50_1852)"/>
<path d="M79.6802 267.108C79.8278 266.71 79.9596 266.307 80.0841 265.901C79.9689 266.312 79.8667 266.723 79.7897 267.138C79.7753 267.219 79.6507 267.187 79.6802 267.108Z" fill="#263238"/>
<path d="M81.2434 261.978C81.5213 261.16 81.8323 260.351 82.1506 259.548C82.3205 259.119 82.4962 258.693 82.6841 258.272C82.8425 257.917 82.9742 257.514 83.2118 257.204C83.0304 256.864 82.8605 256.52 82.7323 256.17C82.7201 256.136 82.7626 256.111 82.7863 256.139C83.2385 256.666 83.5877 257.33 83.9405 257.928C84.1054 258.207 84.2616 258.492 84.4229 258.772C84.7548 258.793 85.0932 258.867 85.4194 258.927C85.7743 258.992 86.1286 259.064 86.4806 259.144C86.8327 259.223 87.1848 259.304 87.5362 259.389C87.8846 259.472 88.2324 259.588 88.5859 259.642C88.668 259.654 88.6342 259.784 88.5564 259.752C88.2058 259.611 87.817 259.544 87.4483 259.464C87.1078 259.391 86.7672 259.33 86.423 259.281C86.0789 259.232 85.734 259.189 85.3877 259.155C85.1292 259.129 84.8657 259.115 84.6043 259.091C84.7454 259.34 84.8923 259.585 85.0298 259.837C85.0514 259.876 85.0709 259.916 85.0925 259.956C85.3776 259.932 85.6627 260.006 85.9435 260.056C86.2495 260.111 86.5548 260.169 86.8586 260.236C87.4764 260.373 88.092 260.519 88.7018 260.689C89.9834 261.047 91.2492 261.456 92.5135 261.869C92.5841 261.892 92.5394 261.999 92.4696 261.975C91.2153 261.547 89.9338 261.204 88.6406 260.913C88.0344 260.776 87.4289 260.637 86.8212 260.511C86.5166 260.448 86.2128 260.381 85.9082 260.317C85.6735 260.267 85.4273 260.239 85.2005 260.161C85.8521 261.364 86.4662 262.588 87.03 263.836C88.2583 266.554 89.2922 269.354 90.3456 272.142C90.3722 272.211 90.2642 272.257 90.2398 272.187C89.2555 269.4 88.0121 266.718 86.7118 264.067C86.4749 263.585 86.2315 263.106 85.9925 262.626C85.973 262.724 85.9486 262.822 85.9298 262.92C85.8686 263.25 85.8103 263.579 85.7549 263.91C85.644 264.571 85.531 265.231 85.4323 265.893C85.2329 267.234 84.9089 268.649 84.955 270.009C84.9578 270.095 84.8282 270.09 84.8412 270.009C84.9478 269.354 84.947 268.668 84.9888 268.005C85.032 267.312 85.0831 266.619 85.163 265.929C85.2408 265.264 85.3258 264.599 85.4352 263.939C85.4899 263.609 85.5482 263.279 85.6087 262.95C85.6526 262.71 85.6634 262.439 85.7945 262.233C85.4474 261.537 85.104 260.84 84.7526 260.146C84.4236 259.495 84.091 258.846 83.7526 258.2C83.6093 257.927 83.4545 257.651 83.3018 257.373C83.2154 257.715 83.0405 258.045 82.9087 258.37C82.7575 258.744 82.6042 259.117 82.4508 259.49C82.1117 260.317 81.7956 261.151 81.4795 261.987C81.0324 263.172 80.537 264.386 80.1684 265.618C80.532 264.405 80.838 263.172 81.2434 261.978Z" fill="#263238"/>
<path d="M80.0841 265.9C80.1108 265.805 80.1417 265.71 80.1698 265.615C80.1417 265.71 80.1137 265.806 80.0841 265.9Z" fill="#263238"/>
<path d="M54.5825 274.663L54.9993 283.481L56.0707 306.204H79.5153L80.5874 283.481L81.0043 274.663H54.5825Z" fill="#37474F"/>
<path d="M54.5825 274.663L54.9993 283.481H80.5874L81.0043 274.663H54.5825Z" fill="#263238"/>
<path d="M52.9156 278.228H82.671V271.099H52.9156V278.228Z" fill="#37474F"/>
<path d="M77.6174 306.204H73.5019V309.936H77.6174V306.204Z" fill="#37474F"/>
<path d="M77.6174 306.204H73.5019V308.07H77.6174V306.204Z" fill="#263238"/>
<path d="M62.0805 306.204H57.9686V309.936H62.0805V306.204Z" fill="#37474F"/>
<path d="M62.0805 306.204H57.9686V308.07H62.0805V306.204Z" fill="#263238"/>
<path d="M190.062 294.09H151.433V296.474H190.062V294.09Z" fill="#C7C7C7"/>
<path d="M186.839 211.203L187.044 222.496L188.349 294.09L188.392 296.474L188.966 327.901H191.151L191.726 296.474L191.768 294.09L193.074 222.496L193.28 211.203H186.839Z" fill="#C7C7C7"/>
<path d="M193.28 211.203H186.839L187.044 222.496H193.074L193.28 211.203Z" fill="#A6A6A6"/>
<path d="M148.213 211.203L148.419 222.496L150.342 327.901H152.526L153.101 296.474L153.143 294.09L154.449 222.496L154.655 211.203H148.213Z" fill="#C7C7C7"/>
<path d="M148.213 211.203L148.419 222.496H154.449L154.655 211.203H148.213Z" fill="#A6A6A6"/>
<path d="M209.351 294.09H171.431V296.474H209.351V294.09Z" fill="#C7C7C7"/>
<path d="M206.133 211.203L206.339 222.496L207.644 294.09L207.687 296.474L208.261 327.901H210.446L212.368 222.496L212.574 211.203H206.133Z" fill="#C7C7C7"/>
<path d="M212.574 211.203H206.133L206.339 222.496H212.368L212.574 211.203Z" fill="#A6A6A6"/>
<path d="M168.21 211.203L168.416 222.496L169.721 294.09L169.764 296.474L170.338 327.901H172.524L173.098 296.474L173.141 294.09L174.446 222.496L174.651 211.203H168.21Z" fill="#C7C7C7"/>
<path d="M174.651 211.203H168.21L168.416 222.496H174.446L174.651 211.203Z" fill="#A6A6A6"/>
<path d="M215.135 197.285H144.865V211.846H215.135V197.285Z" fill="url(#paint3_radial_50_1852)"/>
<path opacity="0.1" d="M215.135 197.285H159.537V211.846H215.135V197.285Z" fill="#263238"/>
<path d="M351.005 142.485C351.005 167.323 330.87 187.456 306.033 187.456C281.195 187.456 261.061 167.321 261.061 142.484C261.061 117.647 281.196 97.5125 306.033 97.5125C330.87 97.5125 351.005 117.647 351.005 142.485Z" fill="white"/>
<path d="M288.112 121.388C286.464 121.388 285.536 120.18 285.536 118.636C285.536 117.092 286.464 115.884 288.112 115.884C289.296 115.884 290.112 116.492 290.488 117.54L289.704 118.116C289.536 117.308 289.04 116.74 288.12 116.74C287.016 116.74 286.496 117.524 286.496 118.636C286.496 119.74 287.016 120.532 288.12 120.532C289.04 120.532 289.536 119.956 289.704 119.156L290.488 119.732C290.112 120.772 289.296 121.388 288.112 121.388ZM293.574 121.396C291.998 121.396 290.934 120.188 290.934 118.636C290.934 117.092 291.998 115.884 293.574 115.884C295.142 115.884 296.214 117.092 296.214 118.636C296.214 120.188 295.142 121.396 293.574 121.396ZM293.582 120.532C294.702 120.532 295.27 119.748 295.27 118.636C295.27 117.532 294.702 116.74 293.582 116.74C292.462 116.74 291.886 117.532 291.886 118.636C291.886 119.748 292.462 120.532 293.582 120.532ZM297.967 121.324H297.063V115.964H297.903L300.071 119.084L300.599 119.924L300.543 118.908V115.964H301.447V121.324H300.615L298.391 118.156L297.903 117.396L297.967 118.372V121.324ZM304.869 121.388C303.221 121.388 302.293 120.18 302.293 118.636C302.293 117.092 303.221 115.884 304.869 115.884C306.053 115.884 306.869 116.492 307.245 117.54L306.461 118.116C306.293 117.308 305.797 116.74 304.877 116.74C303.773 116.74 303.253 117.524 303.253 118.636C303.253 119.74 303.773 120.532 304.877 120.532C305.797 120.532 306.293 119.956 306.461 119.156L307.245 119.732C306.869 120.772 306.053 121.388 304.869 121.388ZM311.761 121.324H307.969V115.964H311.761V116.764H308.873V118.188H311.265V118.988H308.873V120.524H311.761V121.324ZM313.366 121.324H312.462V115.964H314.878C315.966 115.964 316.782 116.524 316.782 117.628C316.782 118.524 316.166 119.052 315.326 119.148C315.646 119.244 315.862 119.444 316.054 119.78L316.966 121.324H315.926L314.998 119.732C314.798 119.372 314.526 119.244 314.022 119.244H313.366V121.324ZM314.79 116.764H313.366V118.508H314.79C315.358 118.508 315.846 118.3 315.846 117.652C315.846 116.972 315.358 116.764 314.79 116.764ZM319.426 121.324H318.522V116.764H316.882V115.964H321.074V116.764H319.426V121.324ZM323.583 121.404C322.559 121.404 321.623 121.036 321.207 120.132L321.847 119.484C322.135 120.268 322.943 120.572 323.599 120.572C324.135 120.572 324.567 120.38 324.567 119.892C324.567 119.372 324.135 119.228 323.439 119.076L322.935 118.964C322.175 118.804 321.367 118.46 321.367 117.444C321.367 116.436 322.239 115.892 323.247 115.892C324.231 115.892 325.015 116.3 325.399 117.036L324.719 117.684C324.423 117.02 323.847 116.732 323.191 116.732C322.679 116.732 322.311 116.972 322.311 117.38C322.311 117.852 322.679 118.02 323.263 118.164L323.863 118.308C324.719 118.516 325.487 118.852 325.487 119.876C325.487 120.844 324.671 121.404 323.583 121.404Z" fill="black"/>
<path d="M351.005 142.485C351.007 148.373 349.863 154.262 347.614 159.709C345.373 165.157 342.045 170.157 337.886 174.338C333.724 178.515 328.754 181.897 323.305 184.182C317.86 186.478 311.954 187.675 306.033 187.718C300.112 187.74 294.18 186.608 288.686 184.361C283.194 182.121 278.136 178.791 273.916 174.6C269.705 170.403 266.325 165.373 264.039 159.879C261.745 154.388 260.561 148.44 260.539 142.485C260.558 136.529 261.744 130.58 264.038 125.089C266.325 119.595 269.705 114.566 273.916 110.367C278.132 106.173 283.194 102.847 288.686 100.605C294.18 98.3594 300.112 97.2276 306.034 97.2496C311.955 97.2925 317.861 98.4892 323.306 100.785C328.755 103.071 333.727 106.453 337.887 110.63C342.046 114.812 345.374 119.811 347.615 125.26C349.863 130.707 351.007 136.596 351.005 142.485ZM351.005 142.485C350.982 136.596 349.811 130.718 347.544 125.29C345.284 119.86 341.941 114.888 337.778 110.739C333.608 106.596 328.608 103.305 323.178 101.092C317.748 98.8724 311.886 97.7542 306.033 97.7762C300.179 97.8191 294.343 99.0022 288.961 101.272C283.576 103.53 278.664 106.875 274.55 111.002C270.439 115.135 267.15 120.077 264.936 125.462C262.713 130.844 261.586 136.665 261.584 142.485C261.582 148.306 262.712 154.125 264.934 159.508C267.147 164.893 270.438 169.835 274.549 173.969C278.66 178.099 283.575 181.441 288.96 183.7C294.342 185.97 300.178 187.153 306.033 187.196C311.887 187.218 317.749 186.099 323.179 183.88C328.608 181.665 333.609 178.375 337.779 174.23C341.942 170.081 345.284 165.109 347.545 159.679C349.811 154.252 350.982 148.372 351.005 142.485Z" fill="#263238"/>
<path d="M303.501 143.522C303.179 142.396 301.331 136.998 296.856 137.255C291.253 137.578 290.088 141.725 287.515 143.519C282.477 147.032 270.601 143.229 263.188 150.52C255.773 157.812 259.797 168.331 263.92 174.243C268.043 180.155 276.406 187.934 284.689 184.506C292.73 181.177 293.34 173.556 297.023 170.259C300.379 167.255 311.948 163.833 312.027 158.583C312.079 155.082 308.499 156.394 307.109 154.964C305.791 153.608 306.839 151.701 306.831 150.824C306.815 148.829 303.501 143.522 303.501 143.522Z" fill="url(#paint4_radial_50_1852)"/>
<path opacity="0.1" d="M288.038 162.307L292.747 158.734C292.747 158.734 295.496 159.939 297.998 158.347C300.501 156.754 300.426 153.703 300.426 153.703L301.538 153.009C301.538 153.009 302.588 154.014 302.941 155.839C303.603 159.267 298.86 168.829 292.652 168.284C287.792 167.858 288.038 162.307 288.038 162.307Z" fill="black"/>
<path d="M300.33 151.828C301.472 154.7 300.069 157.953 297.197 159.095C294.325 160.238 291.072 158.835 289.93 155.963C288.788 153.091 290.191 149.838 293.062 148.696C295.934 147.553 299.187 148.956 300.33 151.828Z" fill="#455A64"/>
<path d="M299.075 152.326C299.941 154.505 298.877 156.974 296.699 157.841C294.52 158.707 292.051 157.643 291.184 155.464C290.317 153.286 291.382 150.817 293.561 149.95C295.74 149.083 298.21 150.148 299.075 152.326Z" fill="#263238"/>
<path d="M338.266 121.031L340.777 124.632L300.613 154.909L296.074 148.399L338.266 121.031Z" fill="#C7C7C7"/>
<path d="M285.435 166.038L280.172 158.491L278.179 159.88L283.442 167.428L285.435 166.038Z" fill="white"/>
<path d="M339.904 117.841L340.438 117.438L339.36 116.008L338.826 116.41L339.904 117.841Z" fill="#263238"/>
<path d="M340.358 116.057L339.553 114.988L337.769 116.332L338.574 117.401L340.358 116.057Z" fill="#263238"/>
<path d="M342.498 115.902L343.033 115.499L341.955 114.068L341.42 114.471L342.498 115.902Z" fill="#263238"/>
<path d="M342.995 114.098L342.19 113.03L340.406 114.373L341.211 115.442L342.995 114.098Z" fill="#263238"/>
<path d="M345.094 113.97L345.629 113.567L344.551 112.136L344.016 112.539L345.094 113.97Z" fill="#263238"/>
<path d="M345.558 112.167L344.753 111.099L342.97 112.442L343.775 113.511L345.558 112.167Z" fill="#263238"/>
<path d="M344.76 125.966L345.358 125.667L344.557 124.065L343.959 124.364L344.76 125.966Z" fill="#263238"/>
<path d="M343.758 125.711L344.357 126.908L346.354 125.909L345.756 124.712L343.758 125.711Z" fill="#263238"/>
<path d="M347.65 124.501L348.249 124.202L347.448 122.6L346.849 122.899L347.65 124.501Z" fill="#263238"/>
<path d="M346.652 124.251L347.25 125.448L349.248 124.449L348.649 123.252L346.652 124.251Z" fill="#263238"/>
<path d="M350.519 123.052L351.118 122.753L350.317 121.15L349.719 121.449L350.519 123.052Z" fill="#263238"/>
<path d="M349.529 122.816L350.127 124.012L352.125 123.014L351.526 121.817L349.529 122.816Z" fill="#263238"/>
<path d="M353.013 117.06L350.472 112.958C350.472 112.958 349.058 113.586 346.792 112.292L338.543 118.232L337.659 120.357L340.681 125.236L342.979 125.395L351.967 120.647C351.821 118.047 353.013 117.06 353.013 117.06ZM340.584 120.626L339.974 119.641L347.868 114.751L348.478 115.736L340.584 120.626ZM342.354 123.482L341.741 122.493L349.635 117.603L350.248 118.591L342.354 123.482Z" fill="url(#paint5_radial_50_1852)"/>
<path d="M278.797 160.76L287.325 155.014L295.88 149.309L306.597 142.249L323.768 130.929C329.495 127.161 333.261 124.678 339.015 120.949L339.002 120.967L339.943 117.226L339.062 120.982L339.059 120.993L339.048 121.001C333.372 124.845 329.608 127.333 323.905 131.135L306.783 142.53L296.005 149.498L287.414 155.149L278.797 160.76Z" fill="#263238"/>
<path d="M279.622 161.943L288.152 156.116L296.707 150.327L307.426 143.101C313.132 139.245 318.872 135.441 324.594 131.608C330.325 127.79 334.082 125.235 339.835 121.449L339.817 121.471L342.407 115.452L339.909 121.509L339.904 121.523L339.891 121.531C334.212 125.428 330.438 127.956 324.738 131.821C319.028 135.671 313.338 139.549 307.612 143.376L296.833 150.511L288.241 156.245L279.622 161.943Z" fill="#263238"/>
<path d="M345.613 113.542L340.415 121.928L340.407 121.941L340.395 121.949L325.301 132.399C319.612 136.304 313.949 140.247 308.239 144.121L297.529 151.432L288.971 157.255L280.389 163.041L288.885 157.129L297.406 151.252L308.057 143.854C313.732 139.929 319.454 136.073 325.151 132.178L340.314 121.831L340.293 121.852L345.613 113.542Z" fill="#263238"/>
<path d="M281.177 164.226L289.634 158.212L298.115 152.232L308.688 144.63C314.337 140.637 320.034 136.713 325.705 132.75L340.793 122.199L340.807 122.189L340.825 122.187L350.093 121.261L340.84 122.324L340.872 122.313L325.859 132.969C320.195 136.942 314.558 140.953 308.874 144.895L298.241 152.411L289.722 158.335L281.177 164.226Z" fill="#263238"/>
<path d="M347.306 122.985L340.786 122.962L340.816 122.952C335.259 127.012 331.603 129.704 326.025 133.733L309.259 145.781L298.839 153.409L290.426 159.391L281.986 165.334L290.334 159.262L298.709 153.227L309.067 145.51L325.876 133.524C331.489 129.542 335.124 126.822 340.759 122.871L340.773 122.861H340.788L347.306 122.985Z" fill="#263238"/>
<path d="M282.786 166.481L291.058 160.387L299.357 154.333L309.563 146.576L326.227 134.557C331.785 130.555 335.383 127.839 340.97 123.878L340.981 123.869L340.994 123.872L344.608 124.722L340.98 123.93L341.004 123.925C335.499 128 331.906 130.722 326.373 134.757L309.762 146.85L299.49 154.517L291.153 160.519L282.786 166.481Z" fill="#263238"/>
<path d="M94.8129 146.184C94.8129 171.024 74.6771 191.158 49.8389 191.158C24.9997 191.158 4.86487 171.022 4.86487 146.183C4.86487 121.345 25.0007 101.209 49.8389 101.209C74.6771 101.209 94.8129 121.345 94.8129 146.184Z" fill="white"/>
<path d="M31.7071 124.973H27.9151V119.613H31.7071V120.413H28.8191V121.837H31.2111V122.637H28.8191V124.173H31.7071V124.973ZM32.9769 124.973H31.8489L33.7369 122.205L31.9689 119.613H33.1129L34.3929 121.709L35.6969 119.613H36.7769L35.0169 122.253L36.8969 124.973H35.7609L34.3529 122.781L32.9769 124.973ZM38.1941 124.973H37.2901V119.613H38.1941V121.837H40.7701V119.613H41.6741V124.973H40.7701V122.637H38.1941V124.973ZM43.7722 124.973H42.8682V119.613H43.7722V124.973ZM47.3617 124.973H44.9697V119.613H47.4017C48.4897 119.613 49.0017 120.189 49.0017 120.981C49.0017 121.693 48.4417 122.117 47.5777 122.189C48.7937 122.285 49.2257 122.829 49.2257 123.549C49.2257 124.501 48.5137 124.973 47.3617 124.973ZM47.1297 120.413H45.8737V121.845H47.1617C47.6977 121.845 48.0657 121.677 48.0657 121.133C48.0657 120.589 47.6897 120.413 47.1297 120.413ZM47.2497 122.605H45.8737V124.173H47.2257C47.9617 124.173 48.2977 123.933 48.2977 123.389C48.2977 122.845 47.8737 122.605 47.2497 122.605ZM50.9909 124.973H50.0869V119.613H50.9909V124.973ZM53.911 124.973H53.007V120.413H51.367V119.613H55.559V120.413H53.911V124.973ZM56.8269 124.973H55.9229V119.613H56.8269V124.973ZM60.3166 125.045C58.7406 125.045 57.6766 123.837 57.6766 122.285C57.6766 120.741 58.7406 119.533 60.3166 119.533C61.8846 119.533 62.9566 120.741 62.9566 122.285C62.9566 123.837 61.8846 125.045 60.3166 125.045ZM60.3246 124.181C61.4446 124.181 62.0126 123.397 62.0126 122.285C62.0126 121.181 61.4446 120.389 60.3246 120.389C59.2046 120.389 58.6286 121.181 58.6286 122.285C58.6286 123.397 59.2046 124.181 60.3246 124.181ZM64.7097 124.973H63.8057V119.613H64.6457L66.8137 122.733L67.3417 123.573L67.2857 122.557V119.613H68.1897V124.973H67.3577L65.1337 121.805L64.6457 121.045L64.7097 122.021V124.973ZM71.3258 125.053C70.3018 125.053 69.3658 124.685 68.9498 123.781L69.5898 123.133C69.8778 123.917 70.6858 124.221 71.3418 124.221C71.8778 124.221 72.3098 124.029 72.3098 123.541C72.3098 123.021 71.8778 122.877 71.1818 122.725L70.6778 122.613C69.9178 122.453 69.1098 122.109 69.1098 121.093C69.1098 120.085 69.9818 119.541 70.9898 119.541C71.9738 119.541 72.7578 119.949 73.1418 120.685L72.4618 121.333C72.1658 120.669 71.5898 120.381 70.9338 120.381C70.4218 120.381 70.0538 120.621 70.0538 121.029C70.0538 121.501 70.4218 121.669 71.0058 121.813L71.6058 121.957C72.4618 122.165 73.2298 122.501 73.2298 123.525C73.2298 124.493 72.4138 125.053 71.3258 125.053Z" fill="black"/>
<path d="M95.3896 146.184C95.3917 152.073 94.2472 157.963 91.9982 163.409C89.7575 168.858 86.4289 173.858 82.27 178.04C78.108 182.216 73.1376 185.598 67.6877 187.884C62.243 190.18 56.3366 191.377 50.4145 191.42C44.4934 191.442 38.5608 190.31 33.068 188.063C27.5751 185.823 22.5168 182.493 18.2972 178.302C14.086 174.104 10.705 169.074 8.4193 163.58C6.12521 158.088 4.94099 152.14 4.91901 146.184C4.93785 140.229 6.12416 134.279 8.41825 128.787C10.705 123.294 14.086 118.264 18.2972 114.065C22.5137 109.87 27.5751 106.544 33.068 104.302C38.5618 102.056 44.4944 100.924 50.4166 100.946C56.3387 100.989 62.2451 102.186 67.6898 104.482C73.1397 106.768 78.1111 110.15 82.2721 114.328C86.431 118.51 89.7596 123.509 92.0003 128.958C94.2472 134.406 95.3917 140.296 95.3896 146.184ZM95.3896 146.184C95.3665 140.296 94.1959 134.416 91.928 128.989C89.6685 123.559 86.3252 118.586 82.1622 114.437C77.9917 110.293 72.991 107.003 67.561 104.789C62.131 102.569 56.2686 101.451 50.4145 101.473C44.5594 101.516 38.7231 102.699 33.3423 104.969C27.9552 107.228 23.0445 110.572 18.9296 114.699C14.8189 118.833 11.529 123.775 9.31558 129.16C7.09269 134.543 5.96501 140.364 5.96292 146.184C5.96083 152.006 7.09164 157.825 9.31349 163.208C11.527 168.594 14.8178 173.536 18.9286 177.67C23.0403 181.801 27.9552 185.143 33.3412 187.403C38.7231 189.673 44.5594 190.856 50.4145 190.899C56.2696 190.921 62.132 189.801 67.5621 187.582C72.991 185.367 77.9928 182.077 82.1622 177.932C86.3252 173.782 89.6674 168.81 91.928 163.38C94.1959 157.952 95.3665 152.072 95.3896 146.184Z" fill="#263238"/>
<path d="M10.8914 166.537L11.0379 167.441L11.3552 169.343L11.4295 169.803C13.9414 178.95 90.6914 159.457 86.766 145.994L86.4226 143.773C86.4226 143.723 86.4163 143.683 86.4079 143.635L86.3503 143.28L86.3252 143.276L83.9358 142.944C73.7574 137.675 40.1439 144.159 22.8456 151.44L15.4366 152.469L15.4125 152.473C15.4125 152.473 15.4178 152.505 15.4272 152.562L15.4418 152.651C15.5413 153.314 15.8994 155.574 16.0167 155.679C16.9109 156.593 22.6246 156.345 25.4757 156.975C26.3521 157.172 26.9521 157.448 27.0777 157.866C27.7531 160.191 16.8564 163.094 12.8221 166.697L11.0086 166.544L10.8914 166.537ZM43.417 151.262C43.7007 152.599 41.2695 154.252 37.9964 154.948C34.7149 155.647 31.8324 155.129 31.5476 153.785C31.2639 152.448 33.6867 150.797 36.9598 150.099C40.2423 149.402 43.1249 149.918 43.417 151.262Z" fill="url(#paint6_radial_50_1852)"/>
<path d="M10.9887 167.135L11.0379 167.442C11.0421 167.466 11.0547 167.497 11.0589 167.521C13.599 176.945 88.4067 157.776 86.4225 143.774C86.4225 143.724 86.4163 143.684 86.4079 143.636C86.388 143.514 86.3608 143.395 86.3252 143.277L86.3189 143.236C82.9474 131.447 32.5988 141.75 16.6899 151.314C15.8816 151.792 15.4973 152.179 15.4366 152.47C15.4261 152.504 15.4219 152.53 15.4272 152.562C15.424 152.595 15.4293 152.628 15.4418 152.651C15.8292 154.169 26.0778 153.241 26.6432 155.195C26.8013 155.757 26.3343 156.354 25.4747 156.975C21.9189 159.556 11.6358 162.667 11.0076 166.544C10.974 166.739 10.9636 166.932 10.9887 167.135ZM37.9964 154.949C34.7149 155.648 31.8324 155.13 31.5476 153.786C31.2638 152.449 33.6867 150.798 36.9598 150.1C40.2413 149.402 43.1238 149.919 43.4159 151.262C43.7007 152.599 41.2695 154.252 37.9964 154.949Z" fill="url(#paint7_radial_50_1852)"/>
<path opacity="0.2" d="M10.9887 167.135L11.0379 167.442C11.0421 167.466 11.0547 167.497 11.0589 167.521C13.599 176.945 88.4067 157.776 86.4225 143.774C86.4225 143.724 86.4163 143.684 86.4079 143.636C86.388 143.514 86.3608 143.395 86.3252 143.277L86.3189 143.236C82.9474 131.447 32.5988 141.75 16.6899 151.314C15.8816 151.792 15.4973 152.179 15.4366 152.47C15.4261 152.504 15.4219 152.53 15.4272 152.562C15.424 152.595 15.4293 152.628 15.4418 152.651C15.8292 154.169 26.0778 153.241 26.6432 155.195C26.8013 155.757 26.3343 156.354 25.4747 156.975C21.9189 159.556 11.6358 162.667 11.0076 166.544C10.974 166.739 10.9636 166.932 10.9887 167.135ZM41.2182 153.83C40.325 154.298 39.2204 154.684 37.9974 154.949C34.716 155.648 31.8334 155.13 31.5486 153.786C31.4554 153.362 31.645 152.901 32.0449 152.455C32.8983 151.489 34.7296 150.579 36.9619 150.1C40.2433 149.402 43.1259 149.919 43.418 151.262C43.595 152.102 42.7071 153.058 41.2182 153.83Z" fill="black"/>
<path d="M32.0439 152.455C32.9287 151.989 34.0333 151.602 35.2573 151.337C38.5388 150.638 41.4213 151.156 41.7134 152.499C41.8066 152.923 41.6171 153.384 41.2171 153.83C42.7061 153.058 43.5939 152.102 43.417 151.262C43.1249 149.919 40.2423 149.402 36.9609 150.1C34.7286 150.578 32.8973 151.489 32.0439 152.455Z" fill="#FFC727"/>
<path d="M34.6888 158.861C35.7997 158.776 36.9462 158.908 37.8592 159.49C38.9492 160.186 39.2162 161.475 38.3199 162.459C36.496 164.457 30.6649 165.738 29.1802 162.647C27.8316 159.841 31.8659 158.887 34.6888 158.861Z" fill="#455A64"/>
<path d="M49.4218 159.456C49.314 159.446 49.1946 159.43 49.07 159.41C48.6784 159.377 48.2994 159.318 47.956 159.189C47.5644 159.041 47.2544 158.822 47.023 158.565C46.8304 158.382 46.6953 158.172 46.6608 157.928C46.4838 157.338 46.6608 156.658 47.3131 156.058C48.1486 155.288 49.3391 155.086 50.3579 154.635C51.8489 153.975 52.7075 152.75 54.3702 152.451C56.2046 152.12 58.5574 152.511 59.3563 154.036C61.4839 158.093 52.0594 159.688 49.4218 159.456Z" fill="#D300FF"/>
<path d="M51.7275 143.759C50.5411 146.389 54.2959 147.22 56.0947 146.937C57.7428 146.672 62.9309 145.606 61.9676 142.983C61.4012 141.403 59.527 141.33 57.8517 141.715C55.501 141.556 52.54 141.95 51.7275 143.759Z" fill="#263238"/>
<path d="M76.6777 142.774C79.4042 144.645 77.3143 148.085 75.0579 149.171C73.3878 149.969 71.2581 150.464 69.4384 150.82C68.2164 151.052 66.8155 150.92 66.1768 149.69C64.9486 147.28 67.2102 145.608 69.453 144.617C71.6539 142.832 74.5029 141.277 76.6777 142.774Z" fill="#EBEBEB"/>
<path d="M40.7857 145.913C40.7857 145.913 32.914 139.142 25.0747 131.772C17.2344 124.401 -2.7999 112.033 -3.62079 112.387C-4.44168 112.743 13.0849 129.16 21.6299 135.451C30.1749 141.742 39.2288 147.557 39.2288 147.557L40.7857 145.913Z" fill="#455A64"/>
<path d="M40.7941 145.422L34.9212 139.884L32.2523 143.342L38.901 147.703L40.7941 145.422Z" fill="#EBEBEB"/>
<path d="M40.7941 145.422C42.9416 145.732 45.3425 146.054 47.1277 149.023C49.2846 152.607 52.0007 153.053 52.0007 153.053C52.0007 153.053 42.7165 155.41 38.9 147.702L40.7941 145.422Z" fill="#263238"/>
<path d="M52.387 153.162C52.0562 152.673 49.5223 152.242 48.2135 150.393C46.9811 148.651 41.9375 152.543 44.8011 153.31C48.0543 154.181 52.9954 154.061 52.387 153.162Z" fill="#D300FF"/>
<path d="M163.445 54.9676C163.445 79.8071 143.309 99.9421 118.47 99.9421C93.6316 99.9421 73.4955 79.806 73.4955 54.9665C73.4955 30.128 93.6316 9.99194 118.47 9.99194C143.309 9.99194 163.445 30.128 163.445 54.9676Z" fill="white"/>
<path d="M163.445 54.9675C163.447 60.8562 162.302 66.7449 160.053 72.1928C157.812 77.6417 154.484 82.6415 150.325 86.8234C146.163 91.0002 141.192 94.3822 135.742 96.6679C130.298 98.9641 124.391 100.161 118.47 100.204C112.548 100.226 106.616 99.094 101.122 96.848C95.6294 94.6073 90.571 91.2776 86.3513 87.0862C82.1411 82.8886 78.7591 77.8585 76.4733 72.3645C74.1792 66.8727 72.995 60.9243 72.973 54.9686C72.9918 49.0129 74.1782 43.0635 76.4723 37.5716C78.7591 32.0777 82.14 27.0476 86.3513 22.8489C90.5679 18.6543 95.6294 15.3267 101.122 13.086C106.616 10.8401 112.549 9.70818 118.471 9.73017C124.393 9.7731 130.3 10.9699 135.744 13.2672C141.194 15.5529 146.166 18.9349 150.327 23.1127C154.486 27.2947 157.815 32.2944 160.055 37.7433C162.302 43.1891 163.447 49.0789 163.445 54.9675ZM163.445 54.9675C163.422 49.0789 162.251 43.1996 159.983 37.7716C157.723 32.3415 154.38 27.369 150.218 23.2195C146.048 19.0752 141.046 15.7854 135.617 13.5719C130.187 11.3521 124.324 10.2338 118.47 10.2558C112.615 10.2987 106.779 11.4819 101.398 13.752C96.0105 16.0105 91.0998 19.3548 86.9848 23.4823C82.874 27.6161 79.5842 32.5583 77.3707 37.9433C75.1477 43.3263 74.0201 49.1469 74.018 54.9675C74.0159 60.7892 75.1467 66.6088 77.3686 71.9928C79.5821 77.3779 82.873 82.32 86.9838 86.4549C91.0956 90.5855 96.0105 93.9278 101.397 96.1873C106.779 98.4574 112.615 99.6405 118.47 99.6835C124.325 99.7055 130.188 98.5862 135.618 96.3664C141.047 94.1518 146.049 90.862 150.218 86.7166C154.381 82.5671 157.723 77.5946 159.984 72.1645C162.251 66.7355 163.422 60.8552 163.445 54.9675Z" fill="#263238"/>
<path d="M100.491 35.3243H99.5866V29.9643H100.699L101.851 32.3163L102.379 33.6843L102.915 32.3163L104.067 29.9643H105.171V35.3243H104.267V32.8043L104.379 31.0363L103.763 32.5723L102.835 34.4203H101.923L100.995 32.5723L100.363 31.0363L100.491 32.8043V35.3243ZM110.16 35.3243H106.368V29.9643H110.16V30.7643H107.272V32.1883H109.664V32.9883H107.272V34.5243H110.16V35.3243ZM114.652 35.3243H110.86V29.9643H114.652V30.7643H111.764V32.1883H114.156V32.9883H111.764V34.5243H114.652V35.3243ZM117.411 35.3243H116.507V30.7643H114.867V29.9643H119.059V30.7643H117.411V35.3243ZM120.327 35.3243H119.423V29.9643H120.327V35.3243ZM122.428 35.3243H121.524V29.9643H122.364L124.532 33.0843L125.06 33.9243L125.004 32.9083V29.9643H125.908V35.3243H125.076L122.852 32.1563L122.364 31.3963L122.428 32.3723V35.3243ZM128.954 35.3883C127.578 35.3883 126.754 34.3403 126.754 32.6363C126.754 31.0603 127.674 29.8843 129.338 29.8843C130.466 29.8843 131.298 30.4283 131.666 31.3963L130.882 31.9563C130.722 31.2683 130.21 30.7403 129.346 30.7403C128.226 30.7403 127.714 31.5243 127.714 32.6363C127.714 33.7723 128.234 34.5403 129.29 34.5403C130.194 34.5403 130.594 34.0523 130.786 33.3083H129.242V32.5483H131.69V35.3243H131.114L130.866 33.3083C130.826 34.5163 130.146 35.3883 128.954 35.3883ZM134.708 35.4043C133.684 35.4043 132.748 35.0363 132.332 34.1323L132.972 33.4843C133.26 34.2683 134.068 34.5723 134.724 34.5723C135.26 34.5723 135.692 34.3803 135.692 33.8923C135.692 33.3723 135.26 33.2283 134.564 33.0763L134.06 32.9643C133.3 32.8043 132.492 32.4603 132.492 31.4443C132.492 30.4363 133.364 29.8923 134.372 29.8923C135.356 29.8923 136.14 30.3003 136.524 31.0363L135.844 31.6843C135.548 31.0203 134.972 30.7323 134.316 30.7323C133.804 30.7323 133.436 30.9723 133.436 31.3803C133.436 31.8523 133.804 32.0203 134.388 32.1643L134.988 32.3083C135.844 32.5163 136.612 32.8523 136.612 33.8763C136.612 34.8443 135.796 35.4043 134.708 35.4043Z" fill="black"/>
<path d="M308.175 56.1837C308.175 81.0232 288.039 101.158 263.201 101.158C238.361 101.158 218.226 81.0222 218.226 56.1827C218.226 31.3442 238.362 11.2081 263.201 11.2081C288.039 11.2081 308.175 31.3442 308.175 56.1837Z" fill="white"/>
<path d="M308.175 56.1837C308.177 62.0724 307.033 67.9611 304.784 73.409C302.543 78.8579 299.215 83.8576 295.056 88.0396C290.894 92.2164 285.923 95.5984 280.473 97.8841C275.028 100.18 269.122 101.377 263.2 101.42C257.278 101.442 251.346 100.31 245.852 98.0642C240.359 95.8235 235.301 92.4938 231.081 88.3024C226.87 84.1047 223.489 79.0747 221.203 73.5807C218.909 68.0889 217.726 62.1405 217.703 56.1848C217.722 50.2291 218.908 44.2797 221.202 38.7878C223.489 33.2939 226.87 28.2638 231.081 24.065C235.298 19.8705 240.359 16.5429 245.852 14.3022C251.346 12.0562 257.279 10.9244 263.201 10.9464C269.123 10.9893 275.029 12.1861 280.474 14.4833C285.924 16.7691 290.896 20.1511 295.057 24.3289C299.216 28.5109 302.544 33.5106 304.785 38.9595C307.033 44.4053 308.177 50.295 308.175 56.1837ZM308.175 56.1837C308.152 50.295 306.982 44.4158 304.714 38.9878C302.454 33.5577 299.111 28.5852 294.948 24.4357C290.777 20.2914 285.777 17.0015 280.346 14.788C274.916 12.5683 269.054 11.45 263.2 11.472C257.345 11.5149 251.508 12.6981 246.127 14.9681C240.741 17.2267 235.829 20.571 231.715 24.6985C227.604 28.8323 224.314 33.7745 222.1 39.1595C219.877 44.5425 218.75 50.3631 218.748 56.1837C218.746 62.0054 219.876 67.825 222.098 73.209C224.313 78.5941 227.603 83.5362 231.713 87.6711C235.825 91.8017 240.74 95.1439 246.126 97.4035C251.508 99.6735 257.345 100.857 263.2 100.9C269.055 100.922 274.917 99.8023 280.348 97.5826C285.777 95.368 290.778 92.0781 294.948 87.9328C299.111 83.7833 302.453 78.8108 304.714 73.3807C306.982 67.9517 308.152 62.0714 308.175 56.1837Z" fill="#263238"/>
<path d="M238.174 35.3883C236.526 35.3883 235.598 34.1803 235.598 32.6363C235.598 31.0923 236.526 29.8843 238.174 29.8843C239.358 29.8843 240.174 30.4923 240.55 31.5403L239.766 32.1163C239.598 31.3083 239.102 30.7403 238.182 30.7403C237.078 30.7403 236.558 31.5243 236.558 32.6363C236.558 33.7403 237.078 34.5323 238.182 34.5323C239.102 34.5323 239.598 33.9563 239.766 33.1563L240.55 33.7323C240.174 34.7723 239.358 35.3883 238.174 35.3883ZM243.637 35.3963C242.061 35.3963 240.997 34.1883 240.997 32.6363C240.997 31.0923 242.061 29.8843 243.637 29.8843C245.205 29.8843 246.277 31.0923 246.277 32.6363C246.277 34.1883 245.205 35.3963 243.637 35.3963ZM243.645 34.5323C244.765 34.5323 245.333 33.7483 245.333 32.6363C245.333 31.5323 244.765 30.7403 243.645 30.7403C242.525 30.7403 241.949 31.5323 241.949 32.6363C241.949 33.7483 242.525 34.5323 243.645 34.5323ZM248.03 35.3243H247.126V29.9643H247.966L250.134 33.0843L250.662 33.9243L250.606 32.9083V29.9643H251.51V35.3243H250.678L248.454 32.1563L247.966 31.3963L248.03 32.3723V35.3243ZM253.608 35.3243H252.704V29.9643H256.424V30.7643H253.608V32.4123H255.936V33.2123H253.608V35.3243ZM260.793 35.3243H257.001V29.9643H260.793V30.7643H257.905V32.1883H260.297V32.9883H257.905V34.5243H260.793V35.3243ZM262.397 35.3243H261.493V29.9643H263.909C264.997 29.9643 265.813 30.5243 265.813 31.6283C265.813 32.5243 265.197 33.0523 264.357 33.1483C264.677 33.2443 264.893 33.4443 265.085 33.7803L265.997 35.3243H264.957L264.029 33.7323C263.829 33.3723 263.557 33.2443 263.053 33.2443H262.397V35.3243ZM263.821 30.7643H262.397V32.5083H263.821C264.389 32.5083 264.877 32.3003 264.877 31.6523C264.877 30.9723 264.389 30.7643 263.821 30.7643ZM270.332 35.3243H266.54V29.9643H270.332V30.7643H267.444V32.1883H269.836V32.9883H267.444V34.5243H270.332V35.3243ZM271.936 35.3243H271.032V29.9643H271.872L274.04 33.0843L274.568 33.9243L274.512 32.9083V29.9643H275.416V35.3243H274.584L272.36 32.1563L271.872 31.3963L271.936 32.3723V35.3243ZM278.838 35.3883C277.19 35.3883 276.262 34.1803 276.262 32.6363C276.262 31.0923 277.19 29.8843 278.838 29.8843C280.022 29.8843 280.838 30.4923 281.214 31.5403L280.43 32.1163C280.262 31.3083 279.766 30.7403 278.846 30.7403C277.742 30.7403 277.222 31.5243 277.222 32.6363C277.222 33.7403 277.742 34.5323 278.846 34.5323C279.766 34.5323 280.262 33.9563 280.43 33.1563L281.214 33.7323C280.838 34.7723 280.022 35.3883 278.838 35.3883ZM285.73 35.3243H281.938V29.9643H285.73V30.7643H282.842V32.1883H285.234V32.9883H282.842V34.5243H285.73V35.3243ZM288.521 35.4043C287.497 35.4043 286.561 35.0363 286.145 34.1323L286.785 33.4843C287.073 34.2683 287.881 34.5723 288.537 34.5723C289.073 34.5723 289.505 34.3803 289.505 33.8923C289.505 33.3723 289.073 33.2283 288.377 33.0763L287.873 32.9643C287.113 32.8043 286.305 32.4603 286.305 31.4443C286.305 30.4363 287.177 29.8923 288.185 29.8923C289.169 29.8923 289.953 30.3003 290.337 31.0363L289.657 31.6843C289.361 31.0203 288.785 30.7323 288.129 30.7323C287.617 30.7323 287.249 30.9723 287.249 31.3803C287.249 31.8523 287.617 32.0203 288.201 32.1643L288.801 32.3083C289.657 32.5163 290.425 32.8523 290.425 33.8763C290.425 34.8443 289.609 35.4043 288.521 35.4043Z" fill="black"/>
<path d="M252.994 215.983C252.453 214.343 223.425 175.991 221.443 175.252C221.216 175.155 208.241 184.389 208.241 184.389C207.706 185.103 183.042 179.891 183.042 179.891L182.796 209.645L227.725 208.69C227.725 208.69 233.793 212.257 239.344 215.164C239.353 215.165 239.358 215.17 239.363 215.167C242.779 216.967 245.803 218.484 246.666 218.709C248.913 219.284 253.547 217.613 252.994 215.983Z" fill="#F7A9A0"/>
<path d="M246.666 218.709C245.8 218.487 242.78 216.969 239.365 215.166C239.358 215.173 239.351 215.166 239.344 215.166C233.797 212.26 227.727 208.688 227.727 208.688L217.727 208.902L202.073 183.643C205.509 184.251 208.071 184.616 208.243 184.387C208.243 184.387 221.213 175.154 221.442 175.254C223.425 175.991 252.449 214.343 252.993 215.981C253.545 217.614 248.914 219.288 246.666 218.709Z" fill="white"/>
<path d="M253.26 216.034C252.689 214.354 223.531 176.024 221.496 175.264C220.725 174.972 214.378 178.893 208.242 184.389L227.07 209.079C227.07 209.079 244.44 218.28 246.762 218.874C249.078 219.458 253.83 217.714 253.26 216.034Z" fill="url(#paint8_radial_50_1852)"/>
<path d="M251.308 216.65C246.262 210.345 226.507 184.437 221.999 177.821C221.962 177.767 221.998 177.74 222.039 177.79C227.177 183.93 246.722 209.997 251.414 216.57C251.513 216.709 251.415 216.783 251.308 216.65Z" fill="#263238"/>
<path d="M243.508 217.457C242.286 215.98 241.877 213.94 242.153 212.42C242.418 210.958 243.124 209.342 244.491 208.374C244.53 208.346 244.585 208.416 244.55 208.452C242.315 210.731 241.847 214.698 243.589 217.395C243.623 217.45 243.549 217.507 243.508 217.457Z" fill="#263238"/>
<path d="M229.247 210.604C227.254 208.06 225.894 204.388 226.782 201.19C226.817 201.066 226.992 201.116 227.011 201.223C227.581 204.459 228.369 207.349 229.597 210.408C229.684 210.623 229.389 210.787 229.247 210.604Z" fill="#263238"/>
<path d="M231.53 212.001C229.538 209.456 228.178 205.784 229.066 202.586C229.1 202.462 229.276 202.512 229.295 202.619C229.865 205.855 230.653 208.745 231.882 211.804C231.967 212.02 231.674 212.183 231.53 212.001Z" fill="#263238"/>
<path d="M233.815 213.397C231.823 210.853 230.463 207.181 231.35 203.983C231.384 203.859 231.56 203.909 231.579 204.016C232.149 207.252 232.937 210.142 234.165 213.201C234.252 213.417 233.958 213.58 233.815 213.397Z" fill="#263238"/>
<path d="M236.1 214.794C234.107 212.25 232.747 208.578 233.635 205.379C233.67 205.256 233.844 205.306 233.864 205.412C234.434 208.649 235.222 211.538 236.45 214.598C236.536 214.814 236.242 214.976 236.1 214.794Z" fill="#263238"/>
<path d="M217.141 184.1C214.955 181.208 219.445 177.805 221.635 180.701C223.821 183.594 219.331 186.996 217.141 184.1Z" fill="#263238"/>
<path d="M228.112 215.531C228.847 212.782 228.365 209.81 228.239 207.015C228.226 206.725 227.906 206.626 227.68 206.711C227.651 206.666 227.598 206.642 227.545 206.686C225.438 208.516 223.573 211.345 222.746 214.026C222.236 215.681 222.429 218.124 224.499 218.604C226.456 219.059 227.683 217.136 228.112 215.531ZM226.071 217.271C223.079 219.144 223.308 214.984 223.733 213.779C224.006 213.004 224.377 212.249 224.753 211.52C225.54 209.993 226.529 208.606 227.462 207.172C227.439 208.549 227.536 209.915 227.565 211.291C227.598 212.931 227.722 216.238 226.071 217.271Z" fill="#263238"/>
<path d="M218.958 198.801C217.432 200.28 218.526 202.471 219.817 203.627C221.907 205.498 224.963 206.961 227.712 207.442C227.78 207.454 227.813 207.405 227.815 207.352C228.054 207.309 228.276 207.058 228.138 206.803C226.805 204.343 225.685 201.548 223.639 199.57C222.443 198.417 220.401 197.402 218.958 198.801ZM225.354 203.487C226.039 204.681 226.661 205.901 227.39 207.069C225.852 206.32 224.289 205.642 222.828 204.739C222.13 204.308 221.422 203.852 220.789 203.33C219.804 202.515 217.463 199.07 220.993 199.132C222.939 199.166 224.539 202.064 225.354 203.487Z" fill="#263238"/>
<path d="M181.683 170.768H161.515C161.515 170.768 140.423 160.628 123.431 164.714C103.952 169.397 101.462 193.863 116.022 202.514C134.469 213.474 216.555 211.352 216.555 211.352L198.809 181.274C198.809 181.274 171.513 175.529 146.758 176.362L181.682 181.123V170.768H181.683Z" fill="#455A64"/>
<path d="M199.992 183.215C199.969 183.177 199.965 183.102 199.954 183.061C199.944 183.019 199.934 182.977 199.923 182.935C199.899 182.838 199.873 182.741 199.846 182.644C199.789 182.442 199.717 182.251 199.64 182.056C199.564 181.861 199.48 181.672 199.391 181.482C199.299 181.287 199.176 181.13 199.059 180.951C199.048 180.932 199.027 180.93 199.012 180.918C199.002 180.91 198.991 180.903 198.98 180.896C198.965 180.889 198.952 180.88 198.936 180.878C198.92 180.872 198.909 180.863 198.891 180.86C195.889 180.301 175.491 177.382 172.458 177.036C169.4 176.688 166.333 176.403 163.266 176.146C157.15 175.632 150.997 175.378 144.858 175.483C144.283 175.494 143.708 175.517 143.133 175.537C143.011 175.496 142.881 175.474 142.755 175.444C142.461 175.373 142.168 175.3 141.87 175.243C141.317 175.136 140.758 175.056 140.201 174.97C139.039 174.792 137.874 174.669 136.718 174.453C136.647 174.44 136.62 174.546 136.691 174.562C137.853 174.82 138.995 175.156 140.157 175.409C140.493 175.483 140.828 175.555 141.165 175.622C138.913 175.74 136.665 175.915 134.418 176.118C134.348 176.124 134.346 176.234 134.418 176.229C137.475 176.049 140.556 176.027 143.618 176.079C146.658 176.13 149.697 176.197 152.734 176.371C158.876 176.723 165.013 177.274 171.131 177.914C174.563 178.273 195.362 181.309 198.81 181.453C198.826 181.454 198.838 181.448 198.852 181.446C198.881 181.525 198.909 181.604 198.948 181.681C199.042 181.868 199.137 182.053 199.239 182.237C199.338 182.413 199.435 182.588 199.547 182.757C199.603 182.84 199.658 182.924 199.716 183.007C199.745 183.048 199.773 183.09 199.801 183.131C199.826 183.166 199.878 183.219 199.891 183.26C199.915 183.336 200.034 183.285 199.992 183.215Z" fill="#263238"/>
<path d="M210.155 209.523C209.056 207.765 208.12 205.89 207.114 204.078C206.106 202.26 205.096 200.442 204.084 198.626C202.065 195.003 194.818 182.818 194.102 181.966C194.057 181.912 193.964 181.974 193.987 182.036C194.328 182.979 198.851 191.046 199.892 192.846C201.974 196.443 204.162 199.969 206.32 203.522C206.936 204.536 207.573 205.537 208.198 206.546C208.822 207.553 209.486 208.545 210.06 209.581C210.095 209.645 210.193 209.584 210.155 209.523Z" fill="#263238"/>
<path d="M193.896 184.998C192.085 184.563 190.23 184.28 188.399 183.933C186.565 183.586 184.73 183.241 182.894 182.9C179.222 182.219 175.545 181.565 171.863 180.945C164.518 179.708 157.141 178.682 149.726 177.971C145.54 177.57 141.344 177.305 137.151 176.998C137.062 176.991 137.064 177.133 137.154 177.137C144.624 177.473 152.081 178.485 159.477 179.548C166.802 180.6 174.108 181.756 181.404 182.987C183.464 183.334 185.522 183.687 187.581 184.044C189.67 184.406 191.762 184.852 193.866 185.119C193.944 185.129 193.977 185.017 193.896 184.998Z" fill="#263238"/>
<path d="M214.759 313.853C212.992 313.677 169.016 293.911 167.815 292.098C167.357 291.412 169.862 284.84 173.114 276.984C173.816 275.287 174.551 273.54 175.308 271.77C180.209 260.268 185.676 248.18 185.676 248.18L215.131 261.316L203.952 284.544L201.503 289.644C201.503 289.644 214.955 304.743 216.058 306.873C217.152 309 216.526 314.029 214.759 313.853Z" fill="#F7A9A0"/>
<path d="M214.759 313.853C212.992 313.677 169.016 293.911 167.815 292.098C167.26 291.26 171.073 281.732 175.308 271.77L203.953 284.545L201.504 289.645C201.504 289.645 214.955 304.744 216.059 306.874C217.152 309 216.526 314.029 214.759 313.853Z" fill="white"/>
<path d="M214.759 313.853C212.992 313.677 169.016 293.911 167.815 292.098C167.357 291.412 169.862 284.84 173.114 276.984L201.503 289.645C201.503 289.645 214.955 304.744 216.058 306.874C217.152 309 216.526 314.029 214.759 313.853Z" fill="url(#paint9_radial_50_1852)"/>
<path d="M214.919 311.81C207.629 308.316 177.895 294.911 170.423 292.01C170.362 291.987 170.343 292.027 170.402 292.056C177.552 295.678 207.393 308.842 214.865 311.931C215.022 311.996 215.073 311.884 214.919 311.81Z" fill="#263238"/>
<path d="M213.941 304.021C212.224 303.164 210.143 303.226 208.722 303.839C207.356 304.427 205.94 305.482 205.305 307.034C205.287 307.079 205.367 307.116 205.394 307.074C207.112 304.378 210.874 303.024 213.899 304.113C213.96 304.135 213.999 304.05 213.941 304.021Z" fill="#263238"/>
<path d="M204.032 291.663C201.1 290.296 197.212 289.8 194.293 291.389C194.18 291.45 194.27 291.61 194.377 291.604C197.662 291.428 200.658 291.543 203.92 292.049C204.15 292.085 204.242 291.761 204.032 291.663Z" fill="#263238"/>
<path d="M205.911 293.575C202.979 292.208 199.09 291.712 196.172 293.301C196.059 293.363 196.148 293.522 196.256 293.516C199.542 293.34 202.537 293.455 205.798 293.961C206.029 293.997 206.121 293.673 205.911 293.575Z" fill="#263238"/>
<path d="M207.79 295.487C204.858 294.12 200.969 293.624 198.051 295.213C197.938 295.275 198.027 295.435 198.135 295.429C201.421 295.253 204.417 295.368 207.678 295.873C207.907 295.909 207.999 295.584 207.79 295.487Z" fill="#263238"/>
<path d="M209.668 297.399C206.736 296.032 202.848 295.535 199.93 297.124C199.817 297.186 199.906 297.346 200.014 297.34C203.299 297.164 206.295 297.279 209.557 297.785C209.786 297.82 209.878 297.497 209.668 297.399Z" fill="#263238"/>
<path d="M175.447 285.853C172.133 284.375 169.83 289.523 173.15 291.005C176.465 292.483 178.767 287.333 175.447 285.853Z" fill="#263238"/>
<path d="M210.76 285.224C209.823 283.314 207.397 283.679 205.898 284.55C203.471 285.962 201.134 288.421 199.827 290.89C199.794 290.951 199.831 290.997 199.881 291.016C199.848 291.256 200.019 291.546 200.304 291.493C203.058 290.984 206.065 290.781 208.58 289.442C210.049 288.661 211.645 287.029 210.76 285.224ZM204.322 289.868C202.973 290.151 201.619 290.366 200.282 290.699C201.47 289.466 202.598 288.188 203.909 287.075C204.535 286.543 205.188 286.01 205.881 285.569C206.96 284.882 210.964 283.718 209.815 287.06C209.182 288.902 205.928 289.53 204.322 289.868Z" fill="#263238"/>
<path d="M192.005 288.689C194.396 290.238 197.375 290.698 200.075 291.441C200.355 291.518 200.55 291.244 200.538 291.002C200.589 290.989 200.629 290.945 200.603 290.881C199.511 288.31 197.394 285.659 195.096 284.045C193.678 283.048 191.292 282.477 190.195 284.299C189.157 286.023 190.608 287.785 192.005 288.689ZM190.978 286.209C190.119 282.781 194.009 284.284 195.025 285.061C195.678 285.56 196.283 286.147 196.861 286.731C198.072 287.952 199.087 289.322 200.165 290.652C198.861 290.206 197.531 289.876 196.212 289.478C194.639 289.004 191.451 288.099 190.978 286.209Z" fill="#263238"/>
<path d="M175.98 269.069L209.107 284.049C209.107 284.049 248.537 208.367 249.567 185.203C250.444 165.487 236.719 157.878 192.351 170.631L181.481 170.768V178.268C186.253 178.898 198.98 180.896 198.98 180.896C208.241 184.389 211.224 185.835 211.074 186.137C187.981 232.771 175.98 269.069 175.98 269.069Z" fill="#455A64"/>
<path d="M216.502 177.816C215.164 179.598 213.927 181.454 212.743 183.346C205.627 180.182 197.88 178.348 190.172 177.398C187.991 177.129 185.8 176.938 183.606 176.813C183.516 176.808 183.52 176.947 183.609 176.953C191.427 177.436 199.099 179.027 206.577 181.325C208.64 181.959 210.664 182.696 212.696 183.421C211.274 185.697 209.935 188.028 208.647 190.375C206.241 194.762 204.089 199.277 202.169 203.897C201.105 206.455 200.069 209.03 199.154 211.646C199.128 211.72 199.251 211.769 199.283 211.697C203.329 202.673 207.739 193.851 212.537 185.202C213.89 182.763 215.299 180.359 216.62 177.902C216.657 177.832 216.554 177.748 216.502 177.816Z" fill="#263238"/>
<path d="M209.829 276.04C207.897 275.289 206.024 274.347 204.134 273.496C202.239 272.643 200.342 271.791 198.444 270.941C194.658 269.246 181.562 263.82 180.478 263.565C180.41 263.549 180.372 263.653 180.428 263.691C181.266 264.242 189.717 268 191.628 268.818C195.449 270.454 199.312 271.971 203.166 273.527C204.267 273.971 205.376 274.391 206.481 274.826C207.582 275.26 208.709 275.657 209.789 276.144C209.853 276.174 209.897 276.067 209.829 276.04Z" fill="#263238"/>
<path d="M216.339 181.236C213.725 186.203 211.499 191.399 209.228 196.53C206.966 201.64 204.768 206.779 202.634 211.945C198.384 222.232 194.432 232.641 190.755 243.145C188.674 249.091 186.727 255.081 184.831 261.087C184.804 261.174 184.938 261.205 184.967 261.121C188.477 250.502 192.277 239.975 196.248 229.52C200.21 219.09 204.417 208.749 208.867 198.518C210.117 195.644 211.387 192.779 212.676 189.923C213.967 187.066 215.31 184.226 216.517 181.333C216.566 181.216 216.402 181.118 216.339 181.236Z" fill="#263238"/>
<path d="M187.497 123.839C194.803 137.592 210.55 155.144 216.695 154.922C219.619 154.816 224.871 155.256 228.54 151.71C236.546 143.97 241.664 131.729 244.519 122.725C245.396 119.959 227.686 112.695 226.283 115.462C222.602 122.725 218.54 132.198 217.688 132.176C214.533 132.093 201.735 122.463 192.799 115.678C181.951 107.441 184.585 118.357 187.497 123.839Z" fill="#F7A9A0"/>
<path d="M242.492 127.47C240.71 129.186 225.745 122.785 225.107 120.327C224.988 119.864 224.961 118.962 225.028 117.786C225.021 117.783 225.021 117.783 225.021 117.783C225.021 117.783 223.331 112.38 220.327 108.385C217.81 105.024 213.687 100.323 215.443 98.9021C217.999 96.822 223.926 102.14 227.143 105.4C227.829 103.006 228.644 101.01 229.545 100.022C232.538 96.74 248.892 108.236 248.604 112.744C248.326 117.091 244.274 125.755 242.492 127.47Z" fill="#F7A9A0"/>
<path d="M225.948 106.001C227.013 108.049 228.817 105.622 228.817 105.622C228.817 105.622 227.062 109.742 228.977 111.429C230.826 113.051 232.903 110.042 233.054 109.828C232.963 110.047 231.449 113.875 233.547 115.372C235.729 116.927 237.295 113.548 237.396 113.329C237.375 113.563 237.149 116.655 239.001 117.431C242.186 118.761 242.982 110.87 245.218 109.194C245.218 109.194 248.49 112.661 248.606 112.741C248.606 112.741 249.517 105.249 247.089 102.359C245.809 100.835 244.136 101.727 244.136 101.727C244.136 101.727 244.697 99.3442 243.082 98.113C242.251 97.4837 240.505 98.2519 240.505 98.2519C240.505 98.2519 240.875 96.3252 239.37 95.3194C238.172 94.513 236.606 95.4094 236.606 95.4094C236.606 95.4094 236.102 93.3948 234.611 92.9686C231.603 92.1017 223.672 101.612 225.948 106.001Z" fill="#F7A9A0"/>
<path d="M236.336 95.5124C236.365 95.4829 236.33 95.4368 236.295 95.462C232.924 97.9532 229.982 101.723 228.706 105.742C228.664 105.874 228.86 105.999 228.933 105.863C231.042 101.972 233.223 98.6876 236.336 95.5124Z" fill="#263238"/>
<path d="M240.525 98.1879C240.558 98.1533 240.502 98.0972 240.461 98.1281C237 100.714 233.805 105.052 232.878 109.857C232.847 110.022 232.983 110.202 233.034 110.015C233.893 106.866 237.708 101.032 240.525 98.1879Z" fill="#263238"/>
<path d="M237.446 113.687C238.512 109.112 240.938 105.341 243.986 101.825C244.025 101.779 243.957 101.727 243.913 101.757C241.953 103.071 240.244 105.515 239.075 107.528C237.955 109.457 237.332 111.423 237.285 113.65C237.284 113.736 237.423 113.784 237.446 113.687Z" fill="#263238"/>
<path d="M228.743 105.646C228.693 105.804 228.979 105.703 228.934 105.863C228.745 106.536 227.95 110.68 229.278 111.388C230.343 111.954 231.842 110.915 232.262 110.29L233.316 108.718L232.872 110.561C232.679 111.365 232.587 112.242 232.666 113.061C232.742 113.878 233.035 114.672 233.641 115.104C234.266 115.568 235.032 115.608 235.633 115.131C236.246 114.685 236.725 113.929 237.046 113.193L237.941 111.136L237.768 113.363C237.721 113.966 237.748 114.617 237.859 115.217C237.974 115.817 238.19 116.405 238.581 116.79C238.962 117.169 239.556 117.343 240.036 117.16C240.546 116.974 240.978 116.48 241.342 115.974C242.072 114.93 242.588 113.715 243.159 112.537C243.441 111.945 243.723 111.349 244.034 110.766C244.351 110.196 244.681 109.59 245.217 109.193C244.729 109.639 244.475 110.262 244.197 110.846C243.935 111.445 243.701 112.056 243.464 112.669C242.994 113.894 242.505 115.122 241.791 116.276C241.418 116.834 240.993 117.427 240.27 117.748C239.522 118.074 238.645 117.819 238.101 117.285C237.544 116.743 237.298 116.032 237.153 115.358C237.017 114.671 236.978 114 237.02 113.294L237.743 113.464C237.371 114.337 236.899 115.147 236.096 115.77C235.7 116.075 235.164 116.281 234.621 116.253C234.075 116.229 233.594 116.017 233.185 115.714C232.339 115.079 232.019 114.041 231.949 113.127C231.878 112.187 231.988 111.285 232.219 110.38L232.829 110.652C232.269 111.428 230.72 112.773 228.957 112.103C226.792 110.887 228.392 106.438 228.743 105.646Z" fill="#263238"/>
<path d="M228.817 105.622C228.437 105.951 228.035 106.235 227.636 106.403C227.237 106.574 226.838 106.537 226.553 106.322C226.261 106.112 226.069 105.691 225.919 105.256C225.783 104.812 225.661 104.338 225.555 103.843C225.41 104.331 225.361 104.846 225.427 105.365C225.496 105.874 225.665 106.442 226.169 106.842C226.432 107.021 226.733 107.122 227.044 107.119C227.354 107.107 227.642 107.003 227.871 106.847C228.338 106.542 228.637 106.095 228.817 105.622Z" fill="#263238"/>
<path d="M244.302 127.39C244.302 127.39 234.014 150.408 227.534 153.333C221.063 156.257 217.063 155.869 214.586 155.619C213.859 155.545 212.957 155.146 211.923 154.49C205.024 150.058 192.271 133.809 186.965 124.586C182.982 117.651 183.074 111.194 188.682 112.997C190.079 113.44 191.817 114.403 193.926 116C204.47 123.993 216.623 131.504 217.166 131.184C217.711 130.872 223.088 121.355 223.088 121.355L244.302 127.39Z" fill="#263238"/>
<path d="M211.924 154.49C205.025 150.058 192.272 133.809 186.966 124.586C182.983 117.651 183.075 111.194 188.684 112.997C191.771 118.444 205.254 142.293 211.924 154.49Z" fill="#37474F"/>
<path d="M241.687 131.618C240.913 131.236 233.645 128.809 232.055 128.315C230.463 127.821 223.981 125.742 222.3 125.369C222.225 125.352 222.188 125.451 222.261 125.482C223.842 126.161 230.375 128.277 231.985 128.813C233.595 129.349 240.836 131.592 241.664 131.728C241.734 131.741 241.739 131.644 241.687 131.618Z" fill="#37474F"/>
<path d="M153.062 170.559C153.161 170.693 200.537 171.695 201.017 171.242C201.687 170.604 197.302 126.03 190.441 115.006C188.725 112.249 180.651 110.2 177.034 113.946C163.053 128.429 152.708 170.074 153.062 170.559Z" fill="url(#paint10_radial_50_1852)"/>
<path opacity="0.1" d="M201.074 170.381L153.216 169.524C153.266 169.287 153.324 169.02 153.396 168.711L201.053 169.567C201.067 169.884 201.082 170.151 201.074 170.381ZM200.894 166.983L154.008 166.147C153.936 166.428 153.871 166.702 153.814 166.954L200.952 167.796C200.938 167.537 200.916 167.271 200.894 166.983ZM200.671 164.398L154.685 163.577C154.613 163.851 154.541 164.124 154.469 164.391L200.743 165.219C200.722 164.952 200.7 164.679 200.671 164.398ZM200.419 161.82L155.398 161.014C155.318 161.287 155.246 161.561 155.167 161.82L200.498 162.634C200.477 162.367 200.448 162.094 200.419 161.82ZM200.146 159.235L156.146 158.443C156.06 158.717 155.981 158.983 155.909 159.25L200.232 160.049C200.203 159.783 200.174 159.509 200.146 159.235ZM199.843 156.643L156.917 155.88C156.838 156.154 156.751 156.42 156.672 156.687L199.937 157.457C199.908 157.191 199.872 156.917 199.843 156.643ZM199.519 154.059L157.73 153.31C157.644 153.583 157.558 153.857 157.471 154.123L199.62 154.872C199.591 154.606 199.555 154.332 199.519 154.059ZM199.181 151.474L158.566 150.747C158.472 151.02 158.386 151.294 158.299 151.56L199.296 152.287C199.253 152.021 199.217 151.747 199.181 151.474ZM198.821 148.889L159.437 148.183C159.343 148.457 159.25 148.723 159.163 148.997L198.936 149.703C198.9 149.429 198.864 149.162 198.821 148.889ZM198.446 146.297L160.337 145.62C160.243 145.894 160.142 146.16 160.049 146.426L198.569 147.111C198.526 146.837 198.482 146.571 198.446 146.297ZM198.043 143.712L161.28 143.057C161.179 143.323 161.078 143.597 160.978 143.863L198.166 144.526C198.13 144.252 198.086 143.979 198.043 143.712ZM197.618 141.127L162.259 140.494C162.151 140.76 162.05 141.034 161.95 141.3L197.755 141.941C197.712 141.667 197.669 141.401 197.618 141.127ZM197.172 138.543L163.274 137.938C163.166 138.204 163.058 138.478 162.95 138.744L197.309 139.356C197.266 139.083 197.222 138.809 197.172 138.543ZM196.69 135.951L164.347 135.367C164.232 135.634 164.117 135.907 164.002 136.174L196.848 136.764C196.798 136.49 196.747 136.224 196.69 135.951ZM196.186 133.359L165.47 132.811C165.348 133.078 165.226 133.344 165.11 133.618L196.344 134.172C196.294 133.899 196.236 133.625 196.186 133.359ZM195.631 130.766L166.658 130.255C166.522 130.522 166.399 130.788 166.277 131.062L195.811 131.587C195.754 131.306 195.696 131.033 195.631 130.766ZM195.041 128.182L167.911 127.699C167.774 127.966 167.638 128.232 167.501 128.506L195.228 128.995C195.17 128.722 195.106 128.455 195.041 128.182ZM194.386 125.59L169.25 125.143C169.106 125.41 168.962 125.676 168.818 125.95L194.602 126.411C194.53 126.137 194.465 125.863 194.386 125.59ZM193.666 122.991L170.705 122.58C170.546 122.847 170.388 123.113 170.237 123.386L193.903 123.811C193.824 123.531 193.745 123.257 193.666 122.991ZM192.838 120.399L172.296 120.031C172.116 120.298 171.943 120.564 171.778 120.838L193.111 121.219C193.018 120.939 192.931 120.665 192.838 120.399ZM191.851 117.799L174.067 117.482C173.866 117.749 173.671 118.015 173.484 118.289L192.182 118.62C192.074 118.339 191.959 118.066 191.851 117.799ZM190.555 115.2L176.119 114.941C175.889 115.2 175.658 115.474 175.435 115.747L191.016 116.021C190.865 115.733 190.714 115.459 190.555 115.2ZM186.624 112.543L179.474 112.421C178.92 112.615 178.394 112.874 177.919 113.206L188.582 113.393C188.006 113.062 187.344 112.774 186.624 112.543Z" fill="black"/>
<path d="M170.59 117.095C150.314 132.445 132.81 153.709 134.521 160.414C136.331 167.504 150.412 175.399 162.827 176.975C165.37 177.298 173.166 158.634 170.56 157.787C168.53 157.126 159.297 154.537 158.19 153.276C157.421 152.4 171.663 132.213 176.283 121.684C181.117 110.665 176.017 112.986 170.59 117.095Z" fill="#F7A9A0"/>
<path d="M203.131 167.317L179.653 175.532C178.921 175.707 178.636 176.321 179.019 176.901L185.876 187.288C186.258 187.867 187.165 188.197 187.898 188.022L211.375 179.807C212.109 179.632 212.392 179.019 212.009 178.439L205.152 168.052C204.769 167.471 203.864 167.142 203.131 167.317Z" fill="#C7C7C7"/>
<path d="M203.955 168.543L180.477 176.758C179.744 176.933 179.461 177.546 179.844 178.127L186.7 188.514C187.083 189.094 187.99 189.423 188.722 189.248L212.2 181.033C212.934 180.858 213.216 180.245 212.834 179.665L205.978 169.278C205.594 168.697 204.69 168.368 203.955 168.543Z" fill="#EBEBEB"/>
<path d="M204.916 171.998C204.421 172.309 203.768 172.16 203.458 171.665C203.147 171.171 203.296 170.518 203.79 170.207C204.284 169.896 204.937 170.045 205.248 170.54C205.559 171.035 205.41 171.687 204.916 171.998Z" fill="#263238"/>
<path d="M167.618 156.835C167.618 156.835 175.686 157.617 180.937 158.378C183.867 158.802 188.826 159.977 190.836 161.273C193.843 163.212 205.178 173.24 202.807 176.041C200.659 178.576 197.39 174.587 197.39 174.587C197.39 174.587 201.373 178.612 198.469 180.472C195.54 182.349 191.788 176.737 191.788 176.737C191.788 176.737 196.312 180.716 193.024 182.406C190.17 183.873 185.147 177.881 185.147 177.881C185.147 177.881 190.354 181.537 187.577 183.326C184.509 185.304 175.848 177.265 175.848 177.265C168.948 178.06 164.696 177.605 159.828 176.258C158.935 176.011 167.618 156.835 167.618 156.835Z" fill="#F7A9A0"/>
<path d="M193.005 178.082C192.691 177.654 192.367 177.234 192.053 176.807C191.436 175.969 190.827 175.155 190.114 174.394C189.425 173.658 188.706 172.957 187.965 172.275C187.181 171.554 186.32 170.911 185.556 170.172C185.495 170.113 185.412 170.202 185.477 170.259C186.26 170.945 186.94 171.782 187.638 172.553C188.329 173.317 189.01 174.091 189.69 174.864C190.355 175.621 191.066 176.326 191.753 177.062C192.095 177.43 192.42 177.813 192.746 178.194C193.051 178.551 193.335 178.964 193.697 179.264C193.733 179.294 193.78 179.246 193.763 179.209C193.581 178.801 193.268 178.44 193.005 178.082Z" fill="#263238"/>
<path d="M198.203 175.441C197.814 174.633 195.375 171.616 194.705 170.88C193.412 169.461 191.985 168.15 190.436 167.017C190.382 166.977 190.31 167.054 190.357 167.104C191.645 168.533 192.956 169.945 194.265 171.357C194.904 172.048 197.713 175.27 198.05 175.571C198.13 175.643 198.245 175.528 198.203 175.441Z" fill="#263238"/>
<path d="M188.187 180.692C187.777 179.94 185.467 177.131 184.82 176.464C184.213 175.838 181.395 173.562 180.477 173.043C180.418 173.01 180.348 173.084 180.397 173.13C181.753 174.375 183.125 175.594 184.42 176.904C185.051 177.542 187.418 180.232 188.074 180.788C188.132 180.84 188.223 180.758 188.187 180.692Z" fill="#263238"/>
<path d="M171.418 157.018L160.428 177.718C160.428 177.718 135.981 171.103 133.938 160.008C131.895 148.913 160.091 123.584 168.782 117.606C177.473 111.627 182.755 110.853 175.85 124.535C168.944 138.216 158.291 152.276 159.149 152.985C159.875 153.583 171.418 157.018 171.418 157.018Z" fill="#263238"/>
<path d="M156.973 174.814C157.498 174.129 161.292 167.471 162.085 166.008C162.878 164.543 166.179 158.589 166.871 157.012C166.902 156.942 166.811 156.887 166.766 156.951C165.793 158.371 162.448 164.367 161.609 165.843C160.77 167.318 157.163 173.985 156.868 174.77C156.843 174.836 156.937 174.86 156.973 174.814Z" fill="#37474F"/>
<path d="M171.549 156.946C171.549 156.946 171.156 157.594 171.033 157.791C171.018 157.815 170.96 157.881 171.006 157.778C171.076 157.62 171.361 157.054 171.361 157.054C168.052 156.279 164.759 155.419 161.505 154.39C161.098 154.257 160.69 154.123 160.283 153.967C159.875 153.795 159.499 153.685 159.038 153.367C159.008 153.336 158.992 153.336 158.946 153.282C158.9 153.22 158.854 153.158 158.831 153.089C158.809 152.981 158.826 152.804 158.857 152.726C158.895 152.619 158.943 152.496 158.99 152.396C159.075 152.196 159.177 151.996 159.27 151.804C159.466 151.42 159.676 151.044 159.878 150.667C160.704 149.162 161.561 147.687 162.44 146.221C164.222 143.304 165.996 140.386 167.84 137.523C169.58 134.805 171.397 131.733 173.223 129.077C173.331 128.92 173.609 128.771 173.279 129.359C171.596 132.331 170.075 134.894 168.339 137.827L163.093 146.611C162.221 148.077 161.334 149.528 160.501 151.011C160.291 151.379 160.081 151.748 159.885 152.125C159.784 152.309 159.698 152.493 159.605 152.678C159.574 152.755 159.55 152.816 159.526 152.885C159.503 152.869 159.488 152.861 159.472 152.846C159.472 152.846 159.457 152.846 159.457 152.838C159.464 152.853 159.472 152.869 159.472 152.892C159.503 152.9 159.495 152.961 159.502 152.938C159.51 152.923 159.518 152.901 159.526 152.885C159.772 153.048 160.179 153.212 160.525 153.36L161.709 153.806C163.301 154.394 164.923 154.92 166.554 155.431L171.549 156.946Z" fill="#263238"/>
<path d="M159.526 152.883C159.518 152.898 159.51 152.921 159.502 152.937C159.494 152.96 159.502 152.898 159.472 152.891C159.472 152.868 159.465 152.852 159.457 152.837C159.457 152.845 159.472 152.845 159.472 152.845C159.488 152.86 159.503 152.868 159.526 152.883Z" fill="#263238"/>
<path d="M182.796 110.559C176.291 111.285 177.88 115.821 180.827 118.695C183.773 121.568 187.277 122.637 189.609 121.927C191.971 121.208 191.971 117.019 191.392 114.665C190.949 112.862 188.117 109.966 182.796 110.559Z" fill="#263238"/>
<path d="M188.455 120.708C186.461 121.082 181.76 117.925 179.684 114.996C179.543 114.795 179.609 112.496 179.557 109.699C179.519 108.002 179.437 106.113 179.238 104.395L190.318 105.762C190.318 105.762 189.677 109.486 190.043 112.48C190.076 112.73 190.128 112.96 190.199 113.176C190.206 113.208 190.22 113.246 190.228 113.291C190.602 114.605 191.576 120.121 188.455 120.708Z" fill="#F7A9A0"/>
<path d="M190.198 113.177C190.203 113.209 190.217 113.247 190.232 113.293C189.898 113.377 189.529 113.442 189.125 113.48C182.864 114.066 180.418 106.561 179.864 104.478L190.32 105.761C190.32 105.761 189.678 109.487 190.041 112.477C190.081 112.728 190.133 112.962 190.198 113.177Z" fill="#263238"/>
<path d="M177.6 91.7474C176.555 95.6311 178.953 106.669 181.77 109.056C185.853 112.514 192.354 112.642 195.247 107.776C198.05 103.059 194.67 88.7285 191.541 86.5793C186.931 83.4134 179.145 86.0112 177.6 91.7474Z" fill="#F7A9A0"/>
<path d="M186.6 98.2022C186.587 98.1756 186.551 98.2519 186.561 98.2821C186.774 99.0129 186.895 99.8856 186.292 100.302C186.273 100.315 186.285 100.352 186.309 100.342C187.093 100.017 186.92 98.861 186.6 98.2022Z" fill="#263238"/>
<path d="M185.743 97.6032C184.535 97.8192 185.056 100.22 186.175 100.019C187.277 99.8229 186.756 97.4217 185.743 97.6032Z" fill="#263238"/>
<path d="M191.089 97.128C191.089 97.0985 191.155 97.1504 191.161 97.1813C191.298 97.9301 191.582 98.7646 192.308 98.8654C192.331 98.8683 192.337 98.9064 192.311 98.9079C191.465 98.9705 191.1 97.8588 191.089 97.128Z" fill="#263238"/>
<path d="M191.586 96.2072C192.762 95.8572 193.375 98.2354 192.286 98.5594C191.213 98.8791 190.599 96.5009 191.586 96.2072Z" fill="#263238"/>
<path d="M184.558 96.7111C184.868 96.5578 185.127 96.3655 185.417 96.1819C185.744 95.9753 186.026 95.8443 186.19 95.4756C186.278 95.2776 186.159 94.9817 185.975 94.8787C185.546 94.6383 185.082 94.7916 184.679 95.0242C184.24 95.2769 183.966 95.5836 183.786 96.0552C183.612 96.5124 184.151 96.9127 184.558 96.7111Z" fill="#263238"/>
<path d="M192.225 93.7375C191.881 93.7555 191.56 93.7145 191.218 93.6965C190.831 93.6771 190.521 93.7008 190.198 93.4589C190.025 93.3293 189.983 93.0139 190.093 92.8332C190.349 92.4135 190.829 92.3199 191.295 92.3249C191.801 92.3299 192.189 92.4639 192.578 92.7864C192.953 93.1003 192.679 93.7138 192.225 93.7375Z" fill="#263238"/>
<path d="M187.804 105.677C188.02 105.812 188.25 106.013 188.524 105.977C188.788 105.943 189.066 105.761 189.283 105.617C189.305 105.603 189.333 105.623 189.323 105.648C189.192 105.976 188.824 106.242 188.467 106.257C188.118 106.271 187.888 106.016 187.74 105.726C187.719 105.685 187.773 105.657 187.804 105.677Z" fill="#263238"/>
<path d="M188.058 102.874C188.615 103.429 189.303 103.649 189.992 103.633C190.3 103.628 190.614 103.571 190.912 103.478C190.972 103.463 191.03 103.444 191.082 103.42C191.135 103.402 191.182 103.385 191.24 103.36C191.324 103.328 191.356 103.246 191.353 103.161L191.352 103.155C191.345 103.128 191.34 103.106 191.328 103.08C191.328 103.08 191.328 103.08 191.326 103.074L191.31 103.01C191.202 102.434 190.958 101.575 190.958 101.575C191.19 101.634 192.36 101.883 192.278 101.588C191.593 99.144 190.832 96.426 189.634 94.1385C189.598 94.0608 189.478 94.1069 189.503 94.1868C190.068 96.5621 191.047 98.8214 191.652 101.198C191.284 101.143 190.677 101.024 190.379 101.094C190.302 101.135 190.881 102.745 190.909 103.008C190.909 103.008 190.912 103.019 190.91 103.036C189.975 103.368 189.186 103.234 188.113 102.791C188.049 102.761 188.001 102.824 188.058 102.874Z" fill="#263238"/>
<path d="M190.512 103.261C190.512 103.261 190.153 104.056 189.511 104.454C189.275 104.602 189.007 104.697 188.701 104.683C188.073 104.656 187.941 104.114 187.948 103.624C187.953 103.221 188.06 102.853 188.06 102.853C188.06 102.853 189.103 103.476 190.512 103.261Z" fill="#263238"/>
<path d="M189.511 104.454C189.275 104.602 189.007 104.697 188.701 104.683C188.073 104.656 187.941 104.114 187.948 103.624C188.6 103.552 189.323 103.847 189.511 104.454Z" fill="#FF9BBC"/>
<path d="M177.752 101.755C179.815 100.942 180.192 93.7181 180.192 93.7181C180.192 93.7181 180.47 96.7385 181.029 96.6096C181.588 96.4814 183.502 92.1528 183.474 89.1864C183.474 89.1864 186.341 90.7416 189.108 91.2787C191.875 91.8158 194.831 91.3435 194.787 90.887C194.655 89.5262 193.064 86.0947 191.092 85.0176C188.821 83.7778 185.643 82.6747 181.418 84.7879C177.193 86.9011 176.322 89.8366 175.887 92.088C175.451 94.3402 176.994 102.054 177.752 101.755Z" fill="#263238"/>
<path d="M180.274 100.72C180.274 100.72 177.574 97.2655 175.993 98.2469C174.413 99.2283 176.576 104.329 178.526 104.939C180.476 105.549 181.076 103.756 181.076 103.756L180.274 100.72Z" fill="#F7A9A0"/>
<path d="M176.65 99.6934C176.619 99.6926 176.615 99.7359 176.643 99.7452C178.012 100.217 178.784 101.422 179.346 102.684C178.921 102.209 178.364 101.966 177.725 102.476C177.691 102.503 177.728 102.556 177.764 102.546C178.307 102.399 178.708 102.473 179.103 102.893C179.382 103.19 179.582 103.575 179.79 103.924C179.859 104.041 180.072 103.965 180.019 103.829C180.015 103.819 180.01 103.809 180.006 103.799C179.95 102.089 178.494 99.7675 176.65 99.6934Z" fill="#263238"/>
<path d="M188.952 83.7756C187.682 83.1831 186.164 82.5624 184.388 82.2968C182.614 82.0311 176.99 82.332 175.617 83.425C174.244 84.518 173.764 89.7992 173.709 90.5724C173.655 91.3457 173.891 96.0308 175.558 97.1993C177.224 98.3679 177.574 90.427 180.311 87.8544C183.048 85.2826 188.952 83.7756 188.952 83.7756Z" fill="url(#paint11_radial_50_1852)"/>
<path opacity="0.1" d="M188.953 83.7771C188.953 83.7771 183.047 85.2826 180.312 87.8559C177.574 90.4248 177.225 98.3679 175.556 97.2008C174.822 96.6852 174.477 95.9379 174.199 94.688C174.609 92.3746 175.632 88.794 177.627 86.3446C179.495 84.05 182.642 82.9419 185.988 82.6438C187.096 82.9505 188.081 83.3703 188.953 83.7771Z" fill="black"/>
<path d="M175.909 101.928C176.111 99.8137 178.397 94.197 180.732 91.0009C183.067 87.8055 189.752 86.0638 190.68 86.1394C192.93 86.3223 193.311 87.475 193.673 87.2821C194.034 87.0891 192.121 84.8874 191.496 84.4935C190.87 84.099 189.186 83.1622 188.205 83.163C187.224 83.1637 181.17 83.6209 178.914 86.1452C176.657 88.6695 173.38 95.8155 173.906 97.6774C174.032 98.1238 174.615 98.4241 174.789 99.057C175.016 99.8886 175.167 100.848 175.402 101.431C175.592 101.901 175.892 102.112 175.909 101.928Z" fill="url(#paint12_radial_50_1852)"/>
<path d="M181.287 89.555C180.774 89.2217 180.298 88.8609 179.847 88.4462C179.403 88.0373 178.961 87.5829 178.626 87.0789C178.602 87.0422 178.542 87.0703 178.564 87.1113C178.867 87.6758 179.204 88.1935 179.669 88.6399C180.115 89.0683 180.662 89.4276 181.236 89.6616C181.299 89.6875 181.342 89.591 181.287 89.555Z" fill="#263238"/>
<path d="M175.938 99.8122C175.883 99.6581 175.786 99.5206 175.717 99.3716C175.638 99.2016 175.573 99.026 175.532 98.8431C175.452 98.4939 175.47 98.1404 175.316 97.8092C175.193 97.5471 175.013 97.3196 174.836 97.0928C174.634 96.8343 174.435 96.5636 174.439 96.2223C174.44 96.1769 174.37 96.1733 174.369 96.2187C174.351 96.8616 174.772 97.3289 175.04 97.8732C175.212 98.2224 175.194 98.6127 175.304 98.9799C175.398 99.2909 175.56 99.6905 175.842 99.877C175.884 99.9072 175.958 99.8662 175.938 99.8122Z" fill="#263238"/>
<path d="M176.723 97.5413C176.527 97.2951 176.317 97.0748 176.145 96.8084C175.98 96.5535 175.838 96.2806 175.709 96.0056C175.581 95.7334 175.477 95.4526 175.355 95.1783C175.211 94.8543 175.028 94.544 174.9 94.2142C174.883 94.1717 174.821 94.2049 174.837 94.2466C174.969 94.5886 175.043 94.9551 175.164 95.3029C175.27 95.6024 175.404 95.894 175.547 96.1769C175.685 96.4498 175.843 96.7083 176.03 96.9502C176.208 97.1792 176.439 97.4333 176.698 97.5709C176.718 97.5809 176.737 97.5593 176.723 97.5413Z" fill="#263238"/>
<path d="M177.542 95.4893C177.114 95.1063 176.72 94.6519 176.42 94.1609C176.124 93.6763 175.856 93.1723 175.593 92.6691C175.576 92.6345 175.514 92.6539 175.527 92.6928C175.715 93.2551 175.898 93.8131 176.219 94.3171C176.37 94.5562 176.539 94.8017 176.743 94.999C176.965 95.2135 177.227 95.3892 177.494 95.5447C177.528 95.5649 177.574 95.5188 177.542 95.4893Z" fill="#263238"/>
<path d="M178.427 93.5273C178.191 93.3797 178.04 93.1673 177.879 92.947C177.701 92.7058 177.529 92.4588 177.365 92.2082C177.207 91.967 177.044 91.7309 176.886 91.489C176.728 91.2463 176.57 90.9929 176.525 90.7027C176.519 90.6638 176.454 90.6689 176.455 90.7085C176.462 91.0044 176.559 91.2744 176.679 91.5422C176.811 91.8346 176.959 92.1161 177.139 92.3818C177.315 92.6431 177.504 92.8951 177.713 93.1313C177.895 93.3372 178.11 93.5496 178.384 93.6151C178.437 93.6281 178.476 93.559 178.427 93.5273Z" fill="#263238"/>
<path d="M179.091 91.0281C178.898 90.8309 178.709 90.6336 178.533 90.4219C178.358 90.2109 178.194 89.9913 178.032 89.7696C177.864 89.5377 177.687 89.3066 177.534 89.0654C177.51 89.0273 177.454 89.0561 177.471 89.0985C177.582 89.3671 177.692 89.6277 177.844 89.8776C177.991 90.1224 178.158 90.3513 178.339 90.5724C178.516 90.7891 178.703 91.0037 178.907 91.1959C179.104 91.3817 179.327 91.5977 179.584 91.6934C179.622 91.7078 179.666 91.6603 179.643 91.6236C179.499 91.3989 179.276 91.2182 179.091 91.0281Z" fill="#263238"/>
<path d="M182.938 88.3894C182.736 88.1245 182.538 87.8653 182.311 87.6205C182.081 87.3721 181.832 87.1373 181.575 86.9163C181.072 86.4829 180.544 86.0854 179.959 85.7708C179.927 85.7535 179.882 85.7953 179.914 85.8241C180.895 86.7053 181.914 87.5463 182.887 88.4377C182.92 88.4679 182.966 88.4261 182.938 88.3894Z" fill="#263238"/>
<path d="M184.261 86.6081C184.053 86.3489 183.82 86.1149 183.558 85.909C183.012 85.4784 182.393 85.1566 181.768 84.8571C181.728 84.8383 181.691 84.8895 181.729 84.9161C182.27 85.2941 182.817 85.6627 183.335 86.071C183.591 86.2726 183.845 86.4807 184.077 86.7089C184.311 86.9386 184.487 87.2115 184.709 87.4498C184.726 87.4685 184.761 87.4527 184.754 87.426C184.671 87.1258 184.454 86.8479 184.261 86.6081Z" fill="#263238"/>
<path d="M186.044 85.819C185.853 85.5634 185.635 85.3337 185.396 85.1227C184.944 84.721 184.429 84.4092 183.871 84.1788C183.833 84.1637 183.807 84.2206 183.84 84.2414C184.347 84.5633 184.83 84.9305 185.275 85.3337C185.498 85.536 185.711 85.7506 185.926 85.9622C186.139 86.1725 186.319 86.436 186.553 86.6225C186.572 86.6376 186.595 86.6117 186.586 86.593C186.456 86.3158 186.226 86.063 186.044 85.819Z" fill="#263238"/>
<path d="M187.343 84.7937C187.124 84.6072 186.897 84.4337 186.669 84.2602C186.443 84.0895 186.212 83.9225 185.943 83.8289C185.903 83.8152 185.884 83.8678 185.913 83.8923C186.338 84.2465 186.756 84.6115 187.174 84.9759C187.568 85.3186 187.826 85.7549 188.137 86.166C188.151 86.184 188.183 86.1667 188.176 86.1459C188.027 85.6181 187.762 85.1515 187.343 84.7937Z" fill="#263238"/>
<path d="M188.939 84.4906C188.545 84.0795 188.06 83.8102 187.547 83.5769C187.511 83.5603 187.482 83.6215 187.517 83.6395C187.991 83.8872 188.403 84.2602 188.779 84.636C189.163 85.0198 189.472 85.4604 189.763 85.9169C189.778 85.9385 189.818 85.9284 189.809 85.8996C189.645 85.3675 189.323 84.8895 188.939 84.4906Z" fill="#263238"/>
<path d="M190.999 85.487C190.95 85.3747 190.888 85.266 190.825 85.1608C190.697 84.9484 190.536 84.7548 190.367 84.574C190.02 84.2032 189.6 83.9138 189.188 83.6208C189.151 83.5948 189.112 83.6546 189.15 83.6798C189.557 83.957 189.922 84.2918 190.251 84.6568C190.414 84.8368 190.558 85.0291 190.692 85.2307C190.758 85.3293 190.817 85.4308 190.873 85.5345C190.927 85.6324 190.971 85.7534 191.041 85.8384C191.06 85.8614 191.103 85.8463 191.102 85.816C191.1 85.708 191.041 85.5864 190.999 85.487Z" fill="#263238"/>
<path d="M192.269 85.6311C192.152 85.4619 192.029 85.3014 191.893 85.1466C191.758 84.9925 191.616 84.8492 191.462 84.7131C191.305 84.5749 191.143 84.4424 190.992 84.297C190.956 84.2617 190.908 84.3171 190.947 84.3502C191.108 84.4849 191.249 84.6447 191.384 84.8046C191.512 84.9565 191.642 85.1062 191.771 85.2574C191.899 85.4086 192.028 85.5591 192.155 85.711C192.284 85.8644 192.396 86.0415 192.541 86.1798C192.565 86.2028 192.599 86.1769 192.587 86.1474C192.516 85.9623 192.383 85.7931 192.269 85.6311Z" fill="#263238"/>
</g>
<defs>
<radialGradient id="paint0_radial_50_1852" cx="0" cy="0" r="1" gradientUnits="userSpaceOnUse" gradientTransform="translate(80.871 248.493) rotate(-52.1207) scale(42.0333 94.5174)">
<stop offset="0.0671491" stop-color="#D300FF"/>
<stop offset="1" stop-color="#4E0093"/>
</radialGradient>
<radialGradient id="paint1_radial_50_1852" cx="0" cy="0" r="1" gradientUnits="userSpaceOnUse" gradientTransform="translate(42.406 252.574) rotate(-51.7068) scale(35.7641 80.7067)">
<stop offset="0.0671491" stop-color="#D300FF"/>
<stop offset="1" stop-color="#4E0093"/>
</radialGradient>
<radialGradient id="paint2_radial_50_1852" cx="0" cy="0" r="1" gradientUnits="userSpaceOnUse" gradientTransform="translate(76.9293 269.853) rotate(-49.0652) scale(28.004 64.3142)">
<stop offset="0.0671491" stop-color="#D300FF"/>
<stop offset="1" stop-color="#4E0093"/>
</radialGradient>
<radialGradient id="paint3_radial_50_1852" cx="0" cy="0" r="1" gradientUnits="userSpaceOnUse" gradientTransform="translate(163.115 210.211) rotate(-13.9541) scale(53.6016 58.2038)">
<stop offset="0.0671491" stop-color="#D300FF"/>
<stop offset="1" stop-color="#4E0093"/>
</radialGradient>
<radialGradient id="paint4_radial_50_1852" cx="0" cy="0" r="1" gradientUnits="userSpaceOnUse" gradientTransform="translate(272.812 179.944) rotate(-47.4345) scale(57.9736 134.009)">
<stop offset="0.0671491" stop-color="#D300FF"/>
<stop offset="1" stop-color="#4E0093"/>
</radialGradient>
<radialGradient id="paint5_radial_50_1852" cx="0" cy="0" r="1" gradientUnits="userSpaceOnUse" gradientTransform="translate(341.647 123.923) rotate(-45.66) scale(16.263 37.7188)">
<stop offset="0.0671491" stop-color="#D300FF"/>
<stop offset="1" stop-color="#4E0093"/>
</radialGradient>
<radialGradient id="paint6_radial_50_1852" cx="0" cy="0" r="1" gradientUnits="userSpaceOnUse" gradientTransform="translate(30.6348 168.663) rotate(-26.157) scale(62.6976 115.108)">
<stop offset="0.0671491" stop-color="#D300FF"/>
<stop offset="1" stop-color="#4E0093"/>
</radialGradient>
<radialGradient id="paint7_radial_50_1852" cx="0" cy="0" r="1" gradientUnits="userSpaceOnUse" gradientTransform="translate(30.5797 166.427) rotate(-26.9974) scale(62.716 117.701)">
<stop offset="0.0671491" stop-color="#D300FF"/>
<stop offset="1" stop-color="#4E0093"/>
</radialGradient>
<radialGradient id="paint8_radial_50_1852" cx="0" cy="0" r="1" gradientUnits="userSpaceOnUse" gradientTransform="translate(219.946 214.076) rotate(-49.3304) scale(51.1911 117.405)">
<stop offset="0.0671491" stop-color="#D300FF"/>
<stop offset="1" stop-color="#4E0093"/>
</radialGradient>
<radialGradient id="paint9_radial_50_1852" cx="0" cy="0" r="1" gradientUnits="userSpaceOnUse" gradientTransform="translate(180.445 309.716) rotate(-42.1554) scale(48.7704 112.586)">
<stop offset="0.0671491" stop-color="#D300FF"/>
<stop offset="1" stop-color="#4E0093"/>
</radialGradient>
<radialGradient id="paint10_radial_50_1852" cx="0" cy="0" r="1" gradientUnits="userSpaceOnUse" gradientTransform="translate(165.527 164.681) rotate(-56.0303) scale(63.6359 136.822)">
<stop offset="0.0671491" stop-color="#D300FF"/>
<stop offset="1" stop-color="#4E0093"/>
</radialGradient>
<radialGradient id="paint11_radial_50_1852" cx="0" cy="0" r="1" gradientUnits="userSpaceOnUse" gradientTransform="translate(177.663 95.6188) rotate(-49.9128) scale(17.5315 40.0751)">
<stop offset="0.0671491" stop-color="#D300FF"/>
<stop offset="1" stop-color="#4E0093"/>
</radialGradient>
<radialGradient id="paint12_radial_50_1852" cx="0" cy="0" r="1" gradientUnits="userSpaceOnUse" gradientTransform="translate(179.01 99.8788) rotate(-48.6556) scale(22.2655 51.2343)">
<stop offset="0.0671491" stop-color="#D300FF"/>
<stop offset="1" stop-color="#4E0093"/>
</radialGradient>
<clipPath id="clip0_50_1852">
<rect width="360" height="360" fill="white"/>
</clipPath>
</defs>
</svg>
